<svg width="24" height="24" viewBox="0 0 24 24" fill="none" xmlns="http://www.w3.org/2000/svg">
<g clip-path="url(#clip0)">
<path d="M17.2 11.2H16.8V10.4H17.2C17.8627 10.4 18.4 9.86275 18.4 9.2V2.3264C19.0236 2.10675 19.3511 1.4231 19.1314 0.799452C18.9624 0.319652 18.5087 -0.000947814 18 2.18596e-06H5.99999C5.33879 -0.00124781 4.80179 0.533752 4.80054 1.19495C4.79954 1.70365 5.12019 2.1574 5.59999 2.3264V9.2C5.59999 9.86275 6.13724 10.4 6.79999 10.4H7.19999V11.2H6.79999C5.69599 11.2013 4.80129 12.096 4.79999 13.2C4.79999 13.4209 4.97909 13.6 5.19999 13.6C5.19214 16.273 6.75999 18.6995 9.19999 19.7908V23.6C9.19999 23.8209 9.37909 24 9.59999 24H14.4C14.6209 24 14.8 23.8209 14.8 23.6V19.7908C17.2396 18.6991 18.8073 16.2728 18.8 13.6C19.0209 13.6 19.2 13.4209 19.2 13.2C19.1987 12.096 18.304 11.2013 17.2 11.2ZM5.59999 1.2C5.59999 0.979102 5.77909 0.800002 5.99999 0.800002H18C18.2209 0.800002 18.4 0.979102 18.4 1.2C18.4 1.4209 18.2209 1.6 18 1.6H5.99999C5.77909 1.6 5.59999 1.4209 5.59999 1.2ZM6.79999 9.6C6.57909 9.6 6.39999 9.4209 6.39999 9.2V2.4H17.6V9.2C17.6 9.4209 17.4209 9.6 17.2 9.6H6.79999ZM16 10.4V11.2H7.99999V10.4H16ZM9.99999 23.2V20.1008L10.0372 20.1108C10.0772 20.1228 10.1172 20.132 10.1572 20.1432C10.3036 20.1848 10.4514 20.2214 10.6008 20.2528C10.6724 20.268 10.7444 20.2804 10.8164 20.2928C10.94 20.3144 11.0644 20.3328 11.1896 20.3468C11.2656 20.356 11.3408 20.3656 11.4176 20.372C11.5805 20.3856 11.7438 20.3934 11.9076 20.3952C11.938 20.3952 11.9676 20.3996 11.998 20.3996C12.0284 20.3996 12.0584 20.3956 12.0888 20.3952C12.2525 20.3934 12.4157 20.3856 12.5784 20.372C12.6552 20.3656 12.7312 20.3556 12.8076 20.3468C12.9316 20.332 13.0548 20.3144 13.1776 20.2932C13.2508 20.2804 13.324 20.2672 13.3968 20.2532C13.5424 20.2232 13.686 20.1868 13.8284 20.1468C13.8728 20.1344 13.918 20.1244 13.9624 20.1112C13.974 20.1076 13.9864 20.1052 13.998 20.1016L14 23.2H9.99999ZM14.248 19.162C13.1713 19.5962 11.9921 19.7098 10.8524 19.4892C10.4748 19.4166 10.1054 19.3066 9.74959 19.1608C7.47824 18.2508 5.99219 16.0469 5.99999 13.6H18C18.0076 16.0478 16.5205 18.2523 14.248 19.162ZM5.66839 12.8C5.83854 12.3209 6.29159 12.0006 6.79999 12H17.2C17.7084 12.0006 18.1614 12.3209 18.3316 12.8H5.66839Z" fill="#100E34" fill-opacity="0.5"/>
<path d="M10.4001 3.59998H9.12646C8.90556 2.97513 8.21991 2.64768 7.59511 2.86863C6.97031 3.08958 6.64281 3.77513 6.86371 4.39998C7.08461 5.02483 7.77026 5.35228 8.39506 5.13133C8.73681 5.01053 9.00561 4.74168 9.12641 4.39998H10.4001C10.621 4.39998 10.8001 4.22088 10.8001 3.99998C10.8001 3.77908 10.621 3.59998 10.4001 3.59998ZM8.00006 4.39998C7.77916 4.39998 7.60006 4.22088 7.60006 3.99998C7.60006 3.77908 7.77916 3.59998 8.00006 3.59998C8.22096 3.59998 8.40006 3.77908 8.40006 3.99998C8.40006 4.22088 8.22096 4.39998 8.00006 4.39998Z" fill="#100E34" fill-opacity="0.5"/>
</g>
<defs>
<clipPath id="clip0">
<rect width="24" height="24" fill="white"/>
</clipPath>
</defs>
</svg>
