<svg width="24" height="24" viewBox="0 0 24 24" fill="none" xmlns="http://www.w3.org/2000/svg">
<path d="M23.25 15C23.25 14.3859 23.25 3.78375 23.25 3.375C23.25 2.96081 22.9142 2.625 22.5 2.625C22.0858 2.625 21.75 2.96081 21.75 3.375V4.125H2.25V3.375C2.25 2.96081 1.91419 2.625 1.5 2.625C1.08581 2.625 0.75 2.96081 0.75 3.375V15C0.335812 15 0 15.3358 0 15.75V20.625C0 21.0392 0.335812 21.375 0.75 21.375H2.625C2.86106 21.375 3.08334 21.2639 3.225 21.075L4.125 19.875H19.875L20.775 21.075C20.9166 21.2639 21.1389 21.375 21.375 21.375H23.25C23.6642 21.375 24 21.0392 24 20.625V15.75C24 15.3358 23.6642 15 23.25 15ZM21.75 11.6536C20.9435 11.1858 20.3064 11.25 19.5 11.25V9.75C19.5 8.50936 18.4906 7.5 17.25 7.5H13.5C12.9242 7.5 12.3984 7.71769 12 8.07473C11.6016 7.71769 11.0758 7.5 10.5 7.5H6.75C5.50936 7.5 4.5 8.50936 4.5 9.75V11.25C3.65677 11.25 3.05217 11.1884 2.25 11.6536V5.625H21.75V11.6536ZM6 11.25V9.75C6 9.33647 6.33647 9 6.75 9H10.5C10.9135 9 11.25 9.33647 11.25 9.75V11.25H6ZM12.75 9.75C12.75 9.33647 13.0865 9 13.5 9H17.25C17.6635 9 18 9.33647 18 9.75V11.25H12.75V9.75ZM2.25 14.25C2.25 13.4229 2.92289 12.75 3.75 12.75H20.25C21.0771 12.75 21.75 13.4229 21.75 14.25V15H2.25V14.25ZM22.5 19.875H21.75L20.85 18.675C20.7084 18.4861 20.4861 18.375 20.25 18.375H3.75C3.51394 18.375 3.29166 18.4861 3.15 18.675L2.25 19.875H1.5V16.5H22.5V19.875Z" fill="#100E34" fill-opacity="0.5"/>
</svg>
