<svg width="10" height="10" viewBox="0 0 10 10" fill="none" xmlns="http://www.w3.org/2000/svg">
<path d="M7.34375 0.585938C6.80111 0.585938 6.30361 0.757891 5.8651 1.09703C5.44469 1.42217 5.16479 1.83629 5 2.13742C4.83521 1.83627 4.55531 1.42217 4.1349 1.09703C3.69639 0.757891 3.19889 0.585938 2.65625 0.585938C1.14195 0.585938 0 1.82455 0 3.46707C0 5.24156 1.42467 6.45564 3.58143 8.29359C3.94768 8.60572 4.36281 8.95951 4.7943 9.33684C4.85117 9.38664 4.92422 9.41406 5 9.41406C5.07578 9.41406 5.14883 9.38664 5.2057 9.33685C5.63723 8.95947 6.05234 8.6057 6.41881 8.2934C8.57533 6.45564 10 5.24156 10 3.46707C10 1.82455 8.85805 0.585938 7.34375 0.585938Z" fill="white"/>
</svg>
