<svg width="24" height="24" viewBox="0 0 24 24" fill="none" xmlns="http://www.w3.org/2000/svg">
<g clip-path="url(#clip0)">
<path d="M17 0H7.00007C5.89752 0 5.00006 0.896948 5.00006 2V23.4999C5.00006 23.6903 5.10848 23.8642 5.27934 23.9486C5.45221 24.0326 5.65434 24.0126 5.80471 23.8964L12 19.1307L18.1953 23.8964C18.2842 23.9647 18.3916 23.9999 18.5 23.9999C18.5752 23.9999 18.6504 23.9828 18.7207 23.9486C18.8916 23.8641 18.9999 23.6903 18.9999 23.4998V2C19 0.896948 18.1025 0 17 0ZM18 22.4843L12.3047 18.1034C12.2148 18.0346 12.1074 17.9999 12 17.9999C11.8926 17.9999 11.7852 18.0346 11.6953 18.1034L6.00004 22.4843V2C6.00004 1.44876 6.4483 1.00003 7.00002 1.00003H16.9999C17.5517 1.00003 17.9999 1.44876 17.9999 2V22.4843H18Z" fill="#100E34" fill-opacity="0.5"/>
</g>
<defs>
<clipPath id="clip0">
<rect width="24" height="24" fill="white"/>
</clipPath>
</defs>
</svg>
