<svg width="24" height="24" viewBox="0 0 24 24" fill="none" xmlns="http://www.w3.org/2000/svg">
<path d="M23.625 14.25H16.125V13.5H16.5C16.7071 13.5 16.875 13.3321 16.875 13.125C16.875 12.9179 16.7071 12.75 16.5 12.75H16.125V12.375C16.125 11.5466 16.7966 10.875 17.625 10.875C18.4534 10.875 19.125 11.5466 19.125 12.375C19.125 12.5821 19.2929 12.75 19.5 12.75C19.7071 12.75 19.875 12.5821 19.875 12.375C19.875 11.1323 18.8677 10.125 17.625 10.125C16.3823 10.125 15.375 11.1323 15.375 12.375V14.25H9.0825C9.26976 14.045 9.37402 13.7776 9.375 13.5V11.25C9.375 11.0429 9.20709 10.875 9 10.875H3.375C3.16791 10.875 3 11.0429 3 11.25V13.5C3.00098 13.7776 3.10523 14.045 3.2925 14.25H0.375C0.167906 14.25 0 14.4179 0 14.625V23.625C0 23.8321 0.167906 24 0.375 24H23.625C23.8321 24 24 23.8321 24 23.625V14.625C24 14.4179 23.8321 14.25 23.625 14.25ZM3.75 11.625H8.625V13.5C8.625 13.7071 8.45709 13.875 8.25 13.875H4.125C3.91791 13.875 3.75 13.7071 3.75 13.5V11.625ZM6 23.25H0.75V18.75H6V23.25ZM6 18H0.75V15H1.875C1.875 15.2071 2.04291 15.375 2.25 15.375H4.5C4.70709 15.375 4.875 15.2071 4.875 15H6V18ZM17.25 23.25H6.75V15H17.25V23.25ZM23.25 23.25H18V18.75H23.25V23.25ZM23.25 18H18V15H19.125C19.125 15.2071 19.2929 15.375 19.5 15.375H21.75C21.9571 15.375 22.125 15.2071 22.125 15H23.25V18Z" fill="#100E34" fill-opacity="0.5"/>
<path d="M7.5 20.625H16.5C16.7071 20.625 16.875 20.4571 16.875 20.25V16.5C16.875 16.2929 16.7071 16.125 16.5 16.125H7.5C7.29291 16.125 7.125 16.2929 7.125 16.5V20.25C7.125 20.4571 7.29291 20.625 7.5 20.625ZM7.875 16.875H16.125V19.875H7.875V16.875Z" fill="#100E34" fill-opacity="0.5"/>
<path d="M14.25 21.75H9.75C9.54291 21.75 9.375 21.9179 9.375 22.125C9.375 22.3321 9.54291 22.5 9.75 22.5H14.25C14.4571 22.5 14.625 22.3321 14.625 22.125C14.625 21.9179 14.4571 21.75 14.25 21.75Z" fill="#100E34" fill-opacity="0.5"/>
<path d="M4.125 5.625H19.875C20.0821 5.625 20.25 5.45709 20.25 5.25V0.375C20.25 0.167906 20.0821 0 19.875 0H4.125C3.91791 0 3.75 0.167906 3.75 0.375V5.25C3.75 5.45709 3.91791 5.625 4.125 5.625ZM12.375 0.75H19.5V4.875H12.375V0.75ZM4.5 0.75H11.625V4.875H4.5V0.75Z" fill="#100E34" fill-opacity="0.5"/>
<path d="M9.375 2.625H6.375C6.16791 2.625 6 2.79291 6 3C6 3.20709 6.16791 3.375 6.375 3.375H9.375C9.58209 3.375 9.75 3.20709 9.75 3C9.75 2.79291 9.58209 2.625 9.375 2.625Z" fill="#100E34" fill-opacity="0.5"/>
<path d="M17.625 2.625H14.625C14.4179 2.625 14.25 2.79291 14.25 3C14.25 3.20709 14.4179 3.375 14.625 3.375H17.625C17.8321 3.375 18 3.20709 18 3C18 2.79291 17.8321 2.625 17.625 2.625Z" fill="#100E34" fill-opacity="0.5"/>
<path d="M4.275 9.2625C3.96417 9.44147 3.76622 9.76669 3.75 10.125C3.75 10.3321 3.91791 10.5 4.125 10.5C4.33209 10.5 4.5 10.3321 4.5 10.125C4.5 10.0459 4.5375 10.0042 4.725 9.8625C5.03583 9.68353 5.23378 9.35831 5.25 9C5.23378 8.64169 5.03583 8.31647 4.725 8.1375C4.53563 7.99538 4.5 7.95375 4.5 7.875C4.5 7.79625 4.5375 7.755 4.725 7.6125C5.03583 7.43353 5.23378 7.10831 5.25 6.75C5.25 6.54291 5.08209 6.375 4.875 6.375C4.66791 6.375 4.5 6.54291 4.5 6.75C4.5 6.82838 4.4625 6.87 4.275 7.0125C3.96417 7.19147 3.76622 7.51669 3.75 7.875C3.76622 8.23331 3.96417 8.55853 4.275 8.7375C4.4625 8.87962 4.5 8.92125 4.5 9C4.5 9.07875 4.4625 9.12 4.275 9.2625Z" fill="#100E34" fill-opacity="0.5"/>
<path d="M6.6 7.6125C6.91083 7.43353 7.10878 7.10831 7.125 6.75C7.125 6.54291 6.95709 6.375 6.75 6.375C6.54291 6.375 6.375 6.54291 6.375 6.75C6.375 6.82838 6.3375 6.87 6.15 7.0125C5.83917 7.19147 5.64122 7.51669 5.625 7.875C5.64122 8.23331 5.83917 8.55853 6.15 8.7375C6.3375 8.87962 6.375 8.92125 6.375 9C6.375 9.07875 6.3375 9.12075 6.15 9.2625C5.83917 9.44147 5.64122 9.76669 5.625 10.125C5.625 10.3321 5.79291 10.5 6 10.5C6.20709 10.5 6.375 10.3321 6.375 10.125C6.375 10.0459 6.4125 10.0042 6.6 9.8625C6.91083 9.68353 7.10878 9.35831 7.125 9C7.10878 8.64169 6.91083 8.31647 6.6 8.1375C6.4125 7.99538 6.375 7.95375 6.375 7.875C6.375 7.79625 6.4125 7.75387 6.6 7.6125Z" fill="#100E34" fill-opacity="0.5"/>
<path d="M8.475 7.6125C8.78583 7.43353 8.98378 7.10831 9 6.75C9 6.54291 8.83209 6.375 8.625 6.375C8.41791 6.375 8.25 6.54291 8.25 6.75C8.25 6.82838 8.2125 6.87 8.025 7.0125C7.71417 7.19147 7.51622 7.51669 7.5 7.875C7.51622 8.23331 7.71417 8.55853 8.025 8.7375C8.2125 8.87962 8.25 8.92125 8.25 9C8.25 9.07875 8.2125 9.12075 8.025 9.2625C7.71417 9.44147 7.51622 9.76669 7.5 10.125C7.5 10.3321 7.66791 10.5 7.875 10.5C8.08209 10.5 8.25 10.3321 8.25 10.125C8.25 10.0459 8.2875 10.0042 8.475 9.8625C8.78583 9.68353 8.98378 9.35831 9 9C8.98378 8.64169 8.78583 8.31647 8.475 8.1375C8.2875 7.99538 8.25 7.95375 8.25 7.875C8.25 7.79625 8.2875 7.75387 8.475 7.6125Z" fill="#100E34" fill-opacity="0.5"/>
</svg>
