<svg width="24" height="24" viewBox="0 0 24 24" fill="none" xmlns="http://www.w3.org/2000/svg">
<g clip-path="url(#clip0)">
<path d="M23.8116 16.8322C23.7896 16.6916 23.7558 16.5531 23.7107 16.4181C23.2793 15.2176 22.0492 14.4992 20.7917 14.7135C20.3757 14.779 19.9854 14.4949 19.9198 14.0789L19.287 10.0301C18.7676 6.60438 16.2928 3.799 12.9587 2.85635C12.6555 1.00048 10.9052 -0.258223 9.04928 0.0450179C7.21793 0.344256 5.96338 2.05476 6.22824 3.89142C3.35436 5.71017 1.83736 9.06378 2.36898 12.423L3.04707 16.7323C3.10917 17.1475 2.82664 17.5357 2.41256 17.6043C1.14986 17.7865 0.199506 18.8477 0.157122 20.1228C0.14251 21.5376 1.27766 22.6965 2.69253 22.7111C2.70139 22.7112 2.7103 22.7113 2.71916 22.7113C2.85271 22.7112 2.98602 22.7009 3.11797 22.6805L5.74661 22.2672C6.66103 23.8996 8.72562 24.4817 10.358 23.5673C11.2203 23.0843 11.8286 22.2489 12.0236 21.28L21.6782 19.7607C23.076 19.5412 24.0312 18.23 23.8116 16.8322ZM9.34627 1.81708C9.43529 1.80321 9.52521 1.79606 9.61528 1.79571C10.1878 1.79876 10.7211 2.08704 11.0372 2.56432H10.9962C10.6777 2.55471 10.3589 2.56387 10.0414 2.59164C9.7071 2.62357 9.37489 2.67491 9.04648 2.74536C8.97557 2.75987 8.90557 2.78039 8.83551 2.79745C8.5665 2.86065 8.30259 2.93496 8.04383 3.02293C8.01821 3.03064 7.99174 3.03489 7.96612 3.0443C8.14631 2.40034 8.68569 1.92071 9.34627 1.81708ZM8.6972 22.292C8.33526 22.2924 7.98278 22.1762 7.69205 21.9606L10.0833 21.5857C9.7615 22.0301 9.24584 22.2928 8.6972 22.292ZM22.0087 17.6744C21.8779 17.8891 21.6592 18.0353 21.4108 18.074L11.1243 19.6915L6.12581 20.478L2.85496 20.9905C2.60717 21.0309 2.35427 20.9589 2.16492 20.7941C1.97166 20.6293 1.86182 20.387 1.86518 20.133C1.90216 19.695 2.24178 19.3433 2.67817 19.291C4.02324 19.0753 4.94167 17.8139 4.73375 16.4676L4.05652 12.1583C3.61297 9.31533 4.99341 6.49824 7.51186 5.10674C7.52667 5.10178 7.54118 5.09608 7.5554 5.08967C8.37274 4.64682 9.27186 4.37536 10.1977 4.29204C10.4783 4.26737 10.7601 4.26197 11.0415 4.27583L11.1815 4.28268C11.4726 4.3003 11.7621 4.33678 12.0484 4.39202C12.0578 4.39202 12.0663 4.39202 12.0757 4.39202C14.9654 5.01717 17.1648 7.36834 17.596 10.2933L18.2331 14.3421C18.4449 15.6897 19.7088 16.6107 21.0565 16.3995C21.4872 16.3153 21.9178 16.5449 22.0881 16.9494C22.1713 17.1907 22.1422 17.4567 22.0087 17.6744Z" fill="#100E34" fill-opacity="0.5"/>
<circle cx="16" cy="6" r="3.53" fill="#FF4343" stroke="white" stroke-width="0.94"/>
</g>
<defs>
<clipPath id="clip0">
<rect width="24" height="24" fill="white"/>
</clipPath>
</defs>
</svg>
