<svg width="24" height="24" viewBox="0 0 24 24" fill="none" xmlns="http://www.w3.org/2000/svg">
<path d="M8.15778 19.924L7.91544 19.089C7.86102 18.9014 7.7098 18.7542 7.5208 18.7047L6.03731 18.3169C5.99081 18.3047 5.94314 18.2986 5.89552 18.2986C5.73488 18.2986 5.58178 18.3683 5.47557 18.49C5.36977 18.6113 5.32163 18.7724 5.34338 18.9319L5.45583 19.7568C5.48691 19.9851 5.65144 20.1681 5.87503 20.2231L7.48846 20.6212C7.53266 20.6321 7.57799 20.6376 7.62308 20.6376C7.7969 20.6376 7.96339 20.5541 8.06849 20.4141C8.17466 20.2727 8.20724 20.0941 8.15778 19.924ZM6.12131 19.5803L6.04566 19.0253L7.27912 19.3478L7.44116 19.9059L6.12131 19.5803Z" fill="#100E34" fill-opacity="0.5"/>
<path d="M18.5274 18.49C18.4213 18.3683 18.2682 18.2986 18.1075 18.2986C18.0599 18.2986 18.0122 18.3047 17.9657 18.3169L16.4822 18.7047C16.2933 18.7541 16.1421 18.9014 16.0876 19.089L15.8452 19.924C15.7958 20.0941 15.8283 20.2727 15.9345 20.4141C16.0396 20.554 16.2061 20.6376 16.3799 20.6376C16.3799 20.6376 16.3799 20.6376 16.3799 20.6376C16.425 20.6376 16.4703 20.6321 16.5145 20.6212L18.1279 20.2232C18.3515 20.1681 18.5161 19.9851 18.5471 19.7569L18.6595 18.932C18.6813 18.7723 18.6331 18.6112 18.5274 18.49ZM17.8818 19.5803L16.5619 19.9058L16.724 19.3477L17.9574 19.0252L17.8818 19.5803Z" fill="#100E34" fill-opacity="0.5"/>
<path d="M20.0393 14.118H19.1631C18.8073 14.118 18.5177 14.4075 18.5177 14.7634V14.911L17.557 11.8839C17.3609 11.266 16.7937 10.8509 16.1454 10.8509H7.85805C7.20986 10.8509 6.64254 11.266 6.44641 11.8839L5.36721 15.2845L5.34457 15.2556C5.37434 15.1807 5.39027 15.1003 5.39027 15.0173V14.7634C5.39027 14.4076 5.10073 14.118 4.74481 14.118H3.86867C3.5128 14.118 3.22321 14.4075 3.22321 14.7634V15.0173C3.22321 15.3732 3.51275 15.6628 3.86867 15.6628H4.74486C4.76131 15.6628 4.77757 15.6616 4.79384 15.6604L4.98349 15.9024C4.54217 16.3181 4.26584 16.9071 4.26584 17.5598V20.3469C4.26584 20.8888 4.61853 21.3495 5.10631 21.5124V22.4039C5.10631 22.9753 5.57116 23.4402 6.14252 23.4402H7.17217C7.74358 23.4402 8.20844 22.9753 8.20844 22.4039V21.5756H15.7951V22.4039C15.7951 22.9753 16.2599 23.4402 16.8313 23.4402H17.8609C18.4323 23.4402 18.8972 22.9753 18.8972 22.4039V21.5124C19.3849 21.3495 19.7376 20.8888 19.7376 20.3469V17.5598C19.7376 16.8801 19.438 16.2693 18.9643 15.8516L19.1142 15.6604C19.1304 15.6616 19.1467 15.6628 19.1631 15.6628H20.0393C20.3952 15.6628 20.6848 15.3732 20.6848 15.0173V14.7634C20.6847 14.4076 20.3952 14.118 20.0393 14.118ZM4.70707 14.9796H3.90645V14.8012H4.70707V14.9796ZM7.0976 12.0906C7.20325 11.7577 7.50888 11.5341 7.85805 11.5341H16.1454C16.4946 11.5341 16.8002 11.7577 16.9059 12.0905L17.9344 15.3316C17.9334 15.3313 17.9323 15.3311 17.9312 15.331C17.9291 15.3305 17.9271 15.3301 17.925 15.3296C17.9156 15.3277 17.9061 15.326 17.8967 15.3242C17.8965 15.3242 17.8964 15.3242 17.8962 15.3241C17.8825 15.3214 17.8688 15.3186 17.8549 15.3162C17.8451 15.3145 17.8353 15.313 17.8254 15.3115C17.8149 15.3098 17.8045 15.308 17.7939 15.3064C17.7885 15.3056 17.7832 15.3048 17.7778 15.304C17.7659 15.3024 17.7539 15.301 17.7419 15.2995C17.7281 15.2978 17.7142 15.2959 17.7002 15.2945C17.6985 15.2943 17.6969 15.2941 17.6952 15.2939C17.6899 15.2933 17.6846 15.293 17.6793 15.2925C17.6742 15.292 17.6691 15.2917 17.6641 15.2912C17.6519 15.2901 17.6398 15.2888 17.6276 15.2879L16.6493 12.1723C16.5794 11.9517 16.377 11.8034 16.1454 11.8034H7.85809C7.62677 11.8034 7.42427 11.9516 7.354 12.1729L6.37333 15.2881C6.37038 15.2883 6.36747 15.2888 6.36452 15.289C6.35093 15.2901 6.33738 15.2912 6.32383 15.2926C6.31868 15.2931 6.31347 15.2934 6.30832 15.2939C6.27982 15.2969 6.25141 15.3004 6.22305 15.3045C6.21991 15.3049 6.21687 15.3055 6.21372 15.3059C6.21326 15.306 6.21283 15.3061 6.21236 15.3062C6.20097 15.3078 6.18968 15.3096 6.17833 15.3115C6.15419 15.3154 6.1301 15.3197 6.10615 15.3244C6.09696 15.3262 6.08773 15.3278 6.07858 15.3297C6.07605 15.3302 6.07357 15.3308 6.07104 15.3313C6.07033 15.3314 6.06963 15.3315 6.06893 15.3317L7.0976 12.0906ZM16.9095 15.2816H7.09164L7.97153 12.4865H16.0318L16.9095 15.2816ZM5.99505 16.0625C5.99698 16.0618 5.9989 16.061 6.00082 16.0603C6.00668 16.0581 6.01268 16.0563 6.01858 16.0542C6.04366 16.0455 6.06897 16.0373 6.09447 16.0298C6.10216 16.0276 6.10994 16.0254 6.11768 16.0232C6.11937 16.0227 6.12105 16.0223 6.12274 16.0218C6.14824 16.0148 6.17397 16.0085 6.19985 16.0028C6.20735 16.0011 6.2148 15.9993 6.2223 15.9977C6.25319 15.9914 6.28432 15.9859 6.31563 15.9814C6.32327 15.9804 6.33096 15.9795 6.3386 15.9785C6.36457 15.9751 6.39063 15.9724 6.41683 15.9703C6.42124 15.97 6.4256 15.9696 6.43 15.9693C6.43502 15.969 6.44004 15.9685 6.44505 15.9683C6.47791 15.9662 6.51082 15.9648 6.54386 15.9648C6.54391 15.9648 6.54396 15.9648 6.54405 15.9648H6.62594H17.3748H17.4594C17.4925 15.9648 17.5255 15.9662 17.5584 15.9683C17.5637 15.9686 17.569 15.9691 17.5743 15.9694C17.5784 15.9697 17.5824 15.97 17.5865 15.9704C17.6128 15.9725 17.6389 15.9752 17.665 15.9785C17.6726 15.9795 17.6802 15.9804 17.6877 15.9814C17.719 15.9859 17.7502 15.9914 17.7811 15.9977C17.7886 15.9993 17.7961 16.0011 17.8036 16.0028C17.8294 16.0085 17.8551 16.0148 17.8807 16.0218C17.8826 16.0223 17.8845 16.0228 17.8864 16.0234C17.8939 16.0254 17.9013 16.0276 17.9088 16.0297C17.9345 16.0373 17.96 16.0455 17.9853 16.0543C17.991 16.0563 17.9968 16.0581 18.0025 16.0601C18.0045 16.0609 18.0064 16.0617 18.0084 16.0624C18.0273 16.0694 18.0459 16.0772 18.0645 16.0849C17.6895 17.1307 16.6979 17.8401 15.5675 17.8401H8.43601C7.30553 17.8401 6.31399 17.1307 5.93894 16.0849C5.95755 16.0772 5.97612 16.0694 5.99505 16.0625ZM7.52519 22.4039C7.52519 22.5985 7.3668 22.7569 7.17217 22.7569H6.14252C5.9479 22.7569 5.78951 22.5985 5.78951 22.4039V21.5756H7.52519V22.4039ZM8.91409 20.8911V20.5667C8.91409 20.3359 9.10187 20.1482 9.33268 20.1482H14.6707C14.9015 20.1482 15.0893 20.3359 15.0893 20.5667V20.8911H8.91409ZM18.2139 22.4039C18.2139 22.5985 18.0555 22.7569 17.8609 22.7569H16.8313C16.6367 22.7569 16.4783 22.5985 16.4783 22.4039V21.5756H18.2139V22.4039ZM19.0544 17.5598V20.3469C19.0544 20.635 18.8298 20.871 18.5465 20.8905C18.5437 20.8906 18.5408 20.8904 18.5379 20.8905L18.5173 20.8919L16.1367 20.8925H15.7726V20.5668C15.7726 19.9593 15.2783 19.465 14.6708 19.465H9.33268C8.72514 19.465 8.23089 19.9593 8.23089 20.5668V20.8925H5.49602L5.46546 20.8905C5.46256 20.8904 5.4597 20.8906 5.45684 20.8905C5.17367 20.871 4.94904 20.635 4.94904 20.3469V17.5598C4.94904 17.1477 5.10621 16.7715 5.36374 16.4882C5.87894 17.7082 7.07744 18.5233 8.43601 18.5233H15.5674C16.926 18.5233 18.1244 17.7081 18.6397 16.4882C18.8972 16.7715 19.0544 17.1477 19.0544 17.5598ZM20.0015 14.9796H19.2009V14.8012H20.0015V14.9796Z" fill="#100E34" fill-opacity="0.5"/>
<path d="M23.7397 6.00482L12.0618 0.61947C11.9761 0.579907 11.8847 0.559845 11.7903 0.559845C11.6941 0.559845 11.5974 0.581782 11.5106 0.623313L0.25453 6.00646C0.0998902 6.08039 0 6.23892 0 6.41029V7.53815C0 7.72818 0.119203 7.8905 0.28664 7.95538V22.9376C0.28664 23.2147 0.512061 23.4402 0.789184 23.4402H2.59583C2.87296 23.4402 3.09843 23.2147 3.09843 22.9376V9.3433H20.9016V22.9376C20.9016 23.2147 21.127 23.4402 21.4042 23.4402H23.2108C23.4879 23.4402 23.7134 23.2147 23.7134 22.9376V7.95533C23.8808 7.89046 24 7.72813 24 7.5381V6.41132C23.9999 6.23732 23.8978 6.07781 23.7397 6.00482ZM2.41518 9.00167V22.7569H0.96984V7.9858H2.41518V9.00167ZM20.9015 8.66005H3.09838V7.9858H20.9015V8.66005ZM23.0301 22.7569H21.5847V9.00167V7.9858H23.0301V22.7569ZM23.3167 7.3026H21.2432H2.75675H0.6832V6.55874L11.7906 1.24675L23.3167 6.56207V7.3026Z" fill="#100E34" fill-opacity="0.5"/>
</svg>
