<svg width="255" height="124" viewBox="0 0 255 124" fill="none" xmlns="http://www.w3.org/2000/svg">
<path d="M86.1569 35.1078C89.8821 38.9469 91.9727 43.1662 94.2914 47.9176C94.9376 49.21 98.9288 46.6253 98.6247 45.3329C97.4083 40.2773 94.0634 35.83 90.3762 32.2569C89.1219 31.1166 85.1686 34.0815 86.1569 35.1078Z" fill="#F3E9E1"/>
<path d="M108.736 34.6516C108.622 39.327 107.634 43.7364 106.759 48.2977C106.341 50.3123 110.218 47.9557 110.636 46.8913C112.347 42.406 112.841 37.3124 112.803 32.523C112.727 31.1166 108.774 33.2452 108.736 34.6516Z" fill="#F3E9E1"/>
<path d="M118.011 54.0375C120.899 52.6311 123.826 51.2247 126.791 49.9323C127.856 49.4761 129.262 48.2218 128.958 46.8914C128.654 45.599 126.981 45.675 126.031 46.0931C123.104 47.4235 120.177 48.7919 117.25 50.1983C116.224 50.7305 114.78 51.8708 115.084 53.2393C115.388 54.5316 117.06 54.4936 118.011 54.0375Z" fill="#F3E9E1"/>
<path d="M98.4726 80.8355C98.9668 79.7712 97.1042 77.7946 94.2914 76.4642C91.4785 75.1338 88.7797 74.9058 88.2855 76.0081C87.7914 77.0724 89.6539 79.049 92.4668 80.3794C95.2796 81.7098 97.9785 81.8999 98.4726 80.8355Z" fill="#D4BFA9"/>
<path d="M89.2359 74.1836C90.1862 72.321 91.0224 70.3444 91.3265 68.2538C92.0487 63.7684 90.7183 58.5989 93.4171 54.9878C95.3937 52.365 99.0048 51.4527 102.236 51.8328C106.189 52.251 110.066 54.4936 112.005 57.9527C113.943 61.4497 113.601 66.2012 110.864 69.0901C108.546 71.5228 105.011 72.359 102.54 74.6397C101.171 75.9321 100.259 77.5666 99.2329 79.2011L98.8907 79.6952C91.2504 79.125 89.2359 74.1836 89.2359 74.1836Z" fill="#EBDBCD"/>
<path d="M102.54 66.8473C102.198 65.669 101.171 65.783 100.259 66.2011C100.031 65.5549 99.6511 64.7187 98.9669 64.4906C98.2066 64.2245 97.3703 64.7567 96.8001 65.2128C95.5458 66.2391 94.5955 67.7596 94.0633 69.2801C93.5312 70.8005 93.2651 72.435 92.771 73.9555C92.5809 74.5636 93.5692 74.8297 93.7592 74.1835C94.3674 72.2069 94.5955 70.0783 95.5838 68.2537C96.154 67.2274 96.9902 66.0871 98.0545 65.5549C98.3966 65.4029 98.6627 65.3269 98.8908 65.707C99.0808 65.9731 99.2329 66.2771 99.3089 66.5812C99.3089 66.6192 99.347 66.6193 99.347 66.6573C99.1949 66.7333 99.1189 66.8093 99.0048 66.8853C97.9785 67.7216 96.6482 69.166 96.6862 70.5724C96.7242 71.2186 97.1423 71.7508 97.7885 71.7888C98.5107 71.8268 99.2329 71.2186 99.651 70.6865C100.487 69.6602 100.715 68.3298 100.487 67.0754C100.715 66.9233 100.943 66.8473 101.171 66.8473C101.78 66.8093 101.552 67.8356 101.476 68.1777C101.171 69.3561 100.563 70.3824 99.9551 71.4087C99.499 72.1689 99.0808 73.0052 98.5107 73.6894C97.9025 74.4496 97.0282 74.9818 96.23 75.552C95.6978 75.8941 96.23 76.7683 96.7622 76.4262C97.7125 75.78 98.6627 75.1338 99.3849 74.2216C100.107 73.2333 100.753 72.1309 101.362 71.1046C102.008 69.9262 102.958 68.2157 102.54 66.8473ZM99.537 68.6719C99.423 69.204 99.1949 69.7362 98.8148 70.1543C98.5867 70.3824 97.6364 71.2567 97.7125 70.4964C97.7505 70.0403 98.0925 69.5461 98.3206 69.166C98.6627 68.6719 99.0809 68.2157 99.537 67.8356C99.575 68.1017 99.575 68.4058 99.537 68.6719Z" fill="#BFA990"/>
<path d="M92.4667 80.3414C89.92 79.1251 88.1715 77.4526 88.2095 76.3502L87.1071 80.8355C86.689 81.7098 88.2095 83.3063 90.4902 84.3706C92.7709 85.4349 94.9375 85.625 95.3557 84.7507C95.3937 84.7127 95.3936 84.6747 95.3936 84.5987L98.2825 81.0637C97.4083 81.8239 95.0135 81.5578 92.4667 80.3414Z" fill="#BFA990"/>
<path d="M202.918 2L192.962 2.73738L197.387 63.2081L207.342 62.4707L202.918 2Z" fill="#DADAED"/>
<path d="M196.834 10.5728L193.423 10.8494L193.515 11.5867L196.926 11.3103L196.834 10.5728Z" fill="#989BD7"/>
<path d="M197.387 17.302L193.976 17.5785L194.068 18.316L197.479 18.0394L197.387 17.302Z" fill="#989BD7"/>
<path d="M197.94 24.1234L194.529 24.3999L194.621 25.1374L198.032 24.8608L197.94 24.1234Z" fill="#989BD7"/>
<path d="M198.401 30.8526L194.99 31.1292L195.082 31.8666L198.493 31.5901L198.401 30.8526Z" fill="#989BD7"/>
<path d="M198.861 37.674L195.451 37.9506L195.543 38.688L198.954 38.4115L198.861 37.674Z" fill="#989BD7"/>
<path d="M192.685 22.7407L186.325 23.8468L194.713 71.5967L201.074 70.4904L192.685 22.7407Z" fill="#FFADB2"/>
<path d="M192.685 22.7407L186.325 23.8469L187.339 14.7209L188.63 14.4444L192.685 22.7407Z" fill="#EBDBCD"/>
<path d="M187.708 18.9612L188.63 18.4082L189.367 18.5003L190.381 18.0394L188.722 14.6288L187.431 14.9053L186.97 18.5003L187.708 18.9612Z" fill="#FF7A82"/>
<path d="M207.435 61.6411C206.328 61.4567 205.591 60.4427 205.775 59.3365L210.753 27.4419C210.845 27.1654 210.845 26.8888 210.938 26.7044L213.795 18.6847C214.164 17.7629 215.178 17.2098 216.1 17.3942L216.561 17.4863C217.575 17.6707 218.22 18.5926 218.22 19.6065L217.575 28.0872C217.575 28.3637 217.483 28.6403 217.483 28.9168L209.924 60.2584C209.555 61.1802 208.541 61.9176 207.435 61.6411Z" fill="#2B31BA"/>
<path d="M244.768 83.488H203.378V97.3151H244.768V83.488Z" fill="#F8D7BC"/>
<path d="M246.519 82.474V83.4879H203.286V97.3151H246.519V98.3292H157.657V82.3818H246.519V82.474Z" fill="#FF7A82"/>
<path d="M190.381 122.112H251.497V99.8041H190.381C187.339 99.8041 184.942 102.293 184.942 105.243V116.581C184.942 119.715 187.339 122.112 190.381 122.112Z" fill="#F8ECE2"/>
<path d="M154.246 98.4213H254.262C254.631 98.4213 255 98.79 255 99.1587C255 99.5274 254.631 99.8962 254.262 99.8962H242.002H196.096C189.92 99.8962 184.942 104.874 184.942 111.05C184.942 117.226 189.92 122.204 196.096 122.204H252.787H254.262C254.631 122.204 255 122.573 255 122.941C255 123.31 254.631 123.679 254.262 123.679H154.154C147.978 123.679 143 118.701 143 112.525V109.76C143.092 103.399 148.07 98.4213 154.246 98.4213Z" fill="#2B31BA"/>
<path d="M251.589 103.399H193.607V104.137H251.589V103.399Z" fill="#EBD0BE"/>
<path d="M251.589 112.617H189.367V113.355H251.589V112.617Z" fill="#EBD0BE"/>
<path d="M251.589 117.411H197.018V118.148H251.589V117.411Z" fill="#EBD0BE"/>
<path d="M251.589 108.285H191.211V109.022H251.589V108.285Z" fill="#EBD0BE"/>
<path d="M204.116 81.9209H166.045V73.9012H204.116C205.222 73.9012 206.052 74.7308 206.052 75.837V79.893C206.052 80.9992 205.222 81.9209 204.116 81.9209Z" fill="#F8E7D8"/>
<path d="M227.807 73.348H164.478C164.386 73.348 164.202 73.4403 164.202 73.6246C164.202 73.809 164.294 73.9012 164.478 73.9012H201.996C204.208 73.9012 205.96 75.7448 205.96 77.8649C205.96 80.0773 204.116 81.8288 201.996 81.8288H164.478C164.386 81.8288 164.202 81.9209 164.202 82.1052C164.202 82.1974 164.294 82.3818 164.478 82.3818H227.807C230.019 82.3818 231.77 80.5382 231.77 78.418V77.2197C231.77 75.0995 230.019 73.348 227.807 73.348Z" fill="#FF5856"/>
<path d="M188.261 39.8864H216.1C216.837 39.8864 217.39 40.5316 217.298 41.2691L213.242 73.348H190.934L187.063 41.2691C186.97 40.5316 187.523 39.8864 188.261 39.8864Z" fill="#AAACE3"/>
<path d="M216.652 17.1176L216.192 17.0254C215.178 16.8411 214.164 17.3942 213.795 18.316L210.845 26.5201C210.753 26.6123 210.753 26.7045 210.753 26.8889C211.675 27.6263 212.873 28.2715 214.164 28.4559C215.362 28.6403 216.56 28.5481 217.574 28.2716C217.574 28.1794 217.667 28.0872 217.667 27.9028L218.312 19.2378C218.404 18.2238 217.666 17.3941 216.652 17.1176Z" fill="#D7D7E6"/>
<path d="M216.745 4.76548C217.022 4.21239 217.759 4.21239 218.035 4.76548C218.496 5.68729 219.05 6.79346 219.51 7.53091C220.248 8.91362 220.709 12.0478 220.248 13.6148C219.787 15.4585 218.496 17.302 218.128 17.9473C218.036 18.0395 217.943 18.1317 217.759 18.2239C217.39 18.3161 216.653 18.5004 215.639 18.316C214.256 17.9473 214.164 17.1176 214.164 17.1176C214.164 17.1176 213.426 14.1679 213.519 12.3243C213.611 10.4807 214.625 8.17611 215.086 7.80738C215.362 7.34648 216.192 5.87165 216.745 4.76548Z" fill="#C7645D"/>
<path d="M254.262 122.112H252.787H247.902C247.533 122.665 247.165 123.126 246.704 123.495H254.17C254.539 123.495 254.908 123.126 254.908 122.757C254.908 122.481 254.631 122.112 254.262 122.112Z" fill="#2B31BA"/>
<path d="M254.263 99.8041C254.631 99.8041 255 99.4353 255 99.0666C255 98.6978 254.631 98.3292 254.263 98.3292H249.193V99.7119L254.263 99.8041Z" fill="#2B31BA"/>
<path d="M33.4032 22.0322C27.653 22.2925 22.7773 17.8392 22.517 12.089C22.2566 6.33876 26.7099 1.4631 32.4601 1.20276C38.2104 0.94242 43.0861 5.39571 43.3465 11.1459C43.6068 16.8962 39.1534 21.7719 33.4032 22.0322Z" fill="#EBDBCD"/>
<path d="M23.9865 32.9752C24.0669 32.9716 24.1455 32.9278 24.2204 32.8035C24.2552 32.681 24.2095 32.5622 24.0852 32.4873L22.9777 32.0539L23.4111 30.9463C23.4458 30.8239 23.4002 30.7051 23.2759 30.6301C23.1535 30.5954 23.0346 30.641 22.9597 30.7653L22.3854 32.3225L23.9865 32.9752C23.9061 32.9789 23.9463 32.977 23.9865 32.9752Z" fill="#110580"/>
<path d="M46.5397 41.6246C46.6201 41.621 46.6986 41.5772 46.7736 41.4529C46.8083 41.3305 46.7627 41.2116 46.6384 41.1367L43.8092 40.0559C43.6868 40.0212 43.5679 40.0669 43.493 40.1912C43.4582 40.3136 43.5039 40.4324 43.6282 40.5074L46.4573 41.5881C46.4592 41.6283 46.4995 41.6265 46.5397 41.6246ZM40.8812 39.4632C40.9617 39.4595 41.0402 39.4157 41.1152 39.2915C41.1499 39.169 41.1043 39.0502 40.9801 38.9752L38.1508 37.8945C38.0283 37.8597 37.9095 37.9054 37.8345 38.0297C37.7998 38.1522 37.8455 38.271 37.9698 38.3459L40.799 39.4266C40.8411 39.465 40.841 39.465 40.8812 39.4632ZM35.2631 37.2999C35.3435 37.2963 35.422 37.2525 35.497 37.1282C35.5318 37.0057 35.4861 36.8869 35.3618 36.812L32.5326 35.7312C32.4102 35.6965 32.2913 35.7422 32.2164 35.8664C32.1816 35.9889 32.2273 36.1077 32.3516 36.1826L35.1808 37.2634C35.1826 37.3036 35.2229 37.3017 35.2631 37.2999ZM29.6028 35.0983C29.6833 35.0946 29.7618 35.0508 29.8368 34.9265C29.8715 34.8041 29.8259 34.6853 29.7016 34.6103L26.8724 33.5296C26.7499 33.4948 26.6311 33.5405 26.5561 33.6648C26.5214 33.7872 26.5671 33.906 26.6914 33.981L29.5206 35.0617C29.5626 35.1001 29.5626 35.1001 29.6028 35.0983Z" fill="#110580"/>
<path d="M52.1952 39.2733C52.2756 39.2697 52.3542 39.2258 52.4292 39.1015L53.4386 36.477C53.4734 36.3546 53.4277 36.2358 53.3034 36.1608C53.1809 36.1261 53.0621 36.1717 52.9871 36.296L51.9777 38.9205C51.943 39.043 51.9887 39.1618 52.1129 39.2368C52.1148 39.277 52.155 39.2751 52.1952 39.2733ZM54.214 34.0243C54.2944 34.0207 54.3731 33.9768 54.448 33.8526L55.4574 31.2281C55.4921 31.1056 55.4465 30.9868 55.3222 30.9118C55.1998 30.8771 55.0809 30.9228 55.006 31.047L53.9966 33.6715C53.9618 33.794 54.0075 33.9128 54.1318 33.9877C54.1336 34.028 54.1738 34.0261 54.214 34.0243ZM56.2347 28.8155C56.3151 28.8119 56.3936 28.768 56.4686 28.6437L57.478 26.0192C57.5128 25.8968 57.4671 25.778 57.3428 25.703C57.2203 25.6683 57.1015 25.7139 57.0265 25.8382L56.0172 28.4627C55.9825 28.5852 56.0281 28.704 56.1523 28.779C56.1542 28.8192 56.1945 28.8173 56.2347 28.8155Z" fill="#110580"/>
<path d="M58.2132 23.5683C58.2936 23.5647 58.3722 23.5209 58.4471 23.3966L59.0214 21.8394L57.4642 21.2652C57.3417 21.2305 57.2229 21.2761 57.1479 21.4004C57.1132 21.5229 57.1589 21.6417 57.2831 21.7167L58.3907 22.15L57.9573 23.2576C57.9226 23.3801 57.9683 23.4988 58.0925 23.5738C58.173 23.5702 58.2132 23.5683 58.2132 23.5683Z" fill="#110580"/>
<path d="M54.6167 20.6688C54.6971 20.6652 54.7757 20.6213 54.8507 20.4971C54.8855 20.3746 54.8398 20.2558 54.7155 20.1809L51.8862 19.1001C51.7638 19.0654 51.645 19.111 51.5701 19.2353C51.5353 19.3578 51.5809 19.4766 51.7052 19.5516L54.5345 20.6323C54.5345 20.6323 54.5765 20.6707 54.6167 20.6688ZM48.9564 18.4672C49.0369 18.4636 49.1155 18.4197 49.1905 18.2954C49.2252 18.173 49.1795 18.0542 49.0553 17.9792L46.2261 16.8985C46.1036 16.8637 45.9848 16.9094 45.9098 17.0337C45.8751 17.1561 45.9208 17.275 46.0451 17.3499L48.8742 18.4306C48.876 18.4708 48.9564 18.4672 48.9564 18.4672ZM43.3383 16.3039C43.4187 16.3003 43.4973 16.2564 43.5723 16.1322C43.6071 16.0097 43.5614 15.8909 43.4371 15.816L40.6078 14.7352C40.4854 14.7005 40.3666 14.7461 40.2917 14.8704C40.2569 14.9929 40.3025 15.1117 40.4268 15.1867L43.2561 16.2674C43.2579 16.3076 43.2579 16.3076 43.3383 16.3039ZM37.6799 14.1425C37.7603 14.1389 37.8389 14.095 37.9139 13.9707C37.9486 13.8483 37.9029 13.7295 37.7787 13.6545L34.9495 12.5738C34.8271 12.539 34.7082 12.5847 34.6333 12.709C34.5985 12.8314 34.6442 12.9502 34.7685 13.0252L37.5976 14.1059C37.5995 14.1461 37.6396 14.1443 37.6799 14.1425Z" fill="#110580"/>
<path d="M30.2045 12.7886C30.2849 12.785 30.3635 12.7411 30.4384 12.6168L30.8719 11.5092L31.9794 11.9427C32.1019 11.9774 32.2207 11.9317 32.2957 11.8074C32.3304 11.685 32.2847 11.5662 32.1605 11.4912L30.6033 10.917L30.029 12.4742C29.9943 12.5966 30.04 12.7155 30.1643 12.7904C30.124 12.7923 30.1643 12.7904 30.2045 12.7886Z" fill="#110580"/>
<path d="M24.1883 28.5338C24.2688 28.5301 24.3473 28.4863 24.4223 28.362L25.4317 25.7375C25.4664 25.6151 25.4207 25.4962 25.2965 25.4213C25.1722 25.3463 25.0552 25.4322 24.9802 25.5565L23.9709 28.181C23.9362 28.3035 23.9817 28.4223 24.106 28.4972C24.0658 28.499 24.1481 28.5356 24.1883 28.5338ZM26.1651 23.2464C26.2455 23.2428 26.3241 23.1989 26.399 23.0746L27.4085 20.4501C27.4432 20.3277 27.3975 20.2088 27.2732 20.1339C27.1508 20.0991 27.032 20.1448 26.957 20.2691L25.9477 22.8936C25.9129 23.0161 25.9585 23.1349 26.0828 23.2098C26.1248 23.2482 26.1651 23.2464 26.1651 23.2464ZM28.1857 18.0376C28.2661 18.034 28.3447 17.9901 28.4197 17.8658L29.4291 15.2414C29.4639 15.1189 29.4182 15.0001 29.2939 14.9251C29.1715 14.8904 29.0526 14.9361 28.9777 15.0603L27.9682 17.6848C27.9335 17.8072 27.9792 17.9261 28.1035 18.001C28.1455 18.0394 28.1455 18.0394 28.1857 18.0376Z" fill="#110580"/>
<path d="M47.7172 48.9451L60.0409 44.3578C60.7538 44.0837 61.1597 43.2595 60.8839 42.5064L57.8603 34.4636C57.5863 33.7507 56.762 33.3448 56.0089 33.6207L43.6852 38.208C42.9723 38.4821 42.5665 39.3063 42.8423 40.0594L45.8658 48.1021C46.1819 48.8534 47.0061 49.2593 47.7172 48.9451Z" fill="#AAACE3"/>
<path d="M41.6173 42.3713C42.1401 42.3477 42.5969 42.6493 42.7394 43.1264L43.2437 44.4736L43.7478 45.8207C43.9305 46.296 43.7934 46.826 43.3638 47.1275L40.1007 49.8138C39.481 50.3657 38.5014 50.0877 38.2237 49.2943L37.217 46.6402L36.2104 43.9861C35.9328 43.1928 36.4612 42.4033 37.3056 42.3651L41.6173 42.3713Z" fill="#AAACE3"/>
<path d="M0.905259 48.1064C0.869454 38.7021 1.03058 29.2979 0.994772 19.8936C0.994772 16.0355 0.0996449 16.0355 0.0996449 19.8936C0.13545 29.2979 -0.0435754 38.7021 0.0101322 48.1064C0.0280347 51.9645 0.941064 51.9645 0.905259 48.1064Z" fill="#B3B6FF"/>
<path d="M31.9053 108.106C31.8695 98.7021 32.0306 89.2979 31.9948 79.8936C31.9948 76.0355 31.0996 76.0355 31.0996 79.8936C31.1354 89.2979 30.9564 98.7021 31.0101 108.106C31.028 111.965 31.9411 111.965 31.9053 108.106Z" fill="#B3B6FF"/>
<path d="M61.9053 87.8723C61.8695 80.9575 62.0306 74.0425 61.9948 67.1277C61.9948 64.2908 61.0996 64.2908 61.0996 67.1277C61.1354 74.0425 60.9564 80.9575 61.0101 87.8723C61.028 90.7092 61.9411 90.7092 61.9053 87.8723Z" fill="#B3B6FF"/>
</svg>
