<svg width="120" height="62" viewBox="0 0 120 62" fill="none" xmlns="http://www.w3.org/2000/svg">
<path d="M81.7643 0H18.5691C16.675 0 15.1704 1.50468 15.1704 3.39877V41.4398C15.1704 43.3338 16.675 44.8385 18.5691 44.8385H41.1919L39.0146 51.7422H32.7482C32.2703 51.7422 31.8277 52.1316 31.8277 52.6626V53.1937C31.8277 53.6716 32.2171 54.1142 32.7482 54.1142H38.2357H62.0446H67.5321C68.01 54.1142 68.4526 53.7247 68.4526 53.1937V52.6626C68.4526 52.1847 68.0631 51.7422 67.5321 51.7422H61.3188L59.1415 44.8385H81.782C83.6761 44.8385 85.1807 43.3338 85.1807 41.4398V3.39877C85.163 1.50468 83.6583 0 81.7643 0Z" fill="#C5C6E3"/>
<path d="M18.7992 2.00035H81.5164C82.2953 2.00035 82.9326 2.63761 82.9326 3.41648V36.4656C82.9326 37.2444 82.2953 37.8817 81.5164 37.8817H18.7992C18.0203 37.8817 17.3831 37.2444 17.3831 36.4656V3.38105C17.4362 2.56677 18.0734 2.00035 18.7992 2.00035Z" fill="#E8EAF7"/>
<path d="M49.848 43.1922C50.8747 43.1922 51.689 42.3602 51.689 41.3512C51.689 40.3245 50.857 39.5103 49.848 39.5103C48.8213 39.5103 48.007 40.3422 48.007 41.3512C47.9893 42.3779 48.8213 43.1922 49.848 43.1922Z" fill="#E8EAF7"/>
<path d="M94.8282 36.0053C97.5897 36.0053 99.8378 38.2358 99.8378 41.0149V45.8829C99.8378 48.6444 97.6074 50.8925 94.8282 50.8925C92.0667 50.8925 89.8186 48.6621 89.8186 45.8829V41.0149C89.8186 38.2889 92.049 36.0053 94.8282 36.0053Z" fill="#AAACE3"/>
<path d="M100.068 56.6633C100.457 56.6633 100.74 56.38 100.74 56.026C100.74 55.9375 100.687 55.7782 100.652 55.6897C99.0942 52.4857 95.2529 51.1757 92.0489 52.7335C90.739 53.3707 89.7123 54.4329 89.0928 55.6897C88.898 56.026 89.0396 56.4154 89.376 56.557C89.4645 56.6101 89.5707 56.6456 89.7123 56.6456H100.068V56.6633Z" fill="#868AE0"/>
<path d="M96.2265 41.1034C96.2265 41.6345 96.669 42.077 97.2001 42.077H99.9262V41.0503C99.9262 40.7671 99.8731 40.4662 99.8377 40.1298H97.1647C96.6159 40.1298 96.2265 40.5724 96.2265 41.1034Z" fill="#868AE0"/>
<path d="M96.2265 44.1305C96.2265 44.6615 96.669 45.1041 97.2001 45.1041H99.9262V43.1569H97.1647C96.6159 43.1923 96.2265 43.6348 96.2265 44.1305Z" fill="#868AE0"/>
<path d="M96.2265 47.1751C96.2265 47.7062 96.669 48.1487 97.2001 48.1487H99.3774C99.6606 47.5645 99.82 46.8919 99.8554 46.2547H97.1293C96.616 46.2547 96.2265 46.644 96.2265 47.1751Z" fill="#868AE0"/>
<path d="M93.4651 41.1034C93.4651 40.5724 93.0226 40.1298 92.4915 40.1298H89.8717C89.8186 40.4131 89.7832 40.7139 89.7832 41.0503V42.077H92.5092C93.0226 42.0239 93.4651 41.5991 93.4651 41.1034Z" fill="#868AE0"/>
<path d="M93.4651 44.1305C93.4651 43.5994 93.0225 43.1569 92.4915 43.1569H89.7654V45.0509H92.4915C93.0225 45.0863 93.4651 44.6615 93.4651 44.1305Z" fill="#868AE0"/>
<path d="M93.4652 47.1751C93.4652 46.644 93.0226 46.2015 92.4916 46.2015H89.8186C89.8717 46.8742 90.0133 47.5115 90.2965 48.0956H92.4738C93.0226 48.1133 93.4652 47.7239 93.4652 47.1751Z" fill="#868AE0"/>
<path d="M94.8281 53.9372C90.2611 53.9372 86.5791 50.2375 86.5791 45.6705V45.0863C86.5791 44.5553 87.0216 44.1127 87.5527 44.1127C88.0837 44.1127 88.5263 44.5553 88.5263 45.0863V45.7236C88.5263 49.2286 91.3409 52.0431 94.8458 52.0431C98.3508 52.0431 101.165 49.2286 101.165 45.7236V45.0863C101.165 44.5553 101.608 44.1127 102.139 44.1127C102.67 44.1127 103.113 44.5553 103.113 45.0863V45.7236C103.077 50.2375 99.3952 53.9372 94.8281 53.9372Z" fill="#AAACE3"/>
<path d="M44.8916 59.0353H20.3039C18.7992 59.0353 17.5778 57.8139 17.5778 56.3092C17.5778 54.8046 18.7992 53.5832 20.3039 53.5832H44.8916V59.0353Z" fill="#F8E7D8"/>
<path d="M2.72605 53.1583H46.0068C46.0953 53.1583 46.2015 53.2468 46.2015 53.353C46.2015 53.4415 46.113 53.5477 46.0068 53.5477H20.357C18.8523 53.5477 17.6309 54.7691 17.6309 56.2738C17.6309 57.7784 18.8523 58.9999 20.357 58.9999H46.0599C46.1484 58.9999 46.2546 59.0883 46.2546 59.1946C46.2546 59.2831 46.1661 59.3893 46.0599 59.3893H2.72605C1.2214 59.3893 0 58.1679 0 56.6632V55.8844C0 54.4151 1.2214 53.1583 2.72605 53.1583Z" fill="#4E53BA"/>
<path d="M25.1718 57.8316H44.9446V57.5838H25.1718C25.1187 57.5838 25.0302 57.6368 25.0302 57.7253C25.0125 57.7785 25.0656 57.8316 25.1718 57.8316Z" fill="#DEBCA7"/>
<path d="M22.9768 55.1586H44.8916V54.9108H22.9768C22.9237 54.9108 22.8352 54.9639 22.8352 55.0524C22.8884 55.1055 22.9237 55.1586 22.9768 55.1586Z" fill="#DEBCA7"/>
<path d="M20.6048 56.4685H44.8915V56.2207H20.6048C20.5517 56.2207 20.4632 56.2738 20.4632 56.3623C20.4455 56.3623 20.4986 56.4685 20.6048 56.4685Z" fill="#DEBCA7"/>
<path d="M17.5424 28.7653L17.3477 28.7122C16.9052 28.6237 16.4803 28.8538 16.2856 29.2963L15.0642 32.8367C15.0642 32.8898 15.0111 32.9252 15.0111 32.9783C15.4536 33.3147 15.9847 33.5625 16.5157 33.651C16.9937 33.7395 17.4893 33.7041 17.9673 33.5625C17.9673 33.5094 17.9673 33.474 17.9673 33.4209L18.2505 29.6858C18.2682 29.261 17.9673 28.8715 17.5424 28.7653Z" fill="#D7D7E6"/>
<path d="M17.5778 23.3663C17.6663 23.2246 17.861 23.1715 18.0203 23.2777C18.0734 23.3309 18.1088 23.3309 18.1088 23.3663C18.3036 23.7557 18.5514 24.2336 18.7461 24.5877C19.0824 25.4196 19.2241 26.3402 19.0824 27.2076C18.8877 27.8802 18.5514 28.5175 18.162 29.0485C18.1089 29.1016 18.0734 29.137 18.0203 29.137C17.7371 29.2255 17.3831 29.2255 17.0999 29.137C16.5157 28.9954 16.4626 28.6591 16.4626 28.6591C16.2679 27.9864 16.1794 27.2961 16.1794 26.5703C16.2325 25.8976 16.4626 25.2073 16.852 24.57C17.153 24.1983 17.3831 23.8088 17.5778 23.3663Z" fill="#C7645D"/>
<path d="M12.8338 47.0866L14.9757 33.2439C14.9757 33.1554 15.0288 33.1023 15.0288 33.0492C15.8608 33.7218 16.976 33.9165 17.985 33.6333C17.985 33.7218 17.985 33.7749 17.9319 33.8811L14.6217 47.4938C14.48 47.9717 13.9844 48.2726 13.5064 48.131C13.0639 47.9186 12.7807 47.5291 12.8338 47.0866Z" fill="#2B31BA"/>
<path d="M11.5238 22.1449L7.20459 22.4635L9.11638 48.786L13.4356 48.4674L11.5238 22.1449Z" fill="#DADAED"/>
<path d="M8.97478 25.8977L7.47013 26.0038L7.48783 26.2871L8.99247 26.1808L8.97478 25.8977Z" fill="#989BD7"/>
<path d="M9.22255 28.8185L7.71791 28.9246L7.7356 29.2078L9.24025 29.1016L9.22255 28.8185Z" fill="#989BD7"/>
<path d="M9.41729 31.7746L7.91265 31.8808L7.93034 32.1641L9.43499 32.0578L9.41729 31.7746Z" fill="#989BD7"/>
<path d="M9.61203 34.7485L8.10739 34.8547L8.12508 35.1379L9.62973 35.0317L9.61203 34.7485Z" fill="#989BD7"/>
<path d="M9.84215 37.6516L8.33751 37.7578L8.3552 38.041L9.85985 37.9348L9.84215 37.6516Z" fill="#989BD7"/>
<path d="M10.0369 40.6255L8.53225 40.7317L8.54994 41.0149L10.0546 40.9087L10.0369 40.6255Z" fill="#989BD7"/>
<path d="M10.2847 43.5285L8.78002 43.6348L8.79772 43.918L10.3024 43.8118L10.2847 43.5285Z" fill="#989BD7"/>
<path d="M7.2046 31.2082L4.42544 31.6861L8.05429 52.4679L10.8335 51.99L7.2046 31.2082Z" fill="#FFADB2"/>
<path d="M7.13381 31.1905L4.37235 31.6684L4.81489 27.6855L5.39906 27.597L7.13381 31.1905Z" fill="#EBDBCD"/>
<path d="M5.00955 29.5442L5.399 29.261L5.73532 29.3141L6.12477 29.1193L5.399 27.6147L4.81484 27.7032L4.67321 29.3141L5.00955 29.5442Z" fill="#FF7A82"/>
<path d="M5.2043 38.6252H17.2946C17.5778 38.6252 17.8256 38.873 17.8256 39.1563V39.2093L16.2148 52.1316C16.1263 52.7157 15.6306 53.1937 15.0465 53.1937H7.41702C6.83286 53.1937 6.30181 52.7511 6.24871 52.1316L4.69097 39.2093C4.63787 38.9261 4.83258 38.6783 5.13351 38.6252H5.2043Z" fill="#FF7A82"/>
<path d="M83.0742 59.4247C83.5167 59.4247 83.8531 59.0884 83.8531 58.6459C83.8531 58.5574 83.7999 58.398 83.7645 58.3095C81.959 54.5744 77.4981 53.0167 73.7631 54.8046C72.2584 55.5303 71.037 56.7517 70.2581 58.3095C70.0634 58.6989 70.205 59.1415 70.5945 59.3362C70.683 59.3893 70.8423 59.4247 70.9308 59.4247H83.0742Z" fill="#2B31BA"/>
<path d="M77.0379 55.3002C80.9854 55.3002 84.1717 52.0962 84.1717 48.1487C84.1717 44.2012 80.9677 40.9972 77.0379 40.9972C73.1081 40.9972 69.9041 44.2012 69.9041 48.1487C69.9041 52.0962 73.1081 55.3002 77.0379 55.3002Z" fill="#2B31BA"/>
<path d="M72.2761 53.4947C73.3913 54.4683 74.7544 55.1055 76.2059 55.2471H77.8167C79.2683 55.1055 80.6844 54.4682 81.7466 53.4415V42.8028C79.0205 40.3777 74.9491 40.3777 72.223 42.8028V53.4947H72.2761Z" fill="#6267CC"/>
<path d="M77.0379 51.512C78.7549 51.512 80.1534 50.1136 80.1534 48.3965C80.1534 46.6794 78.7549 45.2811 77.0379 45.2811C75.3208 45.2811 73.9223 46.6794 73.9223 48.3965C73.94 50.1136 75.3208 51.512 77.0379 51.512Z" fill="#AAACE3"/>
<path d="M77.0378 50.2906C78.0822 50.2906 78.9319 49.4409 78.9319 48.3965C78.9319 47.3521 78.0822 46.5025 77.0378 46.5025C75.9934 46.5025 75.1438 47.3521 75.1438 48.3965C75.1438 49.4409 75.9934 50.2906 77.0378 50.2906Z" fill="#110580"/>
<path d="M104.104 52.8219H118.442C119.31 52.8219 120 53.4947 120 54.3797V55.4064C120 56.2738 119.327 56.9642 118.442 56.9642H104.104C103.236 56.9642 102.546 56.2915 102.546 55.4064V54.3797C102.546 53.4947 103.236 52.8219 104.104 52.8219Z" fill="#AAACE3"/>
<path d="M101.236 61.5135C104.918 61.5135 107.892 58.5396 107.892 54.8576C107.892 51.1757 104.918 48.2019 101.236 48.2019C97.5542 48.2019 94.5804 51.1757 94.5804 54.8576C94.5804 58.5396 97.5542 61.5135 101.236 61.5135Z" fill="#110580"/>
<path d="M101.236 60.0088C104.086 60.0088 106.387 57.7076 106.387 54.8576C106.387 52.0077 104.086 49.7065 101.236 49.7065C98.3862 49.7065 96.085 52.0077 96.085 54.8576C96.085 57.7076 98.3862 60.0088 101.236 60.0088Z" fill="#2B31BA"/>
</svg>
