<svg width="77" height="89" viewBox="0 0 77 89" fill="none" xmlns="http://www.w3.org/2000/svg">
<path d="M8.43567 22.2509L47.6817 2.9024L56.9342 37.9574L12.3589 36.3506L8.43567 22.2509Z" fill="#EBDBCD"/>
<path d="M35.9789 12.5164L34.4658 23.8042C34.4524 23.9515 34.5194 24.0987 34.6533 24.1523C35.0952 24.3398 36.1262 24.7415 37.2777 24.8084C38.215 24.862 39.862 24.6076 40.8127 24.313C40.9868 24.2594 41.1073 24.0586 41.0403 23.8845L36.6216 12.4361C36.5011 12.1147 36.0325 12.1817 35.9789 12.5164Z" fill="#110580"/>
<path d="M41.0671 22.3045C44.7225 22.3045 47.6951 19.3319 47.6951 15.6765C47.6951 12.021 44.7225 9.04842 41.0671 9.04842C37.4116 9.04842 34.4391 12.021 34.4391 15.6765C34.4391 19.3453 37.3982 22.3045 41.0671 22.3045Z" fill="#FCB58A"/>
<path d="M31.1317 66.6923H22.0667V73.548H31.1317V66.6923Z" fill="#F8D7BC"/>
<path d="M21.183 66.1567V66.6789H31.1452V73.5346H21.183V74.0568H59.5185V66.1567H21.183V66.1567Z" fill="#4E53BA"/>
<path d="M17.3802 62.0995C17.6079 63.5055 17.8757 64.898 18.2104 66.2772C18.7996 68.7142 22.5488 67.6832 21.9596 65.2462C21.6249 63.867 21.3571 62.4745 21.1294 61.0685C20.9688 60.0375 19.6699 59.4617 18.7326 59.7027C17.6213 60.0241 17.2062 61.0685 17.3802 62.0995Z" fill="#E3996D"/>
<path d="M76.5907 47.866L69.8287 51.7892L69.7083 43.7954L76.5907 47.866Z" fill="#2B31BA"/>
<path d="M39.8754 41.4522C39.8352 41.4388 39.7951 41.412 39.7549 41.412C39.1122 41.3049 34.1579 40.4479 29.0161 39.4571C26.7264 39.0152 20.0448 37.1272 16.5366 38.493C13.0418 39.8588 12.3456 41.9074 12.0376 43.3402C11.7698 44.639 12.2384 49.0443 13.3766 53.5166C14.3942 57.5202 16.8848 62.595 17.3936 63.6126C17.4472 63.7331 17.5811 63.8135 17.715 63.8269C18.0363 63.8402 18.679 63.8402 19.4958 63.5858C20.2323 63.3716 21.0089 62.9565 21.357 62.7557C21.4775 62.6887 21.5445 62.5682 21.5445 62.4343C21.5579 61.3229 21.6516 56.1142 21.5177 52.4588C21.3838 48.9104 20.1653 47.7321 20.1653 47.7321C20.1653 47.7321 24.3698 52.4052 28.668 53.6772C32.069 54.6815 39.1925 56.9176 42.1383 56.8373C45.5527 56.7435 48.0299 55.2974 49.1279 53.5567C51.1765 50.3431 49.9045 45.5763 49.5831 44.5319C49.543 44.398 49.4358 44.3043 49.3019 44.2775C48.1772 44.0097 42.8346 42.7376 41.4554 42.1618C40.344 41.6798 39.9825 41.5057 39.8754 41.4522Z" fill="#FF8A91"/>
<path d="M49.4359 39.9525C49.4359 39.9525 49.3556 40.8362 49.4493 42.0949C49.5296 43.3669 49.7305 44.331 49.7305 44.331C49.7305 44.331 44.6155 43.5008 42.6739 42.751C40.2236 41.8003 39.8353 41.412 39.8353 41.412C39.8353 41.412 40.2905 40.381 40.4646 39.6445C40.5851 39.0955 40.6521 37.5959 40.6521 37.5959C40.6521 37.5959 43.3033 38.8545 45.1511 39.2964C46.9989 39.7382 49.4359 39.9525 49.4359 39.9525Z" fill="#FCB58A"/>
<path d="M4.94091 11.4988C7.67247 11.4988 9.88182 9.28941 9.88182 6.55785C9.88182 3.82629 7.67247 1.61696 4.94091 1.61696C2.20935 1.61696 0 3.82629 0 6.55785C0 9.28941 2.20935 11.4988 4.94091 11.4988Z" fill="#4E53BA"/>
<path d="M43.5844 85.8266H13.2561V74.7531H43.571C45.0841 74.7531 46.3026 75.9715 46.3026 77.4846V83.095C46.3294 84.6081 45.0975 85.8266 43.5844 85.8266Z" fill="#F8ECE2"/>
<path d="M61.5538 74.0568H11.9439C11.7564 74.0568 11.5957 74.2041 11.5957 74.4049C11.5957 74.5924 11.743 74.7531 11.9439 74.7531H18.0363H40.7725C43.8388 74.7531 46.316 77.2302 46.316 80.2965C46.316 83.3628 43.8388 85.84 40.7725 85.84H12.6937H11.9439C11.7564 85.84 11.5957 85.9873 11.5957 86.1881C11.5957 86.389 11.743 86.5363 11.9439 86.5363H61.5538C64.6201 86.5363 67.0972 84.0591 67.0972 80.9928V79.6136C67.0972 76.5339 64.6201 74.0568 61.5538 74.0568Z" fill="#FF5856"/>
<path d="M41.8437 77.1499H13.2695V76.7616H41.8437C41.9508 76.7616 42.0312 76.8419 42.0312 76.949C42.0312 77.0695 41.9508 77.1499 41.8437 77.1499Z" fill="#EBD0BE"/>
<path d="M28.6545 71.9144H22.0667V71.5261H28.6545C28.7617 71.5261 28.842 71.6064 28.842 71.7135C28.842 71.8207 28.7617 71.9144 28.6545 71.9144Z" fill="#E0C1A6"/>
<path d="M27.1013 69.7452H22.0667V69.3569H27.0879C27.195 69.3569 27.2754 69.4372 27.2754 69.5444C27.2888 69.6649 27.2084 69.7452 27.1013 69.7452Z" fill="#E0C1A6"/>
<path d="M43.9192 81.4614H13.2695V81.0731H43.9192C44.0263 81.0731 44.1066 81.1535 44.1066 81.2606C44.1066 81.3677 44.0263 81.4614 43.9192 81.4614Z" fill="#EBD0BE"/>
<path d="M40.1432 83.8583H13.2695V83.47H40.1432C40.2503 83.47 40.3306 83.5503 40.3306 83.6574C40.3306 83.7645 40.2503 83.8583 40.1432 83.8583Z" fill="#EBD0BE"/>
<path d="M42.9953 79.3459H13.2695V78.9576H42.9953C43.1024 78.9576 43.1827 79.0379 43.1827 79.145C43.1827 79.2521 43.1024 79.3459 42.9953 79.3459Z" fill="#EBD0BE"/>
<path d="M39.7414 65.5274H28.0788V61.4167H39.7414C40.0628 61.4167 40.3172 61.6711 40.3172 61.9924V64.9516C40.3172 65.273 40.0494 65.5274 39.7414 65.5274Z" fill="#F8D0B3"/>
<path d="M60.7504 60.7873H37.5857H27.4227H27.1147C26.9406 60.7873 26.7934 60.9346 26.7934 61.1087C26.7934 61.2827 26.9406 61.43 27.1147 61.43H28.0788H39.1657C39.795 61.43 40.3173 61.9522 40.3173 62.5816V64.3758C40.3173 65.0052 39.795 65.5274 39.1657 65.5274H36.635H27.1951C27.021 65.5274 26.8737 65.6747 26.8737 65.8487C26.8737 66.0228 27.021 66.1701 27.1951 66.1701H27.4361H37.666H60.7504C61.3797 66.1701 61.9019 65.6479 61.9019 65.0186V61.9522C61.9019 61.2961 61.3797 60.7873 60.7504 60.7873Z" fill="#FF7A82"/>
<path d="M20.6206 35.6275C24.0618 34.0877 28.0386 36.1497 31.4665 36.7389C34.8274 37.3147 38.5096 36.8594 40.8395 34.1144C41.3617 33.4851 41.4554 32.5746 40.8395 31.9587C40.2905 31.4097 39.2193 31.3293 38.6837 31.9587C36.4877 34.5429 33.0733 34.0743 30.1275 33.3244C26.4318 32.3737 22.763 31.3427 19.0941 32.9897C18.3443 33.3244 18.1568 34.4224 18.5451 35.0785C18.987 35.8551 19.8707 35.9623 20.6206 35.6275Z" fill="#F0A173"/>
<path d="M21.7186 36.5782C25.4544 35.3597 29.1366 37.7699 32.6314 38.801C35.9789 39.7784 39.688 39.6311 42.299 37.087C43.705 35.7213 41.5492 33.5655 40.1432 34.9312C37.7866 37.2209 34.3453 36.2569 31.6406 35.2526C28.1993 33.9806 24.6108 32.4273 20.9018 33.6458C19.0674 34.235 19.8574 37.1942 21.7186 36.5782Z" fill="#FCB58A"/>
<path d="M45.2313 25.0762C45.5527 25.1699 48.4717 26.3483 49.5563 30.2448C50.4668 33.4583 51.2301 38.2386 51.4711 39.8052C51.5246 40.0998 51.3238 40.3944 51.0158 40.4479C50.1454 40.622 48.2575 40.8898 45.8874 40.6756C42.5801 40.381 40.4779 39.4838 40.4779 39.4838L40.5582 38.734L40.2636 38.8679C40.036 38.975 39.7548 38.9081 39.6075 38.7072L37.4517 35.8418C37.3045 35.6543 37.3714 35.3865 37.5723 35.2794L37.599 35.266L35.8583 33.1772C35.6977 32.9763 35.7111 32.6817 35.8985 32.5077C36.5145 31.9185 37.8534 30.5661 38.8041 29.2673C39.5004 28.33 40.4109 26.6161 40.9733 25.96C42.1248 24.5942 44.3744 24.8218 45.2313 25.0762Z" fill="white"/>
<path d="M45.3385 26.2947L43.2229 20.845L39.1925 20.8182L41.3081 26.2679L45.3385 26.2947Z" fill="#FCB58A"/>
<path d="M41.6429 27.4864C42.2454 27.6337 43.0622 27.0579 43.7451 26.75C44.4815 26.4286 45.3251 26.2947 45.3251 26.2947L41.2947 26.2679C41.2947 26.2679 41.0001 27.3391 41.6429 27.4864Z" fill="#FCB58A"/>
<path d="M40.2235 31.8917C40.2235 31.8917 39.8218 32.9763 39.4201 33.5789C39.0184 34.1814 37.6258 35.2526 37.6258 35.2526L37.1037 34.6233C37.1037 34.6233 38.0677 34.1278 38.7506 33.4717C39.2594 33.0031 40.2235 31.8917 40.2235 31.8917Z" fill="#E0E0E0"/>
<path d="M40.5717 38.7206C40.5717 38.7206 41.817 37.9842 42.3794 37.3816C42.9417 36.7791 43.7184 35.5606 43.7184 35.5606C43.7184 35.5606 42.8614 37.4084 42.4463 38.2118C41.8572 39.3098 41.4153 39.7918 41.4153 39.7918L40.5182 39.4705C40.5182 39.4705 40.5316 39.283 40.5583 39.1089C40.5583 38.9483 40.5717 38.7206 40.5717 38.7206Z" fill="#E0E0E0"/>
<path d="M17.648 35.2124C18.5184 34.6634 19.4289 34.235 20.4197 33.927C21.2365 33.6726 20.8884 32.3738 20.0582 32.6148C18.9736 32.9495 17.9426 33.4182 16.9785 34.0341C16.2555 34.5028 16.9116 35.6677 17.648 35.2124Z" fill="#F0A173"/>
<path d="M48.0299 10.8828C49.409 10.8828 50.5204 9.77147 50.5204 8.3923C50.5204 7.01313 49.409 5.90176 48.0299 5.90176C46.6507 5.90176 45.5393 7.01313 45.5393 8.3923C45.526 9.77147 46.6507 10.8828 48.0299 10.8828Z" fill="#110580"/>
<path d="M40.9064 17.6715C41.6027 17.9259 41.9107 17.926 41.9107 17.926C41.8303 17.4707 41.7366 16.9753 41.7366 16.9351C41.7366 16.9351 40.5851 16.5468 39.8218 15.7836C38.6703 14.632 39.2461 13.4805 38.282 12.5164C37.4786 11.713 36.4743 11.3649 36.1396 11.2711C36.1262 11.2845 36.1262 11.2845 36.1262 11.2845C36.1396 11.2979 37.3715 11.7933 38.1749 12.8779C38.9917 13.9625 38.2552 15.0337 39.2327 16.3325C39.8084 17.1359 40.3039 17.4439 40.9064 17.6715Z" fill="#E3996D"/>
<path d="M43.5844 21.8091C42.8078 22.1304 41.9509 22.3045 41.0537 22.3045C40.5985 22.3045 40.1298 22.2509 39.7013 22.1572L40.2637 23.6033C40.4244 23.5899 40.5851 23.5498 40.7457 23.523C41.8705 23.2686 42.8614 22.7196 43.6514 21.9831L43.5844 21.8091Z" fill="#E3996D"/>
<path d="M42.6471 22.8133C41.3349 22.8133 40.2503 21.7421 40.2503 20.4165C40.2503 19.1043 41.3215 18.0197 42.6471 18.0197C43.9727 18.0197 45.0439 19.0909 45.0439 20.4165C45.0439 21.7421 43.9593 22.8133 42.6471 22.8133ZM42.6471 18.4214C41.5491 18.4214 40.652 19.3185 40.652 20.4165C40.652 21.5145 41.5491 22.4116 42.6471 22.4116C43.7451 22.4116 44.6422 21.5145 44.6422 20.4165C44.6422 19.3185 43.7451 18.4214 42.6471 18.4214Z" fill="white"/>
<path d="M50.3732 24.1255C50.641 24.0318 50.8017 23.7372 50.6946 23.4694L47.5211 13.8554C46.7177 11.0301 44.1335 8.95468 41.0538 8.95468C39.0453 8.95468 37.251 9.83842 36.0191 11.2176C36.0325 11.2176 37.318 11.5389 38.2686 12.503C39.2327 13.4671 38.657 14.6186 39.8085 15.7702C40.5717 16.5334 41.7233 16.9217 41.7233 16.9217C41.7233 17.0422 42.2856 19.9345 42.7409 22.184C42.8346 22.6794 42.9283 23.2552 43.0087 23.6971C43.0489 23.9113 43.1962 24.0854 43.397 24.1657C44.5619 24.6344 45.9009 24.8754 47.3337 24.8084C48.3647 24.7683 49.6769 24.3666 50.3732 24.1255Z" fill="#110580"/>
<path d="M49.6635 43.6883C49.6635 43.6883 50.1188 45.5763 49.9849 45.5763C49.8376 45.5629 44.2807 44.4783 42.8346 44.157C39.6612 43.4741 39.1657 41.3183 39.1657 41.3183C39.1657 41.3183 39.4202 41.3049 39.688 41.104C39.9558 40.9032 40.0495 40.8228 40.0495 40.8228C40.0495 40.8228 40.5048 41.9342 43.2631 42.7376C47.106 43.849 49.6635 43.6883 49.6635 43.6883Z" fill="#FFADB2"/>
<path d="M17.956 65.206C17.956 65.206 19.228 65.1926 19.8707 65.0855C20.5135 64.965 21.7587 64.3624 21.7587 64.3624C21.7587 64.3624 22.4952 65.9692 22.696 66.3977C22.9103 66.8262 23.8074 67.884 23.9279 68.5803C24.0484 69.2766 24.0752 70.8298 21.3972 71.0708C20.1519 71.1779 18.987 73.6953 17.6346 73.8827C16.9651 73.9765 13.7783 74.3246 12.8812 73.8292C11.984 73.3337 12.2652 72.0081 14.4478 71.2984C16.6304 70.5754 16.2153 69.8523 16.7375 68.9284C17.2329 67.9777 17.956 65.206 17.956 65.206Z" fill="#AB534D"/>
<path d="M10.5379 62.7289C10.3505 64.2955 10.163 65.8487 9.97553 67.4154C9.85502 68.4598 10.9664 69.3703 11.9305 69.3703C13.082 69.3703 13.7515 68.4732 13.8854 67.4154C14.0729 65.8487 14.2603 64.2955 14.4478 62.7289C14.5683 61.6844 13.4569 60.7739 12.4929 60.7739C11.3279 60.7873 10.6584 61.6844 10.5379 62.7289Z" fill="#FCB58A"/>
<path d="M41.2278 56.7837C44.0397 57.0649 46.6373 56.2749 48.6191 54.3601C50.5874 52.4453 50.4669 49.2317 50.3598 47.9329C50.2794 46.9019 49.9313 45.2415 49.7974 44.5854C49.7572 44.4247 49.6367 44.2908 49.476 44.2641C48.4718 44.0766 44.9502 43.4473 43.9058 43.1259C43.0488 42.8581 42.299 42.5635 41.9241 42.4162C41.7768 42.3627 41.6161 42.3895 41.4956 42.4966C41.1742 42.7912 40.411 43.3134 39.1657 43.1929C37.4786 43.0188 30.0471 40.7291 27.1147 39.8186C24.1823 38.9215 19.2682 36.7389 14.7156 38.2386C11.81 39.2027 9.64079 41.9744 9.57384 47.799C9.53367 52.3248 9.52029 58.1093 9.60063 60.2919C9.65419 62.0058 9.58724 63.8268 9.56046 64.5231C9.54707 64.7106 9.65419 64.8579 9.81487 64.9248C10.1094 65.0453 10.6451 65.2194 11.3949 65.3801C12.3322 65.5809 13.4971 65.5006 14.0193 65.447C14.18 65.4336 14.3139 65.3265 14.3675 65.1658C14.6487 64.3357 15.5592 61.5907 16.3893 59.2876C18.4514 53.5165 18.6255 50.4101 18.5317 49.0175C18.505 48.6694 18.8933 48.4551 19.1745 48.656C20.5403 49.5933 23.4727 51.5214 26.7532 52.9943C31.2522 55.0296 37.7196 56.4356 41.2278 56.7837Z" fill="#FFADB2"/>
<path d="M45.1778 43.6615C45.1912 45.6834 44.5619 47.7588 43.089 49.2049C42.4329 49.8611 41.6161 50.3699 40.7189 50.6511C39.6477 50.9724 38.5096 50.9189 37.4116 50.7448C33.3143 50.0887 29.5517 48.2007 25.8561 46.4332C23.9949 45.5361 22.1203 44.6657 20.1653 43.9695C19.6699 43.7954 19.1878 43.6213 18.6924 43.474C18.1434 43.3134 17.581 43.1527 17.0187 43.2196C16.0948 43.3134 15.3851 43.9561 14.903 44.6925C14.3942 45.4959 14.1398 46.4466 13.939 47.3705C13.7113 48.3882 13.5641 49.4192 13.4703 50.4636C13.323 51.9633 13.2829 53.463 13.149 54.9626C12.8678 57.9352 12.533 60.9346 12.0108 63.8804C11.9706 64.1214 11.9305 64.349 11.8769 64.5767C11.81 64.898 12.3054 65.0453 12.3723 64.7106C12.6267 63.4787 12.8008 62.2334 12.9615 60.9881C13.1891 59.3813 13.3766 57.7478 13.5507 56.1276C13.6979 54.7618 13.7917 53.4094 13.872 52.0436C13.9791 50.0217 14.1934 47.9329 14.8629 45.9913C15.1441 45.1612 15.6261 44.3176 16.4295 43.9025C17.3936 43.4071 18.5451 43.9159 19.4824 44.2506C21.4507 44.9201 23.3521 45.7905 25.2267 46.6876C28.9491 48.4551 32.6716 50.3833 36.7689 51.1465C37.8803 51.3473 39.0184 51.4946 40.1432 51.3072C41.0671 51.1599 41.9642 50.7582 42.7007 50.2092C44.3209 49.0175 45.2983 47.1697 45.6063 45.1879C45.6866 44.6791 45.7268 44.1569 45.7134 43.6481C45.7 43.3267 45.1778 43.3268 45.1778 43.6615Z" fill="white"/>
<path d="M17.4204 36.2569C18.2908 35.4267 19.4155 35.1187 20.5671 34.9045C21.3838 34.7438 21.0893 33.4717 20.2725 33.6324C18.9067 33.9002 17.5677 34.3153 16.5367 35.3062C15.9475 35.8819 16.8179 36.846 17.4204 36.2569Z" fill="#FCB58A"/>
<path d="M22.1336 36.6452L19.3351 37.3415C18.92 37.4486 18.5049 37.1942 18.3978 36.7791L17.956 34.9982C17.8488 34.5831 18.1033 34.168 18.5183 34.0609L21.3169 33.3646C21.7319 33.2575 22.147 33.5119 22.2541 33.927L22.696 35.7079C22.8031 36.123 22.5487 36.5515 22.1336 36.6452Z" fill="#FCB58A"/>
<path d="M45.4322 60.5061H26.5657V56.5561H45.4322C45.9678 56.5561 46.3963 56.9846 46.3963 57.5202V59.5153C46.3963 60.0642 45.9678 60.5061 45.4322 60.5061Z" fill="#F8E7D8"/>
<path d="M57.1886 56.2481H25.7623C25.682 56.2481 25.615 56.3151 25.615 56.3954C25.615 56.4757 25.682 56.5427 25.7623 56.5427H44.4012C45.4992 56.5427 46.3829 57.4264 46.3829 58.5244C46.3829 59.6224 45.4992 60.5061 44.4012 60.5061H25.7623C25.682 60.5061 25.615 60.5731 25.615 60.6534C25.615 60.7337 25.682 60.8007 25.7623 60.8007H57.1886C58.2866 60.8007 59.1704 59.917 59.1704 58.819V58.2432C59.157 57.1318 58.2732 56.2481 57.1886 56.2481Z" fill="#2B31BA"/>
<path d="M3.50821 76.6411C3.97686 77.5918 6.34689 78.0202 8.78386 76.2662C12.4661 73.6283 14.6755 74.4317 14.6755 72.2224C14.6755 71.2315 14.4746 70.321 14.2202 69.2766C13.9792 68.3259 13.9926 66.5316 13.9926 66.5316C13.9926 66.5316 12.2385 66.7191 11.3413 66.5584C10.6451 66.4379 10.1496 66.1701 10.1496 66.1701C10.1496 66.1701 9.89523 67.5894 9.07844 69.0891C8.50267 70.1469 8.07418 70.7896 7.09671 71.6868C6.48077 72.2358 2.7182 75.0744 3.50821 76.6411Z" fill="#C7645D"/>
<path d="M40.9064 59.6224H26.5657V59.4349H40.9064C40.96 59.4349 41.0001 59.4751 41.0001 59.5287C41.0001 59.5822 40.9734 59.6224 40.9064 59.6224Z" fill="#DEBCA7"/>
<path d="M42.473 57.6942H26.5657V57.5068H42.473C42.5266 57.5068 42.5668 57.547 42.5668 57.6005C42.5668 57.6407 42.5266 57.6942 42.473 57.6942Z" fill="#DEBCA7"/>
<path d="M44.2271 58.6181H26.5657V58.4307H44.2271C44.2807 58.4307 44.3209 58.4708 44.3209 58.5244C44.3209 58.578 44.2673 58.6181 44.2271 58.6181Z" fill="#DEBCA7"/>
<path d="M36.8761 81.0731H32.4172C32.4172 81.0731 31.6941 81.3141 31.0782 82.4523C30.315 83.8716 30.5828 85.2508 30.1007 86.3086C29.5383 87.5271 28.6546 87.9957 28.6546 87.9957C28.6546 87.9957 29.6455 88.1297 30.2346 88.0493C30.7702 87.969 31.4397 87.5271 31.4397 87.5271C31.4397 87.5271 31.5602 87.7815 31.587 88.2368C31.6272 88.7322 31.5736 89 31.5736 89C31.5736 89 33.2072 88.6117 33.8633 87.6744C34.7872 86.3622 34.0106 84.7688 35.2023 82.787C35.7513 81.9033 36.8761 81.0731 36.8761 81.0731Z" fill="#BFA990"/>
<path d="M60.1479 1.09475C61.4601 2.44714 62.1966 3.93342 63.0133 5.60717C63.241 6.06243 64.6469 5.15192 64.5398 4.69666C64.1113 2.91579 62.933 1.34916 61.6342 0.0905034C61.1923 -0.311196 59.7997 0.733223 60.1479 1.09475Z" fill="#F3E9E1"/>
<path d="M68.1015 0.934052C68.0614 2.58102 67.7132 4.13426 67.4053 5.74106C67.258 6.45073 68.6237 5.62056 68.771 5.24564C69.3736 3.66562 69.5476 1.87135 69.5343 0.184216C69.5075 -0.311213 68.1149 0.438623 68.1015 0.934052Z" fill="#F3E9E1"/>
<path d="M71.3686 7.76296C72.3863 7.26753 73.4173 6.77211 74.4617 6.31685C74.8367 6.15617 75.3321 5.7143 75.225 5.24565C75.1178 4.79039 74.5287 4.81718 74.1939 4.96447C73.1629 5.43311 72.1319 5.91514 71.1008 6.41057C70.7393 6.59803 70.2305 6.99973 70.3376 7.48177C70.4447 7.93703 71.0339 7.92364 71.3686 7.76296Z" fill="#F3E9E1"/>
<path d="M64.4863 17.2029C64.6604 16.828 64.0043 16.1317 63.0134 15.663C62.0226 15.1944 61.0719 15.1141 60.8978 15.5024C60.7237 15.8773 61.3798 16.5736 62.3707 17.0422C63.3616 17.5109 64.3122 17.5778 64.4863 17.2029Z" fill="#D4BFA9"/>
<path d="M61.2325 14.8597C61.5672 14.2036 61.8618 13.5073 61.9689 12.7708C62.2233 11.1908 61.7547 9.36977 62.7054 8.09772C63.4017 7.17381 64.6737 6.85246 65.8119 6.98636C67.2044 7.13365 68.5702 7.92366 69.2531 9.14214C69.936 10.374 69.8155 12.0478 68.8514 13.0654C68.0346 13.9224 66.7893 14.217 65.919 15.0204C65.4369 15.4756 65.1156 16.0514 64.7541 16.6272L64.6335 16.8012C61.9421 16.6004 61.2325 14.8597 61.2325 14.8597Z" fill="#EBDBCD"/>
<path d="M65.919 12.2754C65.7985 11.8603 65.437 11.9005 65.1156 12.0478C65.0353 11.8201 64.9014 11.5255 64.6604 11.4452C64.3926 11.3515 64.0979 11.5389 63.8971 11.6996C63.4552 12.0611 63.1205 12.5968 62.933 13.1324C62.7456 13.668 62.6518 14.2437 62.4778 14.7793C62.4108 14.9936 62.7589 15.0873 62.8259 14.8597C63.0401 14.1634 63.1205 13.4135 63.4686 12.7708C63.6695 12.4093 63.9641 12.0076 64.339 11.8201C64.4595 11.7666 64.5532 11.7398 64.6335 11.8737C64.7005 11.9674 64.7541 12.0745 64.7808 12.1817C64.7808 12.195 64.7943 12.1951 64.7943 12.2084C64.7407 12.2352 64.7139 12.262 64.6737 12.2888C64.3122 12.5834 63.8436 13.0922 63.857 13.5876C63.8703 13.8152 64.0176 14.0027 64.2452 14.0161C64.4997 14.0295 64.7541 13.8152 64.9013 13.6278C65.1959 13.2662 65.2763 12.7976 65.196 12.3557C65.2763 12.3022 65.3566 12.2754 65.4369 12.2754C65.6512 12.262 65.5709 12.6235 65.5441 12.744C65.437 13.1591 65.2227 13.5207 65.0085 13.8822C64.8478 14.15 64.7005 14.4446 64.4996 14.6856C64.2854 14.9534 63.9774 15.1409 63.6962 15.3417C63.5088 15.4622 63.6963 15.7702 63.8837 15.6497C64.2185 15.422 64.5532 15.1944 64.8076 14.8731C65.062 14.5249 65.2897 14.1366 65.5039 13.7751C65.7315 13.36 66.0663 12.7574 65.919 12.2754ZM64.8612 12.9181C64.821 13.1056 64.7407 13.293 64.6068 13.4403C64.5264 13.5207 64.1917 13.8286 64.2185 13.5608C64.2319 13.4001 64.3524 13.2261 64.4327 13.0922C64.5532 12.9181 64.7005 12.7574 64.8612 12.6235C64.8746 12.7173 64.8746 12.8244 64.8612 12.9181Z" fill="#BFA990"/>
<path d="M62.3706 17.0288C61.4735 16.6004 60.8576 16.0112 60.871 15.6229L60.4826 17.2029C60.3353 17.5109 60.871 18.0733 61.6744 18.4482C62.4778 18.8231 63.241 18.89 63.3883 18.5821C63.4017 18.5687 63.4016 18.5553 63.4016 18.5285L64.4193 17.2833C64.1113 17.5511 63.2678 17.4573 62.3706 17.0288Z" fill="#BFA990"/>
<path d="M12.0778 37.5155C11.7564 37.5959 11.4351 37.4218 11.3413 37.1004L7.15025 22.1037C7.06991 21.7823 7.24398 21.4609 7.56534 21.3672C7.8867 21.2869 8.20806 21.4609 8.30179 21.7823L12.4929 36.7791C12.5866 37.1004 12.3991 37.4352 12.0778 37.5155Z" fill="#C5C6E3"/>
<path d="M11.3145 36.913C11.3279 36.5916 11.6091 36.3238 11.9439 36.3506L27.4896 37.2611C27.811 37.2745 28.0788 37.5557 28.052 37.8904C28.0386 38.2118 27.7574 38.4796 27.4227 38.4528L11.8769 37.5423C11.5556 37.5289 11.3011 37.2477 11.3145 36.913Z" fill="#C5C6E3"/>
<path d="M72.3327 47.0492L71.6499 46.8617C71.6097 46.8483 71.5829 46.8082 71.5963 46.768C71.6097 46.7278 71.6499 46.701 71.69 46.7144L72.2122 46.8617L72.3595 46.3395C72.3729 46.2993 72.4131 46.2726 72.4533 46.286C72.4934 46.2993 72.5202 46.3395 72.5068 46.3797L72.3327 47.0492Z" fill="#EBDBCD"/>
<path d="M70.4447 46.527C70.4313 46.527 70.4313 46.527 70.4313 46.527L69.1995 46.1922C69.1593 46.1788 69.1325 46.1387 69.1459 46.0985C69.1593 46.0583 69.1995 46.0316 69.2396 46.0449L70.4715 46.3797C70.5117 46.3931 70.5384 46.4333 70.5251 46.4734C70.5117 46.5136 70.4849 46.527 70.4447 46.527ZM67.981 45.8709C67.9676 45.8709 67.9676 45.8709 67.9676 45.8709L66.7357 45.5361C66.6955 45.5227 66.6687 45.4826 66.6821 45.4424C66.6955 45.4022 66.7357 45.3754 66.7759 45.3888L68.0078 45.7236C68.0479 45.737 68.0747 45.7772 68.0613 45.8173C68.0479 45.8441 68.0211 45.8709 67.981 45.8709ZM65.544 45.2014C65.5306 45.2014 65.5306 45.2014 65.5306 45.2014L64.2987 44.8666C64.2585 44.8532 64.2318 44.8131 64.2452 44.7729C64.2586 44.7327 64.2987 44.7059 64.3389 44.7193L65.5708 45.0541C65.6109 45.0675 65.6377 45.1077 65.6243 45.1478C65.5976 45.188 65.5708 45.2014 65.544 45.2014Z" fill="#EBDBCD"/>
<path d="M63.0803 44.5453C63.0669 44.5453 63.0669 44.5453 63.0669 44.5453L62.384 44.3578L62.5714 43.6749C62.5848 43.6348 62.625 43.608 62.6652 43.6214C62.7053 43.6347 62.7321 43.6749 62.7187 43.7151L62.5714 44.2373L63.0936 44.3846C63.1338 44.398 63.1606 44.4381 63.1472 44.4783C63.1338 44.5185 63.107 44.5453 63.0803 44.5453Z" fill="#EBDBCD"/>
<path d="M62.9597 42.5501C62.9463 42.5501 62.9463 42.5501 62.9463 42.5501C62.9061 42.5368 62.8793 42.4966 62.8927 42.4564L63.2141 41.2245C63.2275 41.1844 63.2677 41.1576 63.3078 41.171C63.348 41.1844 63.3748 41.2245 63.3614 41.2647L63.04 42.4966C63.0266 42.5234 62.9999 42.5501 62.9597 42.5501ZM63.6292 40.0998C63.6158 40.0998 63.6158 40.0998 63.6158 40.0998C63.5756 40.0864 63.5488 40.0462 63.5622 40.0061L63.8836 38.7742C63.897 38.734 63.9372 38.7072 63.9773 38.7206C64.0175 38.734 64.0443 38.7742 64.0309 38.8143L63.7095 40.0462C63.6961 40.073 63.6694 40.0998 63.6292 40.0998Z" fill="#EBDBCD"/>
<path d="M64.2853 37.636C64.2719 37.636 64.2719 37.636 64.2719 37.636C64.2318 37.6226 64.205 37.5825 64.2184 37.5423L64.4058 36.8594L65.0887 37.0469C65.1289 37.0603 65.1557 37.1004 65.1423 37.1406C65.1289 37.1808 65.0887 37.2075 65.0486 37.1942L64.5264 37.0469L64.3791 37.5691C64.3523 37.6226 64.3255 37.636 64.2853 37.636Z" fill="#EBDBCD"/>
<path d="M72.4264 39.1893C72.413 39.1893 72.413 39.1893 72.413 39.1893L71.1812 38.8545C71.141 38.8411 71.1142 38.8009 71.1276 38.7608C71.141 38.7206 71.1812 38.6938 71.2213 38.7072L72.4532 39.042C72.4934 39.0554 72.5201 39.0955 72.5068 39.1357C72.4934 39.1625 72.4666 39.1893 72.4264 39.1893ZM69.9761 38.5198C69.9627 38.5198 69.9627 38.5198 69.9627 38.5198L68.7308 38.185C68.6906 38.1716 68.6638 38.1314 68.6772 38.0913C68.6906 38.0511 68.7308 38.0243 68.771 38.0377L70.0028 38.3725C70.043 38.3859 70.0698 38.426 70.0564 38.4662C70.043 38.5064 70.0028 38.5198 69.9761 38.5198ZM67.5123 37.8636C67.4989 37.8636 67.4989 37.8636 67.4989 37.8636L66.267 37.5289C66.2269 37.5155 66.2001 37.4753 66.2135 37.4352C66.2268 37.395 66.267 37.3682 66.3072 37.3816L67.5391 37.7164C67.5793 37.7298 67.606 37.7699 67.5926 37.8101C67.5792 37.8369 67.5524 37.8636 67.5123 37.8636Z" fill="#EBDBCD"/>
<path d="M74.1002 40.2872C74.0868 40.2872 74.0868 40.2872 74.0868 40.2872C74.0466 40.2738 74.0199 40.2337 74.0333 40.1935L74.1805 39.6713L73.6583 39.524C73.6182 39.5106 73.5914 39.4704 73.6047 39.4303C73.6181 39.3901 73.6583 39.3633 73.6985 39.3767L74.3814 39.5642L74.1939 40.2471C74.1671 40.2739 74.127 40.2872 74.1002 40.2872Z" fill="#EBDBCD"/>
<path d="M72.7746 45.2014C72.7612 45.2014 72.7613 45.2014 72.7613 45.2014C72.7211 45.188 72.6943 45.1478 72.7077 45.1076L73.0291 43.8758C73.0425 43.8356 73.0826 43.8088 73.1228 43.8222C73.163 43.8356 73.1897 43.8758 73.1763 43.9159L72.855 45.1478C72.8416 45.1746 72.8014 45.2014 72.7746 45.2014ZM73.4441 42.751C73.4307 42.751 73.4308 42.751 73.4308 42.751C73.3906 42.7376 73.3638 42.6975 73.3772 42.6573L73.6986 41.4254C73.712 41.3852 73.7521 41.3584 73.7923 41.3718C73.8325 41.3852 73.8592 41.4254 73.8458 41.4656L73.5245 42.6974C73.5111 42.7242 73.4709 42.751 73.4441 42.751Z" fill="#EBDBCD"/>
<path d="M45.8874 40.6622C43.9593 40.4881 42.4462 40.1132 41.5089 39.832C42.8613 40.6354 44.4815 41.1978 46.2624 41.3852C47.347 41.5057 48.4182 41.479 49.409 41.3317C49.3956 41.0773 49.3956 40.8496 49.3956 40.6488C48.4717 40.7559 47.2532 40.7961 45.8874 40.6622Z" fill="#F0A173"/>
<path d="M1.4595 18.2875C1.43272 18.2875 1.40594 18.2741 1.39255 18.2607C1.27204 18.0866 1.17832 17.8992 1.08459 17.6983C1.0712 17.6582 1.08458 17.618 1.12475 17.5912C1.16492 17.5778 1.2051 17.5912 1.23188 17.6314C1.31222 17.8188 1.40594 18.0063 1.52645 18.167C1.55323 18.2071 1.53984 18.2473 1.51306 18.2741C1.49967 18.2875 1.47289 18.2875 1.4595 18.2875Z" fill="#EBDBCD"/>
<path d="M0.910518 16.4799C0.870348 16.4799 0.830181 16.4397 0.830181 16.3995V16.3593C0.830181 15.9309 0.897134 15.5158 1.01764 15.0873C1.03103 15.0471 1.0712 15.0203 1.11137 15.0337C1.15154 15.0471 1.17832 15.0873 1.16493 15.1275C1.04442 15.5292 0.977468 15.9443 0.977468 16.346V16.3727C0.990858 16.4397 0.950688 16.4799 0.910518 16.4799ZM1.66035 14.0295C1.64696 14.0295 1.63358 14.0295 1.62019 14.0161C1.58002 14.0027 1.56662 13.9491 1.60679 13.909C1.83442 13.5608 2.10223 13.2127 2.43698 12.8913C2.46376 12.8646 2.51731 12.8646 2.54409 12.8913C2.57087 12.9181 2.57087 12.9717 2.54409 12.9985C2.22273 13.3198 1.95493 13.6546 1.74069 13.9893C1.71391 14.0161 1.70052 14.0295 1.66035 14.0295ZM3.468 12.1817C3.45461 12.1817 3.41444 12.1683 3.41444 12.1549C3.38766 12.1147 3.40106 12.0745 3.42784 12.0478C3.64208 11.8871 3.8697 11.7264 4.12411 11.5523C4.24462 11.472 4.37853 11.3783 4.51243 11.2979C4.5526 11.2845 4.59276 11.2845 4.61954 11.3113C4.63293 11.3515 4.63293 11.3917 4.60615 11.4184C4.48564 11.4988 4.35174 11.5791 4.21784 11.6728C3.96343 11.8335 3.74919 11.9942 3.53495 12.1683C3.49478 12.1683 3.48139 12.1817 3.468 12.1817ZM5.62379 10.7355C5.59701 10.7355 5.57023 10.7222 5.55684 10.6954C5.54345 10.6552 5.54346 10.615 5.57024 10.5883C5.99872 10.3071 6.33346 10.0794 6.61465 9.83841C6.64143 9.81163 6.695 9.82503 6.72178 9.85181C6.74856 9.87859 6.73517 9.93214 6.70839 9.95892C6.41381 10.1999 6.07906 10.4276 5.63719 10.7222C5.65058 10.7356 5.63718 10.7355 5.62379 10.7355ZM10.1094 9.95892C10.0693 9.95892 10.0291 9.91876 10.0291 9.87859C10.0291 9.83842 10.0559 9.79825 10.1094 9.79825C10.5379 9.78486 10.953 9.74468 11.3815 9.63756C11.4217 9.62417 11.4618 9.65095 11.4752 9.69112C11.4886 9.73129 11.4618 9.77147 11.4217 9.78486C10.9798 9.89198 10.5379 9.94553 10.1094 9.95892ZM8.824 9.83841C8.81061 9.83841 8.81061 9.83841 8.81061 9.83841C8.38213 9.75807 7.95364 9.62418 7.56533 9.45011C7.52516 9.43672 7.51178 9.38316 7.52517 9.34299C7.53856 9.30282 7.59211 9.28942 7.63228 9.30281C8.02059 9.47688 8.4357 9.59739 8.85079 9.69112C8.89096 9.70451 8.91772 9.74469 8.90433 9.78486C8.89094 9.81164 8.86417 9.83841 8.824 9.83841ZM12.6268 9.39655C12.6 9.39655 12.5732 9.38316 12.5598 9.34299C12.5464 9.30282 12.5598 9.26264 12.6 9.23586C12.9749 9.07518 13.3498 8.87434 13.7381 8.64671C13.7783 8.63332 13.8185 8.63332 13.8452 8.67349C13.8586 8.71366 13.8586 8.75383 13.8185 8.78061C13.4168 9.02163 13.0418 9.20908 12.6535 9.36976C12.6401 9.38315 12.6268 9.39655 12.6268 9.39655ZM7.60551 9.08857C7.59212 9.08857 7.56534 9.07519 7.55195 9.07519C7.52517 9.04841 7.51178 8.99484 7.53856 8.96806C7.83314 8.63331 8.04738 8.27178 8.22145 7.89686C8.23484 7.85669 8.2884 7.84331 8.32857 7.8567C8.36874 7.87009 8.38212 7.92364 8.36873 7.96381C8.19466 8.35212 7.95365 8.72705 7.67246 9.07519C7.64568 9.08858 7.63229 9.08857 7.60551 9.08857ZM6.48075 8.78061C6.46736 8.78061 6.44058 8.76721 6.42719 8.76721C6.06566 8.47263 5.77108 8.15128 5.54345 7.78975C5.53006 7.74958 5.53007 7.70941 5.57024 7.68263C5.61041 7.66924 5.65057 7.66924 5.67735 7.70941C5.89159 8.05755 6.17279 8.36552 6.52093 8.64671C6.54771 8.67349 6.56109 8.72704 6.53431 8.75382C6.52092 8.7806 6.49414 8.78061 6.48075 8.78061ZM14.8495 8.07094C14.8227 8.07094 14.7959 8.05755 14.7825 8.04416C14.7558 8.00399 14.7691 7.96382 14.7959 7.93704C15.1173 7.70941 15.4253 7.48179 15.7065 7.24077L15.827 7.14703C15.8671 7.12025 15.9073 7.13363 15.9341 7.16041C15.9475 7.18719 15.9475 7.24076 15.9207 7.26754L15.8002 7.36126C15.5056 7.58889 15.211 7.81653 14.8897 8.05755C14.8763 8.07094 14.8629 8.07094 14.8495 8.07094ZM8.62315 6.74533C8.56959 6.74533 8.54281 6.70516 8.54281 6.66499C8.54281 6.61143 8.54281 6.57126 8.54281 6.5177C8.54281 6.34363 8.52942 6.16956 8.48925 5.99549C8.44908 5.80803 8.39551 5.62058 8.30178 5.43312C8.28839 5.39295 8.30179 5.35277 8.34196 5.32599C8.38213 5.3126 8.42231 5.326 8.44909 5.36617C8.54282 5.55363 8.60977 5.75446 8.64994 5.95531C8.69011 6.12938 8.70348 6.31686 8.70348 6.50432C8.70348 6.55788 8.70348 6.61143 8.70348 6.66499C8.69009 6.71855 8.64993 6.74533 8.62315 6.74533ZM5.16854 6.61143C5.12837 6.61143 5.08819 6.58465 5.08819 6.54448C5.0748 6.46414 5.0748 6.35702 5.0748 6.27668C5.0748 5.91515 5.15514 5.55362 5.28904 5.24565C5.30243 5.20548 5.35599 5.19209 5.39616 5.20548C5.43633 5.21887 5.44973 5.27243 5.43634 5.3126C5.30244 5.60718 5.23549 5.94192 5.23549 6.29006C5.23549 6.3704 5.23549 6.46414 5.24888 6.54448C5.26227 6.57126 5.2221 6.61143 5.16854 6.61143C5.18193 6.61143 5.18193 6.61143 5.16854 6.61143ZM7.49838 4.54936C7.48499 4.54936 7.47161 4.54937 7.45822 4.53598C7.13686 4.34852 6.80211 4.29497 6.48075 4.3753C6.4138 4.38869 6.34685 4.41548 6.2799 4.42887C6.23973 4.44226 6.19957 4.42886 6.18618 4.3753C6.17279 4.33513 6.18618 4.29496 6.23974 4.28157C6.30669 4.25479 6.38703 4.22801 6.45398 4.21462C6.81551 4.13428 7.19042 4.20123 7.55195 4.40208C7.59212 4.41547 7.60552 4.46903 7.57874 4.5092C7.55196 4.53598 7.52516 4.54936 7.49838 4.54936Z" fill="#EBDBCD"/>
<path d="M16.9383 6.53108C16.9115 6.53108 16.8848 6.51768 16.8714 6.4909C16.858 6.45073 16.858 6.41057 16.8982 6.38379C17.1258 6.24989 17.3133 6.15617 17.4873 6.10261C17.5275 6.08922 17.5677 6.11598 17.581 6.15615C17.5944 6.19632 17.5677 6.2365 17.5275 6.24989C17.3802 6.30345 17.1927 6.37041 16.9785 6.5043C16.9785 6.53108 16.9651 6.53108 16.9383 6.53108Z" fill="#EBDBCD"/>
</svg>
