<svg width="102" height="84" viewBox="0 0 102 84" fill="none" xmlns="http://www.w3.org/2000/svg">
<path d="M0.114825 9.27384C2.84036 12.0828 4.37003 15.1699 6.06654 18.6463C6.53933 19.5919 9.45952 17.7007 9.23703 16.7552C8.34706 13.0562 5.89965 9.80226 3.20193 7.18798C2.28415 6.35363 -0.608275 8.52293 0.114825 9.27384Z" fill="#F3E9E1"/>
<path d="M16.6349 8.94009C16.5515 12.3609 15.8284 15.5871 15.1887 18.9244C14.8828 20.3984 17.7196 18.6741 18.0255 17.8954C19.277 14.6137 19.6386 10.8869 19.6108 7.38265C19.5551 6.35362 16.6627 7.91106 16.6349 8.94009Z" fill="#F3E9E1"/>
<path d="M23.4209 23.124C25.5346 22.095 27.6761 21.066 29.8454 20.1204C30.6241 19.7866 31.6531 18.8688 31.4307 17.8954C31.2082 16.9498 29.9845 17.0055 29.2892 17.3114C27.1477 18.2848 25.0062 19.286 22.8647 20.315C22.1138 20.7044 21.0569 21.5387 21.2794 22.54C21.5019 23.4855 22.7256 23.4577 23.4209 23.124Z" fill="#F3E9E1"/>
<path d="M9.12578 42.7311C9.48733 41.9524 8.12456 40.5062 6.06651 39.5328C4.00845 38.5594 2.03382 38.3925 1.67227 39.1991C1.31072 39.9778 2.67348 41.424 4.73154 42.3974C6.78959 43.3708 8.76423 43.5098 9.12578 42.7311Z" fill="#D4BFA9"/>
<path d="M2.36758 37.8641C3.06287 36.5013 3.67472 35.0551 3.89721 33.5255C4.42563 30.2437 3.45223 26.4614 5.42685 23.8193C6.87305 21.9003 9.51513 21.2328 11.8791 21.5109C14.7715 21.8169 17.6083 23.4577 19.0267 25.9886C20.4451 28.5473 20.1947 32.0237 18.1923 34.1374C16.4958 35.9173 13.9094 36.5292 12.1016 38.1979C11.1004 39.1435 10.4329 40.3394 9.68203 41.5353L9.43168 41.8968C3.84156 41.4796 2.36758 37.8641 2.36758 37.8641Z" fill="#EBDBCD"/>
<path d="M12.1016 32.4965C11.8513 31.6343 11.1004 31.7177 10.4329 32.0237C10.2661 31.5509 9.98799 30.939 9.48738 30.7721C8.93115 30.5775 8.31924 30.9668 7.90207 31.3006C6.98429 32.0515 6.28901 33.164 5.89965 34.2764C5.51029 35.3889 5.31564 36.5848 4.95409 37.6972C4.81503 38.1422 5.53809 38.3369 5.67715 37.8641C6.12213 36.4179 6.28901 34.8604 7.01211 33.5255C7.42929 32.7746 8.04114 31.9402 8.81986 31.5509C9.07017 31.4396 9.26484 31.384 9.4317 31.6621C9.57076 31.8568 9.68204 32.0793 9.73766 32.3018C9.73766 32.3296 9.7655 32.3296 9.7655 32.3574C9.65425 32.413 9.59859 32.4687 9.51515 32.5243C8.76424 33.1361 7.79088 34.193 7.81869 35.222C7.8465 35.6948 8.1524 36.0842 8.6252 36.112C9.15362 36.1398 9.68201 35.6948 9.98794 35.3054C10.5998 34.5545 10.7667 33.5811 10.5998 32.6633C10.7667 32.5521 10.9335 32.4965 11.1004 32.4965C11.5454 32.4687 11.3785 33.2196 11.3229 33.4699C11.1004 34.332 10.6554 35.0829 10.2104 35.8339C9.8767 36.3901 9.57076 37.0019 9.15359 37.5025C8.7086 38.0588 8.06894 38.4481 7.4849 38.8653C7.09554 39.1156 7.48494 39.7553 7.8743 39.505C8.56959 39.0322 9.26485 38.5594 9.79327 37.8919C10.3217 37.1688 10.7945 36.3623 11.2395 35.6113C11.7123 34.7492 12.4076 33.4977 12.1016 32.4965ZM9.90456 33.8314C9.82112 34.2208 9.65421 34.6101 9.3761 34.9161C9.20923 35.0829 8.51396 35.7226 8.56959 35.1664C8.5974 34.8326 8.84766 34.4711 9.01453 34.193C9.26484 33.8314 9.57082 33.4977 9.90456 33.2196C9.93237 33.4142 9.93237 33.6367 9.90456 33.8314Z" fill="#BFA990"/>
<path d="M4.73153 42.3696C2.86816 41.4796 1.58884 40.2559 1.61665 39.4494L0.810078 42.7311C0.504151 43.3708 1.61665 44.5389 3.28535 45.3176C4.95404 46.0963 6.53931 46.2354 6.84524 45.5957C6.87305 45.5679 6.87301 45.5401 6.87301 45.4845L8.98671 42.898C8.34705 43.4542 6.59491 43.2596 4.73153 42.3696Z" fill="#BFA990"/>
<path d="M65.3636 0L58.4909 0.509044L61.5455 42.2545L68.4182 41.7454L65.3636 0Z" fill="#DADAED"/>
<path d="M61.1636 5.91814L58.8091 6.10908L58.8728 6.61812L61.2273 6.42726L61.1636 5.91814Z" fill="#989BD7"/>
<path d="M61.5455 10.5636L59.1909 10.7545L59.2545 11.2636L61.609 11.0727L61.5455 10.5636Z" fill="#989BD7"/>
<path d="M61.9272 15.2727L59.5727 15.4636L59.6364 15.9727L61.9909 15.7818L61.9272 15.2727Z" fill="#989BD7"/>
<path d="M62.2454 19.9181L59.8908 20.1091L59.9545 20.6181L62.3091 20.4273L62.2454 19.9181Z" fill="#989BD7"/>
<path d="M62.5635 24.6272L60.209 24.8182L60.2727 25.3272L62.6272 25.1364L62.5635 24.6272Z" fill="#989BD7"/>
<path d="M58.2999 14.3182L53.9091 15.0818L59.6999 48.0455L64.0909 47.2818L58.2999 14.3182Z" fill="#FFADB2"/>
<path d="M58.2999 14.3182L53.9091 15.0818L54.609 8.78177L55.5 8.59091L58.2999 14.3182Z" fill="#EBDBCD"/>
<path d="M54.8636 11.709L55.5 11.3272L56.0091 11.3908L56.709 11.0727L55.5635 8.71815L54.6727 8.90909L54.3545 11.3908L54.8636 11.709Z" fill="#FF7A82"/>
<path d="M68.4818 41.1727C67.7182 41.0454 67.2091 40.3454 67.3363 39.5818L70.7728 17.5636C70.8364 17.3727 70.8364 17.1818 70.9 17.0545L72.8728 11.5182C73.1274 10.8818 73.8274 10.5 74.4637 10.6272L74.7819 10.6909C75.4819 10.8181 75.9272 11.4545 75.9272 12.1545L75.4818 18.009C75.4818 18.1999 75.4183 18.3909 75.4183 18.5818L70.2 40.2181C69.9454 40.8545 69.2455 41.3636 68.4818 41.1727Z" fill="#2B31BA"/>
<path d="M94.2545 56.2545H65.6818V65.7999H94.2545V56.2545Z" fill="#F8D7BC"/>
<path d="M95.4637 55.5545V56.2545H65.6181V65.7999H95.4637V66.5H34.1181V55.4909H95.4637V55.5545Z" fill="#FF7A82"/>
<path d="M56.709 82.9181H98.9V67.5182H56.709C54.609 67.5182 52.9545 69.2364 52.9545 71.2727V79.1C52.9545 81.2636 54.609 82.9181 56.709 82.9181Z" fill="#F8ECE2"/>
<path d="M31.7636 66.5636H100.809C101.064 66.5636 101.318 66.8181 101.318 67.0727C101.318 67.3272 101.064 67.5818 100.809 67.5818H92.3454H60.6545C56.3908 67.5818 52.9545 71.0181 52.9545 75.2818C52.9545 79.5454 56.3908 82.9818 60.6545 82.9818H99.7908H100.809C101.064 82.9818 101.318 83.2363 101.318 83.4909C101.318 83.7454 101.064 84 100.809 84H31.6999C27.4363 84 24 80.5636 24 76.2999V74.3908C24.0636 69.9999 27.5 66.5636 31.7636 66.5636Z" fill="#2B31BA"/>
<path d="M98.9637 70H58.9363V70.509H98.9637V70Z" fill="#EBD0BE"/>
<path d="M98.9637 76.3636H56.0091V76.8727H98.9637V76.3636Z" fill="#EBD0BE"/>
<path d="M98.9637 79.6727H61.2908V80.1818H98.9637V79.6727Z" fill="#EBD0BE"/>
<path d="M98.9637 73.3727H57.2818V73.8818H98.9637V73.3727Z" fill="#EBD0BE"/>
<path d="M66.1909 55.1727H39.9091V49.6364H66.1909C66.9546 49.6364 67.5272 50.2091 67.5272 50.9727V53.7727C67.5272 54.5364 66.9546 55.1727 66.1909 55.1727Z" fill="#F8E7D8"/>
<path d="M82.5455 49.2545H38.8273C38.7637 49.2545 38.6364 49.3181 38.6364 49.4454C38.6364 49.5727 38.7 49.6364 38.8273 49.6364H64.7273C66.2545 49.6364 67.4637 50.909 67.4637 52.3727C67.4637 53.9 66.1909 55.1091 64.7273 55.1091H38.8273C38.7637 55.1091 38.6364 55.1727 38.6364 55.2999C38.6364 55.3636 38.7 55.4909 38.8273 55.4909H82.5455C84.0727 55.4909 85.2819 54.2181 85.2819 52.7545V51.9273C85.2819 50.4636 84.0727 49.2545 82.5455 49.2545Z" fill="#FF5856"/>
<path d="M55.2453 26.1545H74.4636C74.9727 26.1545 75.3544 26.6 75.2908 27.1091L72.4908 49.2545H57.0909L54.4182 27.1091C54.3545 26.6 54.7362 26.1545 55.2453 26.1545Z" fill="#AAACE3"/>
<path d="M74.8454 10.4363L74.5272 10.3727C73.8272 10.2454 73.1273 10.6272 72.8728 11.2636L70.8363 16.9273C70.7726 16.9909 70.7727 17.0545 70.7727 17.1818C71.4091 17.6909 72.2363 18.1363 73.1272 18.2636C73.9545 18.3909 74.7818 18.3273 75.4818 18.1364C75.4818 18.0727 75.5455 18.0091 75.5455 17.8818L75.9909 11.9C76.0545 11.2 75.5454 10.6272 74.8454 10.4363Z" fill="#D7D7E6"/>
<path d="M74.9092 1.90912C75.1001 1.5273 75.6091 1.5273 75.8 1.90912C76.1182 2.54548 76.5001 3.30912 76.8182 3.81821C77.3273 4.77276 77.6456 6.93638 77.3274 8.0182C77.0092 9.29092 76.1182 10.5636 75.8637 11.0091C75.8001 11.0727 75.7363 11.1364 75.6091 11.2C75.3545 11.2637 74.8456 11.3909 74.1456 11.2636C73.191 11.0091 73.1273 10.4363 73.1273 10.4363C73.1273 10.4363 72.6182 8.4 72.6819 7.12727C72.7455 5.85454 73.4455 4.26362 73.7637 4.00907C73.9546 3.69089 74.5273 2.67276 74.9092 1.90912Z" fill="#C7645D"/>
<path d="M100.809 82.9181H99.7908H96.4182C96.1637 83.3 95.9091 83.6181 95.5909 83.8727H100.745C101 83.8727 101.254 83.6182 101.254 83.3636C101.254 83.1727 101.064 82.9181 100.809 82.9181Z" fill="#2B31BA"/>
<path d="M100.809 67.5182C101.064 67.5182 101.318 67.2636 101.318 67.009C101.318 66.7545 101.064 66.5 100.809 66.5H97.3091V67.4545L100.809 67.5182Z" fill="#2B31BA"/>
</svg>
