<svg width="104" height="95" viewBox="0 0 104 95" fill="none" xmlns="http://www.w3.org/2000/svg">
<path d="M56.7998 94.4005C82.8678 94.4005 104 73.2682 104 47.2002C104 21.1323 82.8678 0 56.7998 0C30.7318 0 9.59956 21.1323 9.59956 47.2002C9.59956 73.2682 30.7318 94.4005 56.7998 94.4005Z" fill="#EBDBCD"/>
<path d="M22.6274 7.95706H90.2704C92.2956 7.95706 93.9061 9.59949 93.9061 11.5927V52.287C93.9061 54.3122 92.2637 55.9227 90.2704 55.9227H22.6274C20.6022 55.9227 18.9917 54.2803 18.9917 52.287V11.5927C18.9917 9.58354 20.6341 7.95706 22.6274 7.95706Z" fill="#C5C6E3"/>
<path d="M22.8985 10.046H90.0153C90.8285 10.046 91.5142 10.6998 91.5142 11.5449V46.9451C91.5142 47.7583 90.8604 48.4121 90.0153 48.4121H22.8985C22.0852 48.4121 21.4314 47.7583 21.4314 46.9451V11.5449C21.3995 10.7317 22.0852 10.046 22.8985 10.046Z" fill="#E8EAF7"/>
<path d="M69.1898 65.8092H43.6921L46.8654 55.9387H66.0325L69.1898 65.8092Z" fill="#C5C6E3"/>
<path d="M37.824 63.3057H75.0898C75.632 63.3057 76.0785 63.7522 76.0785 64.2944V64.8365C76.0785 65.3787 75.632 65.8252 75.0898 65.8252H37.824C37.2819 65.8252 36.8353 65.3787 36.8353 64.8365V64.2944C36.8513 63.7362 37.2819 63.3057 37.824 63.3057Z" fill="#C5C6E3"/>
<path d="M56.1141 54.1846C57.2149 54.1846 58.1073 53.2922 58.1073 52.1913C58.1073 51.0905 57.2149 50.1981 56.1141 50.1981C55.0132 50.1981 54.1208 51.0905 54.1208 52.1913C54.1208 53.2922 55.0132 54.1846 56.1141 54.1846Z" fill="#E8EAF7"/>
<path d="M31.2223 14.7022H80.9898V44.617C80.9898 45.1432 80.5753 45.5418 80.065 45.5418H32.1631C31.6369 45.5418 31.2382 45.1273 31.2382 44.617C31.2223 44.6329 31.2223 14.7022 31.2223 14.7022Z" fill="white"/>
<path d="M66.7022 16.8549H78.279C78.5979 16.8549 78.8531 17.0941 78.8531 17.429V42.8629C78.8531 43.1818 78.6139 43.437 78.279 43.437H66.7022C66.3833 43.437 66.1282 43.1978 66.1282 42.8629V17.429C66.1441 17.0941 66.3833 16.8549 66.7022 16.8549Z" fill="#E8E8F7"/>
<path d="M33.9331 16.8549H63.4332C63.7522 16.8549 64.0073 17.0941 64.0073 17.429V42.8629C64.0073 43.1818 63.7681 43.437 63.4332 43.437H33.9331C33.6142 43.437 33.3591 43.1978 33.3591 42.8629V17.429C33.3591 17.0941 33.6301 16.8549 33.9331 16.8549Z" fill="#EBDBCD"/>
<path d="M68.4084 21.3039H72.4269C72.6501 21.3039 72.8414 21.4952 72.8414 21.7185C72.8414 21.9417 72.6501 22.1331 72.4269 22.1331H68.4084C68.1852 22.1331 67.9938 21.9417 67.9938 21.7185C67.9938 21.4952 68.1533 21.3039 68.4084 21.3039Z" fill="#C5C6E3"/>
<path d="M68.4084 23.0261H76.6206C76.8439 23.0261 77.0352 23.2174 77.0352 23.4407C77.0352 23.6639 76.8439 23.8552 76.6206 23.8552H68.4084C68.1852 23.8552 67.9938 23.6639 67.9938 23.4407C67.9938 23.1855 68.1533 23.0261 68.4084 23.0261Z" fill="#C5C6E3"/>
<path d="M68.4084 30.5526H76.6206C76.8439 30.5526 77.0352 30.7439 77.0352 30.9672C77.0352 31.1904 76.8439 31.3818 76.6206 31.3818H68.4084C68.1852 31.3818 67.9938 31.1904 67.9938 30.9672C67.9938 30.712 68.1533 30.5526 68.4084 30.5526Z" fill="#C5C6E3"/>
<path d="M68.4084 28.8304H74.5317C74.7549 28.8304 74.9463 29.0218 74.9463 29.245C74.9463 29.4683 74.7549 29.6596 74.5317 29.6596H68.4084C68.1852 29.6596 67.9938 29.4683 67.9938 29.245C67.9938 29.0218 68.1533 28.8304 68.4084 28.8304Z" fill="#C5C6E3"/>
<path d="M68.4084 38.4459H76.6206C76.8439 38.4459 77.0352 38.6372 77.0352 38.8605C77.0352 39.0837 76.8439 39.2751 76.6206 39.2751H68.4084C68.1852 39.2751 67.9938 39.0837 67.9938 38.8605C67.9938 38.6372 68.1533 38.4459 68.4084 38.4459Z" fill="#C5C6E3"/>
<path d="M68.4084 36.7237H72.4269C72.6501 36.7237 72.8414 36.9151 72.8414 37.1383C72.8414 37.3615 72.6501 37.5529 72.4269 37.5529H68.4084C68.1852 37.5529 67.9938 37.3615 67.9938 37.1383C67.9938 36.9151 68.1533 36.7237 68.4084 36.7237Z" fill="#C5C6E3"/>
<path d="M68.4084 40.1361H76.6206C76.8439 40.1361 77.0352 40.3275 77.0352 40.5508C77.0352 40.774 76.8439 40.9653 76.6206 40.9653H68.4084C68.1852 40.9653 67.9938 40.774 67.9938 40.5508C67.9938 40.3275 68.1533 40.1361 68.4084 40.1361Z" fill="#C5C6E3"/>
<path d="M69.1101 36.038C69.6649 36.038 70.1147 35.5882 70.1147 35.0334C70.1147 34.4786 69.6649 34.0288 69.1101 34.0288C68.5552 34.0288 68.1055 34.4786 68.1055 35.0334C68.1055 35.5882 68.5552 36.038 69.1101 36.038Z" fill="#4E53BA"/>
<path d="M69.1101 20.6182C69.6649 20.6182 70.1147 20.1684 70.1147 19.6136C70.1147 19.0588 69.6649 18.609 69.1101 18.609C68.5552 18.609 68.1055 19.0588 68.1055 19.6136C68.1055 20.1684 68.5552 20.6182 69.1101 20.6182Z" fill="#4E53BA"/>
<path d="M69.1101 28.1129C69.6649 28.1129 70.1147 27.6631 70.1147 27.1082C70.1147 26.5534 69.6649 26.1036 69.1101 26.1036C68.5552 26.1036 68.1055 26.5534 68.1055 27.1082C68.1055 27.6631 68.5552 28.1129 69.1101 28.1129Z" fill="#FF7A82"/>
<path d="M40.2796 81.4363L39.9766 85.5026C39.9129 86.4115 40.9652 87.145 41.8263 87.0812C42.8947 87.0174 43.4688 86.2361 43.5166 85.3112L43.8196 81.245C43.8993 80.336 42.831 79.6025 41.9699 79.6663C40.9175 79.7142 40.3434 80.4955 40.2796 81.4363Z" fill="#FCB58A"/>
<path d="M53.2756 81.8509L53.8975 85.8853C54.041 86.7942 55.237 87.2566 56.0821 87.0015C57.0867 86.6985 57.4694 85.8055 57.3419 84.8807L56.72 80.8463C56.5765 79.9374 55.3805 79.475 54.5353 79.7301C53.4989 80.0331 53.1481 80.942 53.2756 81.8509Z" fill="#FCB58A"/>
<path d="M40.0085 38.1907C38.5096 40.8378 37.5848 43.5486 37.505 46.5943C37.4253 49.4646 38.0472 52.303 40.5666 54.0251C42.225 55.1733 43.9153 52.5581 42.2569 51.41C40.6145 50.2619 40.5347 48.0613 40.6464 46.1956C40.7899 43.8994 41.4915 41.8743 42.6396 39.8969C43.6123 38.1429 41.0291 36.4526 40.0085 38.1907Z" fill="#FCB58A"/>
<path d="M52.893 39.6737C54.2803 41.4756 55.3009 43.3572 55.7633 45.6216C56.146 47.5351 56.2895 49.337 54.6949 50.7562C53.2278 52.1276 55.2689 54.4716 56.7359 53.1003C57.7246 52.2232 58.4582 51.0751 58.8568 49.8313C59.2714 48.4121 59.1598 47.0248 58.9206 45.5738C58.3944 42.544 57.1187 40.0086 55.237 37.6007C54.0092 36.038 51.6492 38.0791 52.893 39.6737Z" fill="#FCB58A"/>
<path d="M56.6083 37.0426C56.6083 37.0426 55.0296 25.8804 54.5034 23.8393C53.6902 20.6979 51.4418 18.8163 48.2844 18.8163C45.0634 18.8163 42.831 20.7298 41.9539 23.8712C41.045 27.0923 39.849 36.8034 39.849 36.8034C39.7055 37.2499 39.9288 37.7123 40.3753 37.8399C41.3799 38.2226 43.5166 38.9083 48.2844 38.8445C52.542 38.7807 54.7586 38.2226 55.8429 38.111C56.3054 38.0791 56.6562 37.6645 56.6402 37.2021C56.6402 37.1542 56.6402 37.1064 56.6083 37.0426Z" fill="#FF5856"/>
<path d="M46.5304 29.8191H50.0067V35.735C50.0067 36.2294 49.5921 36.644 49.0977 36.644H47.4394C46.945 36.644 46.5304 36.2294 46.5304 35.735V29.8191Z" fill="#FCB58A"/>
<path d="M48.2845 31.0947C51.4638 31.0947 54.0411 28.5175 54.0411 25.3382C54.0411 22.159 51.4638 19.5817 48.2845 19.5817C45.1053 19.5817 42.5281 22.159 42.5281 25.3382C42.5281 28.5175 45.1053 31.0947 48.2845 31.0947Z" fill="#FCB58A"/>
<path d="M42.4164 25.115C42.4164 25.1947 42.4165 25.3063 42.4483 25.3861V25.418C42.4483 25.5296 42.4802 25.6093 42.5121 25.721C42.544 25.8326 42.544 25.9442 42.5759 26.0399C42.9905 24.4293 44.4256 23.2812 46.1 23.2812C46.3232 23.2812 46.5146 23.3131 46.7218 23.345C46.8813 23.3769 47.0248 23.4088 47.1843 23.4088C48.2527 23.4088 49.1297 22.6115 49.2573 21.559C49.2254 21.6706 49.2254 21.7823 49.2254 21.8779C49.2254 23.1058 50.214 24.0944 51.4419 24.0944C52.6219 24.3336 53.5946 25.2107 53.9454 26.3588C54.0251 26.1196 54.0889 25.8326 54.1048 25.5615V25.5296C54.1367 25.418 54.1368 25.3063 54.1368 25.2107V25.1309C54.1368 24.9874 54.1368 24.8917 54.1368 24.7482C54.1368 24.6047 54.1368 24.525 54.1368 24.4293C54.1368 24.3974 54.1368 24.3655 54.1368 24.3496C54.1368 24.2699 54.1367 24.1901 54.1048 24.1264C54.0729 24.0626 54.1049 24.0626 54.073 24.0147C54.0411 23.9509 54.0411 23.8712 54.0411 23.7915L54.0092 23.6799C53.9773 23.6001 53.9773 23.5363 53.9454 23.4566C53.9135 23.3769 53.9135 23.3928 53.9135 23.3769L53.8498 23.1536C53.8498 23.1217 53.8178 23.0898 53.8178 23.0739C53.7859 22.9942 53.754 22.9145 53.7381 22.8507C53.7381 22.8188 53.7381 22.8188 53.7062 22.7869C53.6743 22.7072 53.6424 22.6274 53.6264 22.5477V22.5158C53.5946 22.4361 53.5468 22.3244 53.5149 22.2447C52.9887 21.1763 52.1754 20.2834 51.1708 19.6774C50.8519 19.4861 50.517 19.3266 50.1662 19.215H50.1343C50.0227 19.1831 49.9111 19.1512 49.8313 19.1034H49.7676C49.5284 19.0396 49.3051 18.9917 49.0659 18.9598H48.9862L48.7151 18.9279H48.6034C48.4918 18.9279 48.3643 18.9279 48.2527 18.9279C44.9997 18.9279 42.3845 21.5431 42.3845 24.7961C42.3845 24.9077 42.3845 25.0193 42.3845 25.115C42.4164 25.0991 42.4164 25.115 42.4164 25.115Z" fill="#FF5856"/>
<path d="M53.8816 34.8899C52.6856 34.2361 51.3781 33.7896 50.0067 33.5983C49.7835 34.555 49.3051 35.0653 48.2048 35.0653C47.1045 35.0653 46.7378 34.5232 46.5464 33.5345C46.3232 33.5345 45.6375 33.678 45.4781 33.7258C43.4848 34.1085 42.6875 34.6348 41.7148 35.3683C40.184 36.5164 38.6851 38.8924 38.3661 39.4345C38.3024 39.4983 38.3024 39.594 38.3661 39.6578C38.7169 40.2318 39.1794 40.7262 39.7375 41.1089C40.4232 41.5554 41.1248 41.8743 41.8902 42.1135C41.8902 42.1135 42.3526 41.2364 42.5121 40.9175C42.7035 40.471 43.1978 39.004 43.1978 39.004C42.9267 39.6259 42.7512 40.3115 42.7034 40.9972C42.6715 41.9221 43.0064 42.9586 42.9745 43.5805C42.8948 44.6648 42.6716 45.7332 42.3526 46.7697C42.3208 46.9132 42.3845 47.0089 42.5121 47.0727C44.2662 47.4873 46.0681 47.7265 47.87 47.7583C49.8154 47.7583 51.7448 47.6148 53.6584 47.3118C53.8019 47.28 53.8816 47.1683 53.8497 47.0408C53.8497 47.0408 53.8497 47.0408 53.8497 47.0089C53.6106 45.9724 53.4032 44.9359 53.3235 43.8994C53.164 42.4802 53.3235 42.2091 53.3235 41.1726C53.2597 40.4391 53.164 39.6737 53.0205 38.9402L53.3235 41.7786C54.2005 41.7467 55.0775 41.5553 55.8589 41.1726C56.401 40.8697 56.8635 40.5189 57.31 40.0883C57.3897 40.0086 57.4216 39.897 57.3738 39.7853C56.991 39.0199 55.3008 35.7351 53.8816 34.8899Z" fill="#868AE0"/>
<path d="M48.2845 31.0947C47.6785 31.0947 47.1045 31.015 46.5304 30.8237V31.892C47.1045 32.0515 47.7104 32.0834 48.2845 32.0037C48.8904 31.9399 49.4645 31.8123 50.0067 31.5412V30.8077C49.4645 30.9831 48.8585 31.0947 48.2845 31.0947Z" fill="#E3996D"/>
<path d="M43.3413 47.264C44.9199 47.5351 46.5305 47.7105 48.1411 47.7583C50.2459 47.7583 52.8292 47.4554 52.8292 47.4554C52.8292 47.4554 53.0524 48.9543 53.1481 49.2891C53.2438 49.624 51.4259 50.2778 48.2048 50.1981C43.9791 50.1183 42.9586 49.5124 42.9905 49.3529C42.9905 49.1935 43.3413 47.264 43.3413 47.264Z" fill="#FCB58A"/>
<path d="M54.2165 50.23C56.8316 55.4443 58.0754 58.7133 58.777 65.6817C59.383 71.5498 58.6175 79.4112 58.5059 83.892C58.5059 84.0355 58.4741 84.1631 58.3943 84.2747C58.1711 84.5937 56.8156 84.8966 56.4329 84.9285C54.5513 85.072 52.7813 84.785 52.6059 84.1153C51.6172 80.0809 50.8519 76.0147 50.3416 71.8847C49.8951 68.4722 49.3529 64.6452 49.0818 61.8706C49.0818 61.759 49.0021 61.6792 48.8905 61.6792C48.7789 61.6792 48.6991 61.759 48.6991 61.8706C48.6353 62.333 48.5875 64.9641 48.5078 65.7455C48.3165 67.962 47.9656 70.1147 47.5829 72.2993C47.0088 75.7755 45.6694 80.655 44.6648 83.9558C44.5851 84.2269 44.3937 84.4501 44.1226 84.5299C43.421 84.6415 42.7353 84.6734 42.0177 84.6415C41.1726 84.5777 39.4026 84.3226 39.291 83.908C37.9993 78.5501 37.9515 68.2968 39.8331 57.597C40.2796 55.1095 41.0929 52.7335 42.241 50.5011C44.1545 50.8519 46.0999 51.0432 48.0613 51.107C50.1343 51.0592 52.2073 50.7562 54.2165 50.23Z" fill="#FFADB2"/>
<path d="M42.9905 49.3051C42.7672 49.3689 42.5758 49.5284 42.4642 49.7197C42.3207 49.9589 42.241 50.214 42.225 50.4851C42.225 50.4851 44.4097 51.1389 48.5556 51.2505C52.574 51.3621 54.2005 50.2459 54.2005 50.2459C54.1208 49.9748 53.9613 49.7516 53.7062 49.5921C53.3872 49.4008 53.1322 49.2732 53.1322 49.2732C53.1322 49.2732 51.8724 50.3894 48.0613 50.1184C44.2502 49.8473 42.9905 49.3051 42.9905 49.3051Z" fill="#FFADB2"/>
<path d="M41.5074 86.0447C42.1931 86.0766 42.847 85.9331 43.4688 85.6939C43.708 86.1883 43.9154 86.7304 44.0429 87.2726C44.1227 87.8148 44.4256 89.6167 43.9791 89.9834C43.5645 90.3342 43.6283 90.2545 43.0542 90.5096C42.241 90.8604 41.9061 90.6691 40.7899 91.2431C40.3753 91.4664 38.6053 93.0929 36.8034 93.2683C35.3044 93.4118 34.8899 92.6624 34.6985 92.2637C34.5391 91.8491 34.8421 91.0837 35.8945 90.3023C36.931 89.505 37.8877 88.6121 38.7648 87.5915C39.2272 86.9696 39.6418 86.252 39.9128 85.5185C39.9607 85.5026 40.2637 86.0128 41.5074 86.0447Z" fill="#C7645D"/>
<path d="M55.8271 86.1882C55.1733 86.2201 54.5195 86.0766 53.9135 85.8055C53.5627 86.3477 53.3076 86.9537 53.2119 87.6074C53.1003 88.1496 52.9089 89.7602 53.3554 90.095C53.8019 90.4139 53.7062 90.3661 54.2803 90.6213C55.0935 90.9402 55.4284 90.7807 56.5446 91.3547C56.9592 91.578 58.7292 93.2364 60.5311 93.3799C61.6155 93.4597 62.4447 92.774 62.6041 92.3753C62.7636 91.9607 62.7954 91.1475 61.456 90.2545C60.1165 89.3456 58.5379 87.9264 58.3147 87.5277C58.0117 86.9218 57.3579 85.6142 57.3579 85.6142C57.3579 85.6142 57.039 86.1564 55.8271 86.1882Z" fill="#C7645D"/>
<path d="M53.0683 38.9402C53.0683 38.9402 53.2916 40.1999 53.3075 40.8218C53.3075 41.2045 53.3075 41.8105 53.3075 41.8105C53.3075 41.8105 53.5787 41.8105 53.7541 41.7786C53.9135 41.7467 54.057 41.7148 54.057 41.7148C54.057 41.7148 53.8975 41.1407 53.7062 40.5986C53.5308 40.0724 53.0683 38.9402 53.0683 38.9402Z" fill="#4E53BA"/>
<path d="M43.2615 38.8445C43.2615 38.8445 42.9586 39.7215 42.8151 40.2956C42.7513 40.5986 42.7353 40.9016 42.7353 41.2045C42.7034 41.364 42.5121 41.8902 42.4324 42.1134C42.4005 42.1932 42.3208 42.2251 42.2729 42.2251C42.1613 42.1932 41.9699 42.1613 41.8264 42.1134C41.6031 42.0337 41.4437 41.9699 41.5075 42.0018C41.5713 42.0337 42.0018 41.3162 42.3207 40.7421C42.5759 40.2159 43.2615 38.8445 43.2615 38.8445Z" fill="#4E53BA"/>
<path d="M53.2597 50.4532C55.2052 54.3122 56.3692 58.4741 57.023 62.7317C57.7087 67.2284 57.7565 71.789 57.5492 76.3177C57.4057 78.9328 57.2303 81.5639 56.9433 84.1472C56.9114 84.4501 57.3898 84.4501 57.4057 84.1472C57.8522 79.459 58.203 74.755 58.0914 70.0668C57.9797 65.6657 57.4695 61.2806 56.2576 57.023C55.6038 54.6789 54.7268 52.3827 53.6424 50.23C53.4989 49.9589 53.0843 50.1981 53.2597 50.4532Z" fill="white"/>
<path d="M42.6875 50.5648C40.9972 54.4716 40.0723 58.6495 39.5461 62.8433C39.0518 67.1806 38.8445 71.5498 38.9402 75.919C38.9721 78.5023 39.0996 81.0696 39.4026 83.6369C39.4345 83.9399 39.8969 83.9399 39.865 83.6369C39.3388 79.1401 39.3229 74.6114 39.4823 70.0987C39.6259 65.889 40.0086 61.6633 40.9334 57.5492C41.4597 55.2211 42.1931 52.9567 43.118 50.7881C43.2137 50.501 42.831 50.2937 42.6875 50.5648Z" fill="white"/>
<path d="M48.157 47.7424C46.5464 47.6786 44.9358 47.5192 43.3572 47.2481C43.3572 47.2481 43.3253 47.4713 43.2775 47.7743C44.8561 48.2208 46.5305 48.3962 48.1889 48.3165C49.7675 48.2527 51.3302 47.9975 52.8291 47.4713L52.893 47.4394C52.8451 47.4713 50.2459 47.7424 48.157 47.7424Z" fill="#F0A173"/>
<path d="M32.0195 12.5655H80.2244C80.6709 12.5655 81.0217 12.9163 81.0217 13.3628V14.7022H31.2382V13.3628C31.2222 12.9163 31.573 12.5655 32.0195 12.5655Z" fill="#868AE0"/>
<path d="M24.9396 42.9905L24.7801 42.9586C24.3655 42.8789 23.9828 43.1021 23.8233 43.4848L22.6753 46.674C22.6434 46.7378 22.6434 46.7537 22.6434 46.8175C23.0261 47.1365 23.5204 47.3597 24.0147 47.4235C24.4612 47.5032 24.9236 47.4873 25.3542 47.3438C25.3542 47.3119 25.3861 47.264 25.3861 47.2321L25.6571 43.8516C25.6252 43.437 25.3542 43.0862 24.9396 42.9905Z" fill="#D7D7E6"/>
<path d="M25.0033 38.1429C25.0831 37.9994 25.2426 37.9515 25.3861 38.0313C25.4499 38.0632 25.4658 38.095 25.4977 38.1429C25.6571 38.4937 25.9123 38.9402 26.0717 39.2272C26.3907 39.9607 26.5182 40.7899 26.3747 41.5713C26.1833 42.1772 25.9123 42.7513 25.5296 43.2297C25.4977 43.2935 25.4499 43.3094 25.3861 43.3413C25.115 43.421 24.8439 43.421 24.5728 43.3732C24.0466 43.2297 23.9668 42.9107 23.9668 42.9107C23.8074 42.2889 23.7276 41.651 23.7276 41.0291C23.7914 40.4072 23.9988 39.8013 24.3336 39.2591C24.5888 38.8764 24.812 38.5256 25.0033 38.1429Z" fill="#C7645D"/>
<path d="M20.682 59.5425L22.6274 47.0408C22.6274 46.977 22.6593 46.8973 22.6912 46.8494C23.4247 47.4554 24.4452 47.6467 25.3382 47.3756C25.3382 47.4554 25.3064 47.5351 25.3064 47.5989L22.3404 59.9092C22.2607 60.3557 21.8142 60.6427 21.3836 60.5311C20.9371 60.4195 20.6023 59.973 20.682 59.5425Z" fill="#2B31BA"/>
<path d="M19.595 37.0551L15.6665 37.3414L17.3976 61.087L21.326 60.8006L19.595 37.0551Z" fill="#DADAED"/>
<path d="M17.2177 40.4358L15.8817 40.5332L15.9014 40.8036L17.2374 40.7062L17.2177 40.4358Z" fill="#989BD7"/>
<path d="M17.3081 43.21L15.9718 43.3035L15.9907 43.574L17.327 43.4804L17.3081 43.21Z" fill="#989BD7"/>
<path d="M17.4837 45.89L16.1475 45.9835L16.1664 46.2539L17.5026 46.1604L17.4837 45.89Z" fill="#989BD7"/>
<path d="M17.7919 48.4093L16.4559 48.5067L16.4756 48.7771L17.8116 48.6797L17.7919 48.4093Z" fill="#989BD7"/>
<path d="M17.9832 51.0563L16.6473 51.1537L16.667 51.4241L18.0029 51.3267L17.9832 51.0563Z" fill="#989BD7"/>
<path d="M18.1736 53.7196L16.8376 53.817L16.8573 54.0874L18.1933 53.99L18.1736 53.7196Z" fill="#989BD7"/>
<path d="M18.3968 56.3663L17.0608 56.4637L17.0805 56.7341L18.4165 56.6367L18.3968 56.3663Z" fill="#989BD7"/>
<path d="M15.5359 45.1746L13.0385 45.6117L16.3237 64.3813L18.8211 63.9442L15.5359 45.1746Z" fill="#FFADB2"/>
<path d="M15.5633 45.207L13.0438 45.6375L13.4266 42.0497L13.9687 41.9699L15.5633 45.207Z" fill="#EBDBCD"/>
<path d="M13.586 43.7081L13.9528 43.4689L14.2398 43.4848L14.6066 43.2935L13.9687 41.9699L13.4266 42.0497L13.299 43.4848L13.586 43.7081Z" fill="#FF7A82"/>
<path d="M13.8092 51.9043H24.7322C25.0033 51.9043 25.1947 52.1276 25.1947 52.3668C25.1947 52.3986 25.1947 52.3986 25.1947 52.4305L23.7436 64.0871C23.6798 64.6292 23.2174 65.0438 22.6752 65.0438H15.8025C15.2603 65.0438 14.7978 64.6292 14.7341 64.0871L13.3149 52.4305C13.283 52.1913 13.4744 51.9362 13.7295 51.9043C13.7614 51.9203 13.7773 51.9203 13.8092 51.9043Z" fill="#FF7A82"/>
<path d="M1.30762 65.4584H26.0718C27.5388 65.4584 28.7188 66.6384 28.7188 68.1055V68.2649C28.7188 69.732 27.5388 70.912 26.0718 70.912H1.30762V65.4584Z" fill="#F8E7D8"/>
<path d="M43.6124 65.0598H0.191383C0.0797613 65.0598 0 65.1395 0 65.2511C0 65.3627 0.0797613 65.4425 0.191383 65.4425H25.9601C27.459 65.4425 28.6869 66.6703 28.6869 68.1692C28.6869 69.6682 27.459 70.896 25.9601 70.896H0.191383C0.0797613 70.896 0 70.9758 0 71.0874C0 71.199 0.0797613 71.2787 0.191383 71.2787H43.6124C45.1113 71.2787 46.3392 70.0509 46.3392 68.552V67.7547C46.3551 66.2876 45.1273 65.0598 43.6124 65.0598Z" fill="#110580"/>
<path d="M21.1285 69.716H1.30762V69.4768H21.1285C21.2082 69.4768 21.272 69.5406 21.272 69.6203C21.256 69.6363 21.2082 69.716 21.1285 69.716Z" fill="#DEBCA7"/>
<path d="M23.2812 67.0211H1.30762V66.782H23.2812C23.3609 66.782 23.4247 66.8457 23.4247 66.9255C23.4247 66.9573 23.3609 67.0211 23.2812 67.0211Z" fill="#DEBCA7"/>
<path d="M25.705 68.2968H1.30762V68.0576H25.705C25.7848 68.0576 25.8485 68.1214 25.8485 68.2011C25.8485 68.249 25.8007 68.2968 25.705 68.2968Z" fill="#DEBCA7"/>
<path d="M96.9199 72.0442C93.2842 71.502 89.6326 70.896 86.0607 70.1306C79.2996 68.7114 77.5137 79.2836 84.2269 80.6869C85.8056 81.0058 87.4162 81.3407 89.0108 81.6437C92.0724 78.8212 94.7194 75.5842 96.9199 72.0442Z" fill="#FCB58A"/>
<path d="M76.3495 69.5565C79.9214 69.7001 82.9512 71.5498 85.8534 73.575C87.9263 75.026 89.9675 71.7731 87.8945 70.322C84.4502 67.9141 80.7506 65.873 76.509 65.7136C74.0055 65.57 73.83 69.4449 76.3495 69.5565Z" fill="#FCB58A"/>
<path d="M82.6163 81.2928L78.0558 81.2609C75.1695 81.229 72.7617 78.7574 72.6979 75.7436L72.666 74.7071C72.6022 71.7093 74.8984 69.2536 77.8006 69.2695L82.3612 69.3014C85.2315 69.3333 87.6553 71.8049 87.7191 74.8187L87.7509 75.8552C87.8147 78.869 85.5185 81.3247 82.6163 81.2928Z" fill="#FCB58A"/>
<path d="M65.586 86.9377H60.5152C57.039 86.9377 54.2165 84.2269 54.0092 80.7985L53.196 65.8411C53.1641 65.299 53.5786 64.8365 54.1049 64.8047C54.1367 64.8047 54.1687 64.8047 54.1687 64.8047H71.8847C72.4268 64.8047 72.8734 65.2511 72.8734 65.7933C72.8734 65.8252 72.8734 65.8252 72.8734 65.8571L72.0601 80.8145C71.9006 84.2429 69.0303 86.9377 65.586 86.9377Z" fill="#FF5856"/>
<path d="M72.7139 68.2011L72.5704 70.4974C75.058 71.0236 76.6366 73.4474 76.1263 75.935C75.7117 77.9282 74.0534 79.4112 72.0282 79.5707L71.8847 81.8669C75.6798 81.7234 78.6299 78.5342 78.4864 74.7709C78.3907 71.4382 75.9669 68.7114 72.7139 68.2011Z" fill="#FF5856"/>
<path d="M64.3581 61.3125C64.3581 61.3125 60.0208 57.2941 60.1484 54.3441C60.3716 49.8473 64.4059 48.1251 62.8751 43.8675C62.1416 41.8424 59.1119 35.3204 59.1119 35.3204C59.1119 35.3204 64.1348 40.2956 65.9049 43.3413C67.5154 46.1319 67.324 50.517 65.5859 52.6219C61.7748 57.2462 64.3581 61.3125 64.3581 61.3125Z" fill="#DCDCED"/>
<path d="M78.4226 69.3492C80.4477 69.4609 81.9785 71.199 81.8669 73.2082L81.5959 77.8485C81.4842 79.8736 79.7461 81.4044 77.7369 81.2928C75.3131 81.1493 73.4793 79.0763 73.6229 76.6525L73.8142 73.5112C73.9417 71.0555 76.0147 69.2057 78.4226 69.3492Z" fill="#F0A173"/>
<path d="M77.6891 69.142C79.7142 69.2536 81.245 70.9917 81.1333 72.985L80.8623 77.6253C80.7507 79.6504 79.0125 81.1812 77.0033 81.0696C74.5795 80.9261 72.7458 78.8531 72.8893 76.4293L73.0806 73.2879C73.1763 70.8641 75.2493 69.0144 77.6891 69.142Z" fill="#FCB58A"/>
</svg>
