<svg width="375" height="461" viewBox="0 0 375 461" fill="none" xmlns="http://www.w3.org/2000/svg">
<path d="M346.258 301.692C324.622 301.692 307.029 299.71 306.395 297.254L309.565 334.977C309.565 352.888 326.049 367.47 346.179 367.47C366.308 367.47 382.793 352.808 382.793 334.977L385.963 297.174C385.646 299.71 367.973 301.692 346.258 301.692Z" fill="#DEC7B2"/>
<path d="M346.258 301.692C324.305 301.692 306.474 299.631 306.395 297.095V297.016C306.553 294.48 324.305 292.419 346.258 292.419C368.131 292.419 385.883 294.48 386.121 297.016V297.095C385.963 299.631 368.21 301.692 346.258 301.692Z" fill="#E8D4C1"/>
<path d="M346.258 300.899C327.792 300.899 312.735 299.156 312.655 297.016V296.937C312.814 294.797 327.792 293.053 346.258 293.053C364.723 293.053 379.702 294.797 379.86 296.937V297.016C379.781 299.156 364.723 300.899 346.258 300.899Z" fill="#BA9C7E"/>
<path d="M307.742 313.341C310.278 313.421 312.814 314.372 315.033 316.511C319.075 320.474 321.69 326.576 324.939 331.173C326.207 328.637 327.317 326.101 328.268 323.486C329.457 320.395 333.657 317.463 336.906 319.999C340.393 322.772 343.088 325.784 345.307 329.588C347.288 332.916 348.873 336.8 351.964 339.256C354.896 341.634 358.304 342.347 359.493 338.068C360.523 334.343 360.127 330.38 361.395 326.576C362.425 323.486 363.931 320.236 367.18 318.889C370.905 317.304 374.55 319.285 377.879 320.95C379.86 321.98 381.841 323.01 383.744 324.199L383.109 332.124C379.702 329.984 375.501 327.369 372.014 326.893C369.795 326.576 369.954 328.082 369.795 330.143C369.716 331.965 369.716 333.867 369.558 335.69C369.32 339.494 368.765 343.298 366.546 346.389C361.712 353.125 352.756 352.809 346.416 348.529C343.009 346.231 340.552 343.219 338.333 339.732C337.619 338.623 336.906 337.434 336.193 336.245C333.419 342.585 329.298 348.291 322.482 345.834C318.203 344.329 315.429 339.653 312.893 336.245C312.101 335.215 310.674 332.52 309.168 330.222L307.742 313.341Z" fill="#EBDBCD"/>
<path d="M292.129 172.829C293.001 169.58 296.726 169.105 299.024 171.007C303.304 174.573 305.523 179.487 307.821 184.321C310.278 189.472 313.289 194.148 316.776 198.586C323.909 207.7 331.834 216.1 337.065 226.562C347.209 246.771 349.666 270.546 342.612 292.181C342.375 292.815 343.722 289.408 341.582 295.431C339.601 300.82 331.913 297.967 331.993 291.627C332.072 285.445 330.408 279.66 327.713 274.192C322.324 263.334 315.508 253.111 310.198 242.174C304.809 231.079 300.134 219.746 296.33 208.017C292.684 196.763 289.118 184.717 292.129 172.829Z" fill="#4C7378"/>
<path d="M341.899 109.429C344.673 104.436 352.598 107.844 351.092 113.312C346.416 129.321 349.745 146.201 352.677 162.21C355.609 178.535 359.097 194.703 361.078 211.187C364.644 240.431 363.455 273.24 344.99 297.729C343.009 300.344 338.808 298.205 340.473 295.034C342.295 291.547 337.699 268.802 335.638 261.511C333.578 253.982 331.438 246.454 329.615 238.925C325.89 224.105 322.879 209.047 322.165 193.752C320.343 164.033 327.713 135.344 341.899 109.429Z" fill="#57848A"/>
<path d="M350.696 271.893C352.836 261.987 351.251 251.367 353.39 241.54C355.451 231.792 358.304 221.965 362.821 213.089C367.101 204.688 373.679 198.665 381.445 193.435C388.736 188.521 397.296 183.687 399.911 174.652C401.417 169.263 410.53 170.056 409.976 175.999C408.708 188.046 403.636 198.665 397.771 209.126C391.431 220.221 385.963 230.841 382.872 243.284C377.562 264.602 372.965 292.261 348.715 298.838C345.624 299.552 346.02 293.212 350.696 271.893Z" fill="#689399"/>
<path d="M281.03 377.874H247.145V403.404H281.03V377.874Z" fill="#F8D7BC"/>
<path d="M243.703 375.824V377.874H280.914V403.404H243.703V405.299H386.784V375.824H243.703Z" fill="#4E53BA"/>
<path d="M214.266 407.968H317.622C328.646 407.968 337.697 416.981 337.697 428.044V429.436C337.697 440.46 328.801 449.512 317.777 449.512H214.305V407.968H214.266Z" fill="#F8ECE2"/>
<path d="M394.559 405.299H209.315C208.541 405.299 208.039 405.802 208.039 406.576C208.039 407.349 208.541 407.852 209.315 407.852H316.964C328.375 407.852 337.659 417.136 337.659 428.547C337.659 439.957 328.53 449.241 317.08 449.357C317.08 449.357 317.08 449.357 316.964 449.357H209.276C208.503 449.357 208 449.86 208 450.633C208 451.407 208.503 451.91 209.276 451.91H394.52C405.931 451.91 415.214 442.627 415.214 431.216V426.148C415.253 414.699 405.969 405.415 394.559 405.299C394.559 405.415 394.559 405.415 394.559 405.299Z" fill="#FF5856"/>
<path d="M320.91 416.826H214.266V415.434H320.91C321.297 415.434 321.683 415.821 321.683 416.207C321.645 416.594 321.297 416.826 320.91 416.826Z" fill="#EBD0BE"/>
<path d="M271.63 397.292H247.107V395.9H271.746C272.133 395.9 272.52 396.287 272.52 396.673C272.404 397.022 272.017 397.292 271.63 397.292Z" fill="#E0C1A6"/>
<path d="M265.789 389.285H247.107V387.893H265.905C266.292 387.893 266.679 388.164 266.679 388.667C266.563 388.899 266.292 389.285 265.789 389.285Z" fill="#E0C1A6"/>
<path d="M328.646 432.956H214.266V431.564H328.646C329.033 431.564 329.42 431.951 329.42 432.337C329.42 432.724 329.033 432.956 328.646 432.956Z" fill="#EBD0BE"/>
<path d="M314.566 441.969H214.266V440.46H314.566C314.953 440.46 315.34 440.731 315.34 441.079C315.301 441.621 314.914 441.853 314.566 441.969Z" fill="#EBD0BE"/>
<path d="M325.203 425.104H214.228V423.711H325.203C325.59 423.711 325.977 424.098 325.977 424.485C325.861 424.717 325.59 425.104 325.203 425.104Z" fill="#EBD0BE"/>
<path d="M310.582 373.542H269.077V358.186H310.582C312.98 358.186 314.914 360.081 314.914 362.518V369.365C314.914 371.647 313.019 373.542 310.582 373.542Z" fill="#F8D0B3"/>
<path d="M391.503 355.904H265.557C264.938 355.904 264.436 356.407 264.436 357.025C264.436 357.644 264.938 358.147 265.557 358.147H310.621C313.019 358.147 314.953 360.043 314.953 362.479V369.21C314.953 371.608 313.058 373.542 310.621 373.542H265.789C265.171 373.658 264.668 374.161 264.784 374.819C264.784 375.322 265.287 375.824 265.789 375.824H391.503C393.901 375.824 395.835 373.929 395.835 371.492V360.081C395.835 358.031 393.785 355.904 391.503 355.904Z" fill="#FF7A82"/>
<path d="M262.385 340.006H330.077C334.023 340.006 337.311 343.178 337.311 347.239V347.742C337.311 351.687 334.139 354.975 330.077 354.975H262.385V340.006Z" fill="#F8E7D8"/>
<path d="M378.042 339H259.446C259.175 339 258.943 339.271 258.943 339.503C258.943 339.774 259.214 340.006 259.446 340.006H329.806C333.868 340.006 337.311 343.294 337.311 347.51C337.311 351.571 334.023 355.014 329.806 355.014H259.446C259.175 355.014 258.943 355.285 258.943 355.517C258.943 355.788 259.214 356.02 259.446 356.02H378.042C382.103 356.02 385.546 352.732 385.546 348.516V346.465C385.546 342.288 382.103 339 378.042 339Z" fill="#2B31BA"/>
<path d="M322.302 344.222H262.385V343.603H322.302C322.573 343.603 322.689 343.719 322.689 343.99C322.689 344.067 322.573 344.222 322.302 344.222Z" fill="#DEBCA7"/>
<path d="M316.578 351.571H262.347V350.952H316.578C316.848 350.952 316.964 351.069 316.964 351.339C316.964 351.455 316.848 351.571 316.578 351.571Z" fill="#DEBCA7"/>
<path d="M329.033 347.897H262.385V347.123H329.033C329.149 347.123 329.42 347.239 329.42 347.51C329.42 347.626 329.304 347.897 329.033 347.897Z" fill="#DEBCA7"/>
<path d="M302.382 431.564H285.749C285.749 431.564 283.08 432.453 280.798 436.786C278.013 442.124 278.902 447.191 277.123 451.136C276.001 453.805 274.067 455.971 271.669 457.48C273.564 457.751 275.614 457.867 277.626 457.596C279.289 457.209 280.798 456.59 282.074 455.546C282.461 456.436 282.577 457.325 282.693 458.215C282.809 459.105 282.809 460.11 282.693 461C282.693 461 288.805 459.607 291.203 456.049C294.645 451.214 291.706 445.257 296.27 437.753C297.933 435.509 299.945 433.343 302.382 431.564Z" fill="#BFA990"/>
<path d="M20.6032 293.691C20.1723 304.838 19.3102 315.918 18.0175 326.861C17.7781 329.036 20.0765 329.92 20.3159 327.745C21.6565 316.462 22.5663 305.042 22.9972 293.623C23.093 291.448 20.6989 291.448 20.6032 293.691Z" fill="#9FA4FF"/>
<path d="M39.6032 206.559C39.1723 223.431 38.3102 240.2 37.0175 256.763C36.7781 260.055 39.0765 261.393 39.3159 258.1C40.6565 241.023 41.5663 223.74 41.9972 206.456C42.093 203.164 39.6989 203.164 39.6032 206.559Z" fill="#9FA4FF"/>
<path d="M172.811 329.83C172.739 316.277 173.061 302.723 172.99 289.17C172.99 283.61 171.199 283.61 171.199 289.17C171.271 302.723 170.913 316.277 171.02 329.83C171.056 335.39 172.882 335.39 172.811 329.83Z" fill="#B3B6FF"/>
<path d="M215.811 320.064C215.739 304.021 216.061 287.979 215.99 271.936C215.99 265.355 214.199 265.355 214.199 271.936C214.271 287.979 213.913 304.021 214.02 320.064C214.056 326.645 215.882 326.645 215.811 320.064Z" fill="#B3B6FF"/>
<path d="M274.811 282.064C274.739 266.021 275.061 249.979 274.99 233.936C274.99 227.355 273.199 227.355 273.199 233.936C273.271 249.979 272.913 266.021 273.02 282.064C273.056 288.645 274.882 288.645 274.811 282.064Z" fill="#B3B6FF"/>
<path d="M214.811 377.681C214.739 366.894 215.061 356.106 214.99 345.319C214.99 340.894 213.199 340.894 213.199 345.319C213.271 356.106 212.913 366.894 213.02 377.681C213.056 382.106 214.882 382.106 214.811 377.681Z" fill="#B3B6FF"/>
<path d="M153.365 316.958C153.196 314.674 137.288 312.854 117.699 312.854C98.0688 312.854 82.1612 314.674 82.0343 316.958V317.001C82.1189 319.285 98.0688 321.147 117.742 321.147C137.415 321.147 153.365 319.285 153.449 317.001C153.407 317.001 153.365 316.958 153.365 316.958ZM117.699 320.512C101.115 320.512 87.6611 318.947 87.6188 317.043C87.6188 317.043 87.6188 317.043 87.6188 317.001C87.7457 315.097 101.157 313.531 117.699 313.531C134.242 313.531 147.653 315.097 147.78 317.001C147.78 317.001 147.78 317.001 147.78 317.043C147.738 318.904 134.284 320.47 117.699 320.512Z" fill="#E8D4C1"/>
<path d="M117.699 320.47C134.284 320.47 147.738 318.904 147.823 317.001C147.823 317.001 147.823 317.001 147.823 316.958C147.696 315.054 134.242 313.489 117.742 313.489C101.2 313.489 87.7881 315.054 87.6611 316.958C87.6611 316.958 87.6611 316.958 87.6611 317.001C87.6611 318.904 101.115 320.47 117.699 320.47Z" fill="#BA9C7E"/>
<path d="M119.392 320.893C118.165 303.039 115.753 285.228 112.242 267.67C108.73 250.155 104.077 232.851 98.3651 215.97C95.1497 206.409 91.5534 197.016 87.6188 187.709C87.4495 187.413 87.1534 187.159 86.815 187.074C86.4765 186.989 86.0958 187.032 85.7996 187.201C85.5035 187.413 85.292 187.709 85.2074 188.047C85.1228 188.386 85.165 188.766 85.3342 189.062C92.2303 205.393 98.0689 222.189 102.807 239.282C107.503 256.289 111.142 273.593 113.638 291.066C115.034 300.966 116.092 310.908 116.769 320.893C116.811 322.585 119.519 322.627 119.392 320.893Z" fill="#4C7378"/>
<path d="M128.573 324.277C127.6 296.312 128.784 268.305 132.126 240.509C133.057 232.724 134.157 224.982 135.426 217.239C135.723 215.547 133.1 214.828 132.846 216.52C128.277 244.232 125.865 272.281 125.569 300.416C125.484 308.37 125.611 316.324 125.865 324.277C125.95 326.012 128.615 326.012 128.573 324.277Z" fill="#4C7378"/>
<path d="M112.876 326.774C108.815 304.351 99.9303 283.07 86.815 264.412C83.1342 259.166 79.1574 254.174 74.842 249.478C73.6574 248.208 71.7959 250.112 72.9382 251.381C87.9574 268.051 99.1688 287.766 105.811 309.216C107.673 315.224 109.153 321.316 110.253 327.493C110.592 329.185 113.173 328.466 112.876 326.774Z" fill="#4C7378"/>
<path d="M88.8035 302.531L82.2882 299.358L76.6188 296.693C73.2765 295.085 70.865 293.774 70.7804 292.674C70.7381 291.701 73.0651 289.966 77.4228 289.162C77.9728 289.078 78.5228 288.993 79.1151 288.908C79.7074 288.824 80.342 288.824 80.9766 288.824C82.3304 288.781 83.7264 288.866 85.0803 289.035C88.211 289.458 91.215 290.389 94.0496 291.743C96.8842 293.139 99.4226 295.001 101.623 297.243C102.596 298.216 103.442 299.274 104.246 300.416C104.626 300.966 104.965 301.431 105.261 301.981C105.6 302.489 105.853 302.997 106.107 303.504C108.096 307.481 108.138 310.401 107.503 310.781C106.699 311.374 104.161 310.231 100.819 308.581L95.2341 305.747L88.8035 302.531Z" fill="#4C7378"/>
<path d="M69.596 252.397C66.3383 246.855 63.9691 240.805 62.6152 234.543C61.6422 229.593 61.8958 226.293 62.8689 225.87C63.7997 225.447 66.3382 227.605 69.4689 231.285C73.3612 236.024 76.8729 241.058 79.9613 246.389C83.0498 251.678 85.6728 257.262 87.7882 263.058C89.4382 267.67 90.0304 270.885 89.3958 271.351C88.6343 271.943 85.6305 270.505 81.7805 267.247C76.9151 262.974 72.8113 257.982 69.596 252.397Z" fill="#689399"/>
<path d="M91.9341 268.305C89.3957 253.243 91.5111 240.466 93.6688 240.17C95.7841 239.874 101.284 251.466 103.78 266.316C106.276 281.166 104.246 294.028 102.723 294.324C100.819 294.704 94.4303 283.366 91.9341 268.305Z" fill="#57848A"/>
<path d="M80.2998 186.989C77.9729 180.093 76.5344 172.901 76.069 165.624C75.7729 159.955 76.3653 156.274 77.423 156.02C78.4383 155.724 80.7228 158.686 83.3882 163.551C86.7305 169.855 89.5228 176.413 91.7228 183.182C93.9651 189.951 95.6152 196.889 96.6306 203.955C97.3498 209.497 97.3074 213.178 96.5882 213.516C95.6997 213.897 92.9921 211.316 89.819 206.62C85.7575 200.528 82.5844 193.928 80.2998 186.989Z" fill="#57848A"/>
<path d="M97.6034 208.524C97.0111 194.182 100.1 182.293 102.257 182.166C104.415 181.997 108.984 193.505 109.577 208.059C110.169 222.612 105.896 234.459 104.373 234.459C102.426 234.459 98.1957 222.909 97.6034 208.524Z" fill="#4C7378"/>
<path d="M86.2651 229.762C83.1343 227.139 80.4267 224.009 78.269 220.582C76.5344 217.747 75.815 215.42 76.4496 214.532C77.0842 213.643 79.4958 213.601 82.8381 214.532C86.9419 215.759 90.7919 217.874 94.0496 220.666C97.3073 223.501 99.9304 227.012 101.707 230.947C103.103 234.12 103.357 236.574 102.807 237.124C102.088 237.843 99.6766 237.462 96.6304 236.193C92.865 234.585 89.3535 232.428 86.2651 229.762Z" fill="#689399"/>
<path d="M115.965 288.358C114.188 283.662 112.834 278.839 111.861 273.889C111.142 269.912 111.142 267.078 112.073 266.485C113.003 265.935 115.542 267.289 118.546 270.335C122.353 274.312 125.272 279.008 127.176 284.17C129.08 289.331 129.884 294.831 129.503 300.331C129.165 304.604 128.107 307.312 127.303 307.397C126.33 307.566 124.469 305.408 122.353 301.939C119.857 297.624 117.699 293.097 115.965 288.358Z" fill="#4C7378"/>
<path d="M126.923 283.197C128.488 277.612 130.9 272.281 134.115 267.458C136.696 263.693 139.023 261.705 140.038 262.043C141.053 262.424 141.477 265.428 141.265 269.87C140.927 275.497 139.996 281.039 138.43 286.454C136.907 291.87 134.75 297.116 131.957 302.024C129.757 305.916 127.769 308.243 127.007 308.074C126.076 307.862 125.103 304.943 124.892 300.374C124.638 294.62 125.315 288.781 126.923 283.197Z" fill="#57848A"/>
<path d="M116.684 226.716C113.215 214.362 113.765 203.32 115.838 202.643C117.911 201.924 124.723 210.936 128.234 223.459C131.746 236.024 130.011 247.32 128.53 247.701C126.626 248.124 120.196 239.028 116.684 226.716Z" fill="#4C7378"/>
<path d="M128.827 202.009C129.673 195.113 131.407 188.301 134.03 181.87C136.146 176.878 138.176 173.959 139.276 174.128C141.307 174.551 142.703 187.878 140.757 203.532C139.911 210.301 138.388 216.985 136.188 223.459C134.453 228.535 132.719 231.666 131.957 231.624C130.984 231.539 129.715 228.197 128.911 222.824C127.938 215.885 127.938 208.905 128.827 202.009Z" fill="#4C7378"/>
<path d="M117.699 321.147C137.076 321.147 152.815 319.37 153.365 317.128L150.53 350.931C150.53 366.966 135.765 380.081 117.699 380.081C99.6342 380.081 84.8688 366.966 84.8688 350.931L82.0343 317.085C82.4151 319.328 98.238 321.147 117.699 321.147Z" fill="#DEC7B2"/>
<path d="M152.138 331.597C149.684 331.681 147.357 332.697 145.622 334.431C141.942 337.985 139.699 343.443 136.696 347.589C135.596 345.347 134.58 343.062 133.734 340.693C132.676 337.858 128.911 335.277 125.949 337.52C122.903 339.889 120.323 342.808 118.419 346.15C116.642 349.112 115.203 352.624 112.496 354.824C109.746 357.024 106.827 357.574 105.769 353.808C104.796 350.466 105.134 346.87 104.077 343.57C103.188 340.777 101.75 337.901 98.915 336.674C95.5304 335.235 92.3149 337.012 89.3111 338.535C87.5342 339.424 85.7573 340.397 84.065 341.412L84.6573 348.562C87.7034 346.658 91.4688 344.331 94.5995 343.866C96.588 343.57 96.4612 344.924 96.5881 346.785C96.715 348.477 96.715 350.127 96.7996 351.82C96.9688 355.204 97.5188 358.631 99.4649 361.466C103.738 367.516 111.819 367.22 117.488 363.37C120.407 361.297 122.861 358.631 124.723 355.543C125.357 354.57 125.949 353.47 126.584 352.412C129.038 358.081 132.719 363.158 138.896 361C142.746 359.689 145.199 355.5 147.484 352.412C148.203 351.439 149.473 349.112 150.784 346.997L152.138 331.597Z" fill="#EBDBCD"/>
<path d="M110.042 245.459C111.438 238.266 113.68 231.285 116.811 224.686C119.307 219.566 121.634 216.647 122.649 216.901C124.638 217.451 125.019 231.497 121.803 247.785C120.999 251.889 120.026 255.739 118.969 259.208C117.953 262.678 116.853 265.597 116.134 268.051C115.415 270.505 114.907 272.535 114.611 274.058C114.273 275.581 114.061 276.555 113.68 276.682C113.299 276.808 112.326 276.258 111.311 274.735C110.042 272.578 109.153 270.208 108.815 267.755C108.307 264.328 108.18 260.816 108.476 257.347C108.73 253.37 109.238 249.393 110.042 245.459Z" fill="#57848A"/>
<path d="M153.323 316.704H147.738C147.78 316.789 147.823 316.874 147.823 316.958C147.823 316.958 147.823 316.958 147.823 317.001C147.78 318.947 134.326 320.47 117.742 320.47C101.157 320.47 87.7034 318.904 87.6188 317.001C87.6188 317.001 87.6188 317.001 87.6188 316.958C87.6188 316.874 87.6612 316.789 87.7458 316.704H82.1611C82.1188 316.789 82.0766 316.874 82.0343 316.958V317.001C82.1189 319.285 98.0688 321.147 117.742 321.147C137.415 321.147 153.365 319.285 153.449 317.001V316.958C153.407 316.874 153.365 316.789 153.323 316.704Z" fill="#E8D4C1"/>
<path d="M130.984 238.52C133.099 233.359 136.061 228.578 139.742 224.432C142.703 221.216 145.242 219.693 146.215 220.201C147.146 220.709 147.23 223.628 146.553 227.816C145.623 233.062 144.142 238.182 142.069 243.132C140.969 245.797 139.657 248.42 138.261 250.916C137.076 252.989 135.765 255.02 134.369 256.966C133.184 258.532 132.296 259.801 131.619 260.774C130.942 261.747 130.477 262.466 130.053 262.508C129.673 262.551 128.826 261.958 128.234 260.647C127.515 258.828 127.219 256.839 127.346 254.851C127.43 252.312 127.769 249.732 128.319 247.235C128.953 244.232 129.842 241.312 130.984 238.52Z" fill="#689399"/>
<path d="M149.407 155.535C145.727 154.731 142.638 149.824 141.496 146.82C140.988 145.212 140.861 143.562 141.157 141.912C141.242 141.108 141.496 140.347 141.877 139.628C142.257 138.908 142.765 138.316 143.442 137.808C144.204 137.301 145.05 137.005 145.981 137.005C146.869 136.962 147.8 137.216 148.561 137.682C149.323 138.147 149.915 138.781 150.38 139.501C150.846 140.22 151.142 141.066 151.269 141.955C152.581 140.812 154.23 140.093 156.007 139.924C157.403 139.712 159.054 139.797 160.154 140.728C161.592 141.912 161.719 144.155 160.957 145.847C159.942 147.878 158.588 149.697 156.853 151.178C154.653 153.124 152.115 154.605 149.407 155.535Z" fill="white" fill-opacity="0.4"/>
<path d="M237.412 163C240.296 162.349 242.716 158.378 243.611 155.947C244.009 154.646 244.109 153.311 243.877 151.975C243.81 151.325 243.611 150.709 243.313 150.126C243.015 149.544 242.617 149.065 242.086 148.654C241.49 148.243 240.826 148.004 240.097 148.004C239.401 147.969 238.672 148.175 238.075 148.552C237.478 148.928 237.014 149.442 236.649 150.024C236.285 150.606 236.052 151.291 235.953 152.01C234.925 151.085 233.632 150.503 232.24 150.366C231.146 150.195 229.853 150.263 228.991 151.017C227.864 151.975 227.764 153.79 228.361 155.159C229.157 156.803 230.218 158.275 231.577 159.473C233.301 161.048 235.29 162.247 237.412 163Z" fill="white" fill-opacity="0.4"/>
<path d="M263.647 203C265.991 202.48 267.957 199.302 268.684 197.358C269.008 196.317 269.088 195.249 268.9 194.18C268.846 193.66 268.684 193.167 268.442 192.701C268.199 192.236 267.876 191.852 267.445 191.523C266.96 191.195 266.422 191.003 265.829 191.003C265.263 190.976 264.671 191.14 264.186 191.441C263.701 191.743 263.324 192.153 263.027 192.619C262.731 193.085 262.543 193.632 262.462 194.208C261.627 193.468 260.576 193.002 259.445 192.893C258.556 192.756 257.505 192.811 256.805 193.413C255.889 194.18 255.808 195.632 256.293 196.728C256.94 198.042 257.802 199.22 258.906 200.179C260.307 201.439 261.923 202.397 263.647 203Z" fill="white" fill-opacity="0.4"/>
<path d="M206.353 226C204.009 225.48 202.043 222.302 201.316 220.358C200.992 219.317 200.912 218.249 201.1 217.18C201.154 216.66 201.316 216.167 201.558 215.701C201.801 215.236 202.124 214.852 202.555 214.523C203.04 214.195 203.578 214.003 204.171 214.003C204.737 213.976 205.329 214.14 205.814 214.441C206.299 214.743 206.676 215.153 206.973 215.619C207.269 216.085 207.457 216.632 207.538 217.208C208.373 216.468 209.424 216.002 210.555 215.893C211.444 215.756 212.495 215.811 213.195 216.413C214.111 217.18 214.192 218.632 213.707 219.728C213.06 221.042 212.198 222.22 211.094 223.179C209.693 224.439 208.077 225.397 206.353 226Z" fill="white" fill-opacity="0.4"/>
<path d="M160.892 421.962C163.05 421.962 164.785 421.285 164.785 420.481C164.785 419.677 163.05 419 160.892 419C158.734 419 157 419.677 157 420.481C157 421.285 158.734 421.962 160.892 421.962Z" fill="#AAACE3"/>
<path d="M160.892 421.962C158.777 421.962 157 421.285 157 420.481V421.708C157 422.512 158.734 423.188 160.892 423.188C163.05 423.188 164.785 422.512 164.785 421.708V420.481C164.785 421.285 163.05 421.962 160.892 421.962Z" fill="#868AE0"/>
<path d="M164.892 391.962C167.05 391.962 168.785 391.285 168.785 390.481C168.785 389.677 167.05 389 164.892 389C162.735 389 161 389.677 161 390.481C161 391.285 162.735 391.962 164.892 391.962Z" fill="#AAACE3"/>
<path d="M164.892 391.962C162.777 391.962 161 391.285 161 390.481V391.708C161 392.512 162.735 393.188 164.892 393.188C167.05 393.188 168.785 392.512 168.785 391.708V390.481C168.785 391.285 167.05 391.962 164.892 391.962Z" fill="#868AE0"/>
<path d="M137.892 406.962C140.05 406.962 141.785 406.285 141.785 405.481C141.785 404.677 140.05 404 137.892 404C135.735 404 134 404.677 134 405.481C134 406.285 135.692 406.962 137.892 406.962Z" fill="#AAACE3"/>
<path d="M137.892 406.962C135.777 406.962 134 406.285 134 405.481V406.708C134 407.512 135.735 408.188 137.892 408.188C140.05 408.188 141.785 407.512 141.785 406.708V405.481C141.785 406.285 140.05 406.962 137.892 406.962Z" fill="#868AE0"/>
<path d="M116.893 397.962C119.051 397.962 120.785 397.285 120.785 396.481C120.785 395.677 119.051 395 116.893 395C114.735 395 113.001 395.677 113.001 396.481C112.958 397.327 114.693 397.962 116.893 397.962Z" fill="#AAACE3"/>
<path d="M116.893 397.962C114.778 397.962 113.001 397.285 113.001 396.481V397.708C113.001 398.511 114.735 399.188 116.893 399.188C119.051 399.188 120.785 398.511 120.785 397.708V396.481C120.785 397.327 119.051 397.962 116.893 397.962Z" fill="#868AE0"/>
<path d="M128.319 425.585C132.381 425.585 135.638 424.358 135.638 422.792C135.638 421.269 132.338 420 128.319 420C124.258 420 121 421.227 121 422.792C121 424.358 124.3 425.585 128.319 425.585Z" fill="#2B31BA"/>
<path d="M128.319 425.585C124.258 425.585 121 424.358 121 422.792V425.077C121 426.6 124.3 427.869 128.319 427.869C132.381 427.869 135.638 426.642 135.638 425.077V422.792C135.638 424.358 132.381 425.585 128.319 425.585Z" fill="#110580"/>
<path d="M159 457.393C165.104 457.393 170 455.549 170 453.197C170 450.907 165.04 449 159 449C152.896 449 148 450.844 148 453.197C148 455.549 152.959 457.393 159 457.393Z" fill="#2B31BA"/>
<path d="M159 457.393C152.896 457.393 148 455.549 148 453.196V456.63C148 458.919 152.959 460.826 159 460.826C165.104 460.826 170 458.983 170 456.63V453.196C170 455.549 165.104 457.393 159 457.393Z" fill="#110580"/>
<path d="M178.551 409.235C181.631 409.235 184.102 408.305 184.102 407.118C184.102 405.963 181.599 405 178.551 405C175.471 405 173 405.931 173 407.118C173 408.273 175.471 409.235 178.551 409.235Z" fill="#2B31BA"/>
<path d="M178.551 409.235C175.503 409.235 173 408.305 173 407.118V408.882C173 410.037 175.471 411 178.551 411C181.631 411 184.102 410.07 184.102 408.882V407.15C184.102 408.273 181.631 409.235 178.551 409.235Z" fill="#110580"/>
<path d="M42.5001 438.249C47.7718 438.249 52 436.656 52 434.624C52 432.647 47.7169 431 42.5001 431C37.2285 431 33 432.593 33 434.624C33 436.601 37.2285 438.249 42.5001 438.249Z" fill="#2B31BA"/>
<path d="M42.5001 438.249C37.2834 438.249 33 436.656 33 434.624V437.645C33 439.621 37.2285 441.269 42.5001 441.269C47.7718 441.269 52 439.676 52 437.645V434.679C52 436.601 47.7718 438.249 42.5001 438.249Z" fill="#110580"/>
<path d="M265.361 85.4494C266.318 83.6797 263.406 80.2428 258.858 77.718C254.309 75.1932 249.765 74.5333 248.808 76.303C247.851 78.0728 250.763 81.5096 255.312 84.0344C259.925 86.5612 264.405 87.2191 265.361 85.4494Z" fill="#D4BFA9"/>
<path d="M250.639 73.3395C252.474 70.2476 253.99 67.0813 254.808 63.6353C256.526 56.1673 254.815 47.3678 259.757 41.6106C263.364 37.4181 269.507 36.3289 274.942 37.2746C281.592 38.452 287.763 42.5076 290.655 48.5801C293.482 54.6505 292.456 62.5908 287.553 67.1275C283.381 70.9162 277.302 72.0074 273.007 75.5992C270.565 77.5786 268.806 80.2871 266.987 82.8651L266.383 83.6816C253.517 81.855 250.639 73.3395 250.639 73.3395Z" fill="#EBDBCD"/>
<path d="M273.75 62.4417C273.3 60.434 271.564 60.4426 269.999 61.0998C269.649 59.9955 269.116 58.5639 268.039 58.0793C266.77 57.5242 265.328 58.3783 264.276 59.1161C262.039 60.7163 260.29 63.1036 259.245 65.6421C258.137 68.1143 257.598 70.8619 256.617 73.4024C256.199 74.4178 257.854 74.9209 258.272 73.9055C259.534 70.6667 260.096 67.1483 261.992 64.1869C263.009 62.5477 264.548 60.668 266.435 59.9569C267.022 59.7185 267.473 59.6686 267.84 60.2591C268.147 60.719 268.321 61.3033 268.499 61.7591C268.497 61.8234 268.562 61.8254 268.56 61.8896C268.299 62.0098 268.166 62.1342 267.969 62.2565C266.129 63.4835 263.741 65.7861 263.729 68.1648C263.694 69.2568 264.372 70.1786 265.462 70.2779C266.68 70.3812 267.929 69.521 268.729 68.6465C270.26 67.0237 270.779 64.8542 270.526 62.7242C270.92 62.4796 271.309 62.3635 271.695 62.3758C272.789 62.3466 272.219 64.0644 272.072 64.6384C271.497 66.5489 270.285 68.2462 269.139 69.8813C268.263 71.1392 267.513 72.4655 266.515 73.5266C265.382 74.7762 263.942 75.5661 262.5 76.4201C261.518 76.9673 262.37 78.4734 263.288 77.9241C264.926 76.9478 266.629 75.9736 267.899 74.4711C269.235 72.9064 270.385 71.1429 271.533 69.4435C272.556 67.6116 274.318 64.7746 273.75 62.4417ZM268.517 65.2318C268.231 66.1228 267.819 66.9455 267.154 67.6315C266.756 68.0046 265.043 69.3 265.21 68.0837C265.299 67.3149 265.968 66.5005 266.439 65.8726C267.043 65.056 267.837 64.3742 268.692 63.7586C268.678 64.2082 268.662 64.722 268.517 65.2318Z" fill="#BFA990"/>
<path d="M255.376 84.0364C251.205 81.7809 248.475 78.6714 248.663 76.8127L246.303 84.2602C245.549 85.7149 247.903 88.4909 251.567 90.5372C255.231 92.5836 258.942 93.1526 259.696 91.6978C259.762 91.6356 259.764 91.5714 259.768 91.4429L264.964 85.8224C263.574 87.0639 259.546 86.3561 255.376 84.0364Z" fill="#BFA990"/>
<path d="M210.464 24.7927C210.4 24.7906 210.4 24.7906 210.337 24.7243C210.147 24.6539 210.091 24.395 210.161 24.2043C210.505 23.5081 210.913 22.8138 211.383 22.1859C211.518 21.9973 211.777 21.9413 211.899 22.1381C212.088 22.2727 212.144 22.5318 211.947 22.6541C211.479 23.2178 211.073 23.8477 210.793 24.5461C210.787 24.7388 210.656 24.7988 210.464 24.7927Z" fill="#110580"/>
<path d="M270.867 50.0682C270.803 50.0661 270.803 50.0661 270.741 49.9998L270.233 49.7906C269.027 49.3019 267.759 48.7469 266.426 48.1899C266.236 48.1195 266.18 47.8604 266.186 47.6677C266.256 47.4771 266.515 47.4211 266.708 47.4273C267.976 47.9823 269.244 48.5373 270.45 49.026L270.958 49.2352C271.149 49.3056 271.269 49.5666 271.199 49.7573C271.191 50.0142 271.06 50.0743 270.867 50.0682ZM262.375 46.1954C262.311 46.1933 262.247 46.1913 262.184 46.125C260.732 45.3069 259.41 44.4286 258.216 43.5545C258.027 43.4199 257.971 43.1608 258.168 43.0385C258.303 42.8499 258.562 42.794 258.684 42.9908C259.878 43.8649 261.138 44.6769 262.591 45.495C262.781 45.5654 262.837 45.8244 262.767 46.015C262.636 46.0751 262.504 46.1995 262.375 46.1954ZM254.968 40.557C254.904 40.5549 254.778 40.4866 254.716 40.4203C253.596 39.2271 252.672 37.9758 251.816 36.5981C251.694 36.4012 251.764 36.2106 251.961 36.0883C252.158 35.966 252.348 36.0364 252.471 36.2332C253.265 37.5447 254.127 38.7297 255.246 39.9229C255.37 40.0555 255.362 40.3124 255.23 40.4368C255.163 40.499 255.033 40.559 254.968 40.557ZM250.209 32.5601C250.081 32.556 249.89 32.4855 249.832 32.2908C249.366 30.7969 248.965 29.2409 248.824 27.6289C248.768 27.3699 248.965 27.2476 249.16 27.1896C249.419 27.1336 249.541 27.3304 249.599 27.5251C249.809 29.0107 250.08 30.5626 250.613 31.9943C250.671 32.1891 250.537 32.3776 250.34 32.4999C250.274 32.5621 250.209 32.5601 250.209 32.5601ZM252.873 27.6943C252.038 27.6675 251.141 27.5746 250.31 27.4193C250.055 27.3469 249.932 27.15 250.003 26.9594C250.075 26.7045 250.272 26.5822 250.463 26.6526C251.294 26.8078 252.127 26.8988 252.962 26.9256C253.668 26.9482 254.377 26.9066 255.021 26.8629C255.28 26.8069 255.403 27.0037 255.461 27.1985C255.519 27.3932 255.32 27.5798 255.125 27.6379C254.352 27.6774 253.579 27.7169 252.873 27.6943ZM245.85 26.1191C245.786 26.117 245.786 26.117 245.722 26.115C244.452 25.6242 243.121 25.0028 241.412 24.1765C241.221 24.1061 241.165 23.8471 241.235 23.6565C241.306 23.4658 241.565 23.4098 241.755 23.4802C243.401 24.3045 244.731 24.9259 246.001 25.4166C246.192 25.487 246.314 25.6838 246.242 25.9387C246.176 26.0009 245.979 26.1232 245.85 26.1191ZM259.474 26.3625C259.345 26.3584 259.219 26.2901 259.159 26.1596C259.101 25.9648 259.107 25.7721 259.304 25.6498C260.023 25.287 260.68 24.858 261.276 24.2984C261.804 23.8653 262.27 23.3658 262.612 22.7338C262.683 22.5431 263.006 22.4891 263.13 22.6217C263.321 22.6921 263.375 23.0154 263.242 23.1397C262.834 23.8339 262.302 24.3955 261.709 24.8267C261.049 25.3842 260.39 25.8775 259.607 26.2382C259.602 26.3667 259.538 26.3646 259.474 26.3625ZM249.283 23.3356C249.028 23.2631 248.906 23.0663 248.91 22.9378C249.156 21.2739 249.655 19.7467 250.343 18.3541C250.413 18.1635 250.672 18.1075 250.863 18.1779C251.053 18.2483 251.109 18.5073 251.039 18.6979C250.356 19.962 249.859 21.425 249.614 23.0247C249.608 23.2174 249.412 23.3397 249.283 23.3356ZM237.429 22.0556C237.364 22.0536 237.364 22.0536 237.238 21.9852C236.732 21.7119 236.289 21.5048 235.783 21.2314C234.834 20.7509 233.883 20.3346 233.058 19.9867C232.868 19.9163 232.747 19.6553 232.818 19.4646C232.888 19.274 233.149 19.1537 233.34 19.2241C234.227 19.6383 235.116 19.9883 236.129 20.4708C236.635 20.7442 237.142 20.9534 237.584 21.2248C237.774 21.2952 237.831 21.5541 237.76 21.7448C237.69 21.9354 237.557 22.0598 237.429 22.0556ZM215.125 19.798C214.996 19.7939 214.87 19.7256 214.81 19.5951C214.688 19.3982 214.758 19.2076 214.955 19.0853C216.266 18.2914 217.828 17.6984 219.384 17.2982C219.643 17.2422 219.768 17.3748 219.826 17.5695C219.882 17.8285 219.749 17.9528 219.554 18.0109C218.065 18.349 216.633 18.8819 215.322 19.6757C215.318 19.8042 215.253 19.8021 215.125 19.798ZM228.798 18.4999C228.734 18.4979 228.734 18.4979 228.734 18.4979C227.14 18.061 225.603 17.8832 224.192 17.7737C223.935 17.7654 223.812 17.5686 223.819 17.3759C223.827 17.119 224.024 16.9967 224.216 17.0029C225.692 17.1145 227.291 17.3586 228.887 17.7312C229.142 17.8037 229.2 17.9984 229.129 18.189C229.123 18.3817 228.991 18.5061 228.798 18.4999ZM264.277 18.9291C264.02 18.9209 263.898 18.7241 263.904 18.5314C263.881 17.2447 263.469 16.074 262.725 15.2143C262.538 15.0154 262.351 14.8166 262.227 14.684C262.039 14.5494 262.047 14.2924 262.179 14.1681C262.314 13.9795 262.571 13.9877 262.695 14.1203C262.946 14.3212 263.133 14.5201 263.319 14.719C264.25 15.7776 264.724 17.0145 264.739 18.5582C264.733 18.7509 264.534 18.9374 264.277 18.9291C264.342 18.9312 264.277 18.9291 264.277 18.9291ZM253.655 15.3096C253.527 15.3055 253.401 15.2371 253.338 15.1708C253.216 14.974 253.286 14.7834 253.419 14.6591C254.734 13.7367 256.363 13.0816 257.913 12.874C258.172 12.818 258.294 13.0149 258.352 13.2096C258.408 13.4686 258.211 13.5909 258.017 13.6489C256.533 13.7943 255.099 14.3913 253.914 15.2536C253.848 15.3157 253.784 15.3138 253.655 15.3096Z" fill="#110580"/>
<path d="M275.221 4.49085C277.45 13.1784 277.002 21.1371 276.463 29.9289C276.321 32.3677 284.311 31.852 284.957 29.7508C287.35 21.2756 286.167 12.043 283.73 3.79894C282.915 1.13657 274.588 2.15582 275.221 4.49085Z" fill="#F3E9E1"/>
<path d="M308.657 22.5369C304.581 29.3507 299.58 34.9131 294.439 40.8568C292.168 43.4847 299.826 43.2799 301.216 42.0384C307.425 36.9005 312.409 29.8586 316.236 22.7797C317.394 20.7592 309.879 20.5185 308.657 22.5369Z" fill="#F3E9E1"/>
<path d="M306.152 58.5928C311.607 58.8962 316.995 59.3259 322.38 59.8199C324.303 60.0101 327.411 59.3381 328.059 57.1727C328.707 55.0072 326.175 53.7688 324.445 53.5848C318.995 53.0887 313.67 52.7252 308.216 52.3576C306.291 52.2316 303.252 52.7773 302.537 55.0049C301.889 57.1703 304.355 58.471 306.152 58.5928Z" fill="#F3E9E1"/>
<path d="M75.2969 54.1592C64.0327 54.6691 54.4817 45.9454 53.9717 34.6813C53.4617 23.4171 62.1853 13.8661 73.4495 13.3561C84.7137 12.8461 94.2649 21.5697 94.7749 32.8339C95.2849 44.0981 86.5611 53.6492 75.2969 54.1592Z" fill="#EBDBCD"/>
<path d="M56.8503 75.5956C57.0079 75.5884 57.1617 75.5026 57.3086 75.2592C57.3766 75.0193 57.2871 74.7865 57.0437 74.6397L54.8741 73.7908L55.7231 71.6211C55.7911 71.3812 55.7018 71.1485 55.4584 71.0017C55.2185 70.9336 54.9857 71.023 54.8389 71.2665L53.714 74.3169L56.8503 75.5956C56.6928 75.6027 56.7716 75.5991 56.8503 75.5956Z" fill="#110580"/>
<path d="M101.03 92.539C101.188 92.5319 101.341 92.4461 101.488 92.2026C101.556 91.9627 101.467 91.73 101.223 91.5831L95.6813 89.4661C95.4414 89.398 95.2086 89.4875 95.0618 89.731C94.9937 89.9708 95.0832 90.2035 95.3267 90.3504L100.869 92.4674C100.872 92.5462 100.951 92.5426 101.03 92.539ZM89.9457 88.3049C90.1032 88.2978 90.2571 88.212 90.4039 87.9685C90.472 87.7287 90.3827 87.4959 90.1392 87.349L84.5969 85.232C84.3571 85.1639 84.1243 85.2534 83.9774 85.4969C83.9094 85.7368 83.9989 85.9694 84.2423 86.1163L89.7846 88.2333C89.8669 88.3085 89.8669 88.3085 89.9457 88.3049ZM78.9402 84.0673C79.0977 84.0602 79.2516 83.9743 79.3984 83.7309C79.4665 83.491 79.377 83.2582 79.1335 83.1114L73.5914 80.9944C73.3516 80.9263 73.1188 81.0158 72.9719 81.2592C72.9039 81.4991 72.9934 81.7318 73.2368 81.8786L78.7789 83.9957C78.7825 84.0745 78.8614 84.0709 78.9402 84.0673ZM67.8522 79.7545C68.0098 79.7473 68.1636 79.6614 68.3105 79.418C68.3786 79.1781 68.2892 78.9454 68.0458 78.7986L62.5035 76.6815C62.2637 76.6135 62.0309 76.7029 61.884 76.9463C61.816 77.1862 61.9055 77.419 62.1489 77.5658L67.6912 79.6828C67.7735 79.7581 67.7735 79.758 67.8522 79.7545Z" fill="#110580"/>
<path d="M112.109 87.933C112.266 87.9259 112.42 87.8399 112.567 87.5965L114.544 82.4553C114.612 82.2154 114.523 81.9827 114.28 81.8359C114.04 81.7678 113.807 81.8572 113.66 82.1007L111.683 87.2419C111.615 87.4818 111.704 87.7145 111.948 87.8614C111.951 87.9402 112.03 87.9366 112.109 87.933ZM116.063 77.6506C116.221 77.6435 116.375 77.5577 116.522 77.3142L118.499 72.173C118.567 71.9332 118.478 71.7004 118.234 71.5535C117.994 71.4855 117.762 71.575 117.615 71.8184L115.637 76.9596C115.569 77.1995 115.659 77.4322 115.902 77.579C115.906 77.6578 115.985 77.6542 116.063 77.6506ZM120.022 67.4471C120.179 67.44 120.333 67.354 120.48 67.1106L122.457 61.9694C122.525 61.7295 122.436 61.4968 122.192 61.35C121.952 61.2819 121.72 61.3713 121.573 61.6148L119.596 66.756C119.528 66.9958 119.617 67.2286 119.86 67.3755C119.864 67.4543 119.943 67.4507 120.022 67.4471Z" fill="#110580"/>
<path d="M123.897 57.1683C124.055 57.1611 124.209 57.0753 124.356 56.8319L125.481 53.7815L122.43 52.6567C122.19 52.5886 121.958 52.6781 121.811 52.9215C121.743 53.1614 121.832 53.3942 122.076 53.541L124.245 54.3899L123.396 56.5596C123.328 56.7995 123.418 57.0321 123.661 57.179C123.819 57.1719 123.897 57.1683 123.897 57.1683Z" fill="#110580"/>
<path d="M116.852 51.4885C117.01 51.4813 117.164 51.3954 117.311 51.152C117.379 50.9121 117.289 50.6794 117.046 50.5325L111.503 48.4155C111.264 48.3474 111.031 48.4368 110.884 48.6803C110.816 48.9202 110.905 49.153 111.149 49.2998L116.691 51.4168C116.691 51.4168 116.773 51.492 116.852 51.4885ZM105.764 47.1756C105.922 47.1685 106.076 47.0826 106.223 46.8391C106.291 46.5992 106.201 46.3666 105.958 46.2197L100.416 44.1027C100.176 44.0346 99.943 44.124 99.7962 44.3675C99.7281 44.6073 99.8176 44.8401 100.061 44.987L105.603 47.104C105.607 47.1828 105.764 47.1756 105.764 47.1756ZM94.7587 42.938C94.9163 42.9309 95.0703 42.8449 95.2172 42.6015C95.2852 42.3616 95.1957 42.1289 94.9523 41.9821L89.41 39.865C89.1701 39.797 88.9375 39.8864 88.7907 40.1298C88.7226 40.3697 88.8119 40.6025 89.0554 40.7493L94.5977 42.8664C94.6012 42.9451 94.6012 42.9451 94.7587 42.938ZM83.6744 38.7039C83.8319 38.6968 83.986 38.6109 84.1328 38.3674C84.2009 38.1275 84.1114 37.8948 83.8679 37.748L78.3259 35.631C78.086 35.5629 77.8532 35.6523 77.7063 35.8957C77.6383 36.1356 77.7278 36.3684 77.9712 36.5152L83.5133 38.6323C83.5169 38.7111 83.5956 38.7075 83.6744 38.7039Z" fill="#110580"/>
<path d="M69.0309 36.0518C69.1885 36.0446 69.3423 35.9587 69.4892 35.7153L70.3383 33.5456L72.5078 34.3946C72.7477 34.4627 72.9805 34.3732 73.1273 34.1297C73.1954 33.8899 73.1059 33.6572 72.8625 33.5103L69.8121 32.3854L68.6872 35.4358C68.6191 35.6757 68.7086 35.9085 68.9521 36.0553C68.8733 36.0589 68.9522 36.0553 69.0309 36.0518Z" fill="#110580"/>
<path d="M57.2458 66.8951C57.4033 66.888 57.5572 66.8022 57.704 66.5587L59.6814 61.4176C59.7494 61.1777 59.6599 60.9449 59.4165 60.7981C59.173 60.6512 58.9438 60.8195 58.797 61.0629L56.8198 66.2041C56.7517 66.444 56.8411 66.6767 57.0845 66.8235C57.0057 66.8271 57.167 66.8987 57.2458 66.8951ZM61.1181 56.5377C61.2756 56.5305 61.4295 56.4446 61.5763 56.2012L63.5537 51.06C63.6218 50.8201 63.5323 50.5873 63.2888 50.4405C63.0489 50.3724 62.8162 50.4619 62.6693 50.7054L60.6921 55.8466C60.6241 56.0864 60.7134 56.3191 60.9568 56.466C61.0392 56.5412 61.1181 56.5377 61.1181 56.5377ZM65.0762 46.3341C65.2337 46.3269 65.3878 46.241 65.5346 45.9976L67.512 40.8565C67.5801 40.6166 67.4906 40.3838 67.2471 40.237C67.0072 40.1689 66.7745 40.2584 66.6276 40.5018L64.6502 45.6429C64.5822 45.8828 64.6717 46.1156 64.9151 46.2624C64.9975 46.3376 64.9974 46.3376 65.0762 46.3341Z" fill="#110580"/>
<path d="M103.337 106.879L127.478 97.893C128.874 97.3561 129.669 95.7415 129.129 94.2663L123.206 78.5112C122.669 77.1147 121.055 76.3196 119.579 76.86L95.4383 85.8462C94.0419 86.383 93.2469 87.9977 93.7872 89.4729L99.7099 105.228C100.329 106.7 101.944 107.495 103.337 106.879Z" fill="#AAACE3"/>
<path d="M91.3875 94.0017C92.4115 93.9553 93.3065 94.5463 93.5856 95.4808L94.5734 98.1198L95.561 100.759C95.9189 101.69 95.6503 102.728 94.8088 103.319L88.4166 108.581C87.2026 109.662 85.2837 109.117 84.7398 107.563L82.7677 102.364L80.7959 97.1649C80.2519 95.6109 81.2871 94.0643 82.9412 93.9894L91.3875 94.0017Z" fill="#AAACE3"/>
<path d="M49 320L38.2 320.8L43 386.4L53.8 385.6L49 320Z" fill="#DADAED"/>
<path d="M42.3999 329.3L38.7 329.6L38.8 330.4L42.5 330.1L42.3999 329.3Z" fill="#989BD7"/>
<path d="M43 336.6L39.3 336.9L39.3999 337.7L43.0999 337.4L43 336.6Z" fill="#989BD7"/>
<path d="M43.5999 344L39.8999 344.3L40 345.1L43.7 344.8L43.5999 344Z" fill="#989BD7"/>
<path d="M44.0999 351.3L40.3999 351.6L40.5 352.4L44.2 352.1L44.0999 351.3Z" fill="#989BD7"/>
<path d="M44.5999 358.7L40.8999 359L41 359.8L44.7 359.5L44.5999 358.7Z" fill="#989BD7"/>
<path d="M37.8999 342.5L31 343.7L40.0999 395.5L47 394.3L37.8999 342.5Z" fill="#FFADB2"/>
<path d="M37.8999 342.5L31 343.7L32.0999 333.8L33.5 333.5L37.8999 342.5Z" fill="#EBDBCD"/>
<path d="M32.5 338.4L33.5 337.8L34.3 337.9L35.3999 337.4L33.5999 333.7L32.2 334L31.7 337.9L32.5 338.4Z" fill="#FF7A82"/>
<path d="M53.9 384.7C52.7 384.5 51.9 383.4 52.1 382.2L57.5001 347.6C57.6001 347.3 57.6001 347 57.7001 346.8L60.8002 338.1C61.2002 337.1 62.3002 336.5 63.3002 336.7L63.8002 336.8C64.9002 337 65.6 338 65.6 339.1L64.9 348.3C64.9 348.6 64.8002 348.9 64.8002 349.2L56.6 383.2C56.2 384.2 55.1 385 53.9 384.7Z" fill="#2B31BA"/>
<path d="M94.3999 408.4H49.5V423.4H94.3999V408.4Z" fill="#F8D7BC"/>
<path d="M96.3 407.3V408.4H49.3999V423.4H96.3V424.5H-0.100098V407.2H96.3V407.3Z" fill="#FF7A82"/>
<path d="M35.3999 450.3H101.7V426.1H35.3999C32.0999 426.1 29.5 428.8 29.5 432V444.3C29.5 447.7 32.0999 450.3 35.3999 450.3Z" fill="#F8ECE2"/>
<path d="M-3.80005 424.6H104.7C105.1 424.6 105.5 425 105.5 425.4C105.5 425.8 105.1 426.2 104.7 426.2H91.3999H41.5999C34.8999 426.2 29.5 431.6 29.5 438.3C29.5 445 34.8999 450.4 41.5999 450.4H103.1H104.7C105.1 450.4 105.5 450.8 105.5 451.2C105.5 451.6 105.1 452 104.7 452H-3.90015C-10.6001 452 -16 446.6 -16 439.9V436.9C-15.9 430 -10.5 424.6 -3.80005 424.6Z" fill="#2B31BA"/>
<path d="M101.8 430H38.8999V430.8H101.8V430Z" fill="#EBD0BE"/>
<path d="M101.8 440H34.3V440.8H101.8V440Z" fill="#EBD0BE"/>
<path d="M101.8 445.2H42.5999V446H101.8V445.2Z" fill="#EBD0BE"/>
<path d="M101.8 435.3H36.3V436.1H101.8V435.3Z" fill="#EBD0BE"/>
<path d="M50.3 406.7H9V398H50.3C51.5 398 52.3999 398.9 52.3999 400.1V404.5C52.3999 405.7 51.5 406.7 50.3 406.7Z" fill="#F8E7D8"/>
<path d="M76 397.4H7.30005C7.20005 397.4 7 397.5 7 397.7C7 397.9 7.10005 398 7.30005 398H48C50.4 398 52.3 400 52.3 402.3C52.3 404.7 50.3 406.6 48 406.6H7.30005C7.20005 406.6 7 406.7 7 406.9C7 407 7.10005 407.2 7.30005 407.2H76C78.4 407.2 80.3 405.2 80.3 402.9V401.6C80.3 399.3 78.4 397.4 76 397.4Z" fill="#FF5856"/>
<path d="M33.0998 361.1H63.3C64.1 361.1 64.6998 361.8 64.5998 362.6L60.1999 397.4H35.9999L31.8 362.6C31.7 361.8 32.2998 361.1 33.0998 361.1Z" fill="#AAACE3"/>
<path d="M63.8999 336.4L63.3999 336.3C62.2999 336.1 61.2 336.7 60.8 337.7L57.5999 346.6C57.4999 346.7 57.5 346.8 57.5 347C58.5 347.8 59.8 348.5 61.2 348.7C62.5 348.9 63.7999 348.8 64.8999 348.5C64.8999 348.4 65 348.3 65 348.1L65.7 338.7C65.8 337.6 64.9999 336.7 63.8999 336.4Z" fill="#D7D7E6"/>
<path d="M64.0001 323C64.3001 322.4 65.1 322.4 65.4 323C65.9 324 66.5001 325.2 67.0001 326C67.8001 327.5 68.3002 330.9 67.8002 332.6C67.3002 334.6 65.9001 336.6 65.5001 337.3C65.4001 337.4 65.3 337.5 65.1 337.6C64.7 337.7 63.9002 337.9 62.8002 337.7C61.3002 337.3 61.2001 336.4 61.2001 336.4C61.2001 336.4 60.4001 333.2 60.5001 331.2C60.6001 329.2 61.7001 326.7 62.2001 326.3C62.5001 325.8 63.4001 324.2 64.0001 323Z" fill="#C7645D"/>
<path d="M104.7 450.3H103.1H97.8C97.4 450.9 97 451.4 96.5 451.8H104.6C105 451.8 105.4 451.4 105.4 451C105.4 450.7 105.1 450.3 104.7 450.3Z" fill="#2B31BA"/>
<path d="M104.7 426.1C105.1 426.1 105.5 425.7 105.5 425.3C105.5 424.9 105.1 424.5 104.7 424.5H99.2V426L104.7 426.1Z" fill="#2B31BA"/>
</svg>
