<svg xmlns="http://www.w3.org/2000/svg" width="25" height="25" viewBox="0 0 25 25"><path d="M9,23a2.5,2.5,0,1,0,2.5,2.5A2.5,2.5,0,0,0,9,23ZM1.5,3V5.5H4l4.5,9.487L6.812,18.05a2.417,2.417,0,0,0-.312,1.2A2.507,2.507,0,0,0,9,21.75H24v-2.5H9.525a.309.309,0,0,1-.313-.312l.038-.15,1.125-2.038h9.313a2.488,2.488,0,0,0,2.187-1.287L26.35,7.35a1.221,1.221,0,0,0,.15-.6A1.254,1.254,0,0,0,25.25,5.5H6.762L5.588,3Zm20,20A2.5,2.5,0,1,0,24,25.5,2.5,2.5,0,0,0,21.5,23Z" transform="translate(-1.5 -3)" fill="#adb5bd"/></svg>