<svg xmlns="http://www.w3.org/2000/svg" width="24.48" height="25.5" viewBox="0 0 24.48 25.5"><path d="M13.643,11.214h2.429V7.571h3.643V5.143H16.071V1.5H13.643V5.143H10V7.571h3.643ZM8.786,22.143a2.429,2.429,0,1,0,2.429,2.429A2.425,2.425,0,0,0,8.786,22.143Zm12.143,0a2.429,2.429,0,1,0,2.429,2.429A2.425,2.425,0,0,0,20.929,22.143ZM8.992,18.2l.036-.146,1.093-1.979h9.046a2.417,2.417,0,0,0,2.125-1.251L25.98,6.309,23.867,5.143h-.012L22.519,7.571l-3.351,6.071H10.644l-.158-.328L7.766,7.571,6.612,5.143,5.471,2.714H1.5V5.143H3.929L8.3,14.359,6.661,17.334a2.348,2.348,0,0,0-.3,1.166,2.436,2.436,0,0,0,2.429,2.429H23.357V18.5H9.3A.308.308,0,0,1,8.992,18.2Z" transform="translate(-1.5 -1.5)" fill="#fff"/></svg>