<svg xmlns="http://www.w3.org/2000/svg" width="26.13" height="25.125" viewBox="0 0 26.13 25.125"><path d="M22.47,3.938h-.063A7.147,7.147,0,0,0,16.44,7.2a7.147,7.147,0,0,0-5.967-3.266H10.41a7.1,7.1,0,0,0-7.035,7.1,15.29,15.29,0,0,0,3,8.335A52.616,52.616,0,0,0,16.44,29.063,52.616,52.616,0,0,0,26.5,19.371a15.29,15.29,0,0,0,3-8.335A7.1,7.1,0,0,0,22.47,3.938Zm2.613,14.4a48.177,48.177,0,0,1-8.643,8.517A48.249,48.249,0,0,1,7.8,18.328a13.551,13.551,0,0,1-2.663-7.293A5.329,5.329,0,0,1,10.423,5.7h.057a5.266,5.266,0,0,1,2.582.678,5.489,5.489,0,0,1,1.91,1.79,1.765,1.765,0,0,0,2.952,0,5.543,5.543,0,0,1,1.91-1.79A5.266,5.266,0,0,1,22.413,5.7h.057a5.329,5.329,0,0,1,5.289,5.333A13.722,13.722,0,0,1,25.083,18.334Z" transform="translate(-3.375 -3.938)" fill="#fff"/></svg>